<?xml version="1.0" encoding="utf-8"?>
<!-- Generator: Adobe Illustrator 23.0.1, SVG Export Plug-In . SVG Version: 6.00 Build 0)  -->
<svg version="1.1" id="Layer_1" xmlns="http://www.w3.org/2000/svg" xmlns:xlink="http://www.w3.org/1999/xlink" x="0px" y="0px"
	 viewBox="0 0 500 259" style="enable-background:new 0 0 500 259;" xml:space="preserve">
<style type="text/css">
	.st0{fill:#00AEEF;}
	.st1{filter:url(#Adobe_OpacityMaskFilter);}
	.st2{fill-rule:evenodd;clip-rule:evenodd;fill:#FFFFFF;}
	.st3{mask:url(#b_2_);fill:#00AEEF;}
	.st4{filter:url(#Adobe_OpacityMaskFilter_1_);}
	.st5{mask:url(#d_2_);fill:#00AEEF;}
	.st6{filter:url(#Adobe_OpacityMaskFilter_2_);}
	.st7{mask:url(#f_2_);fill:#00AEEF;}
	.st8{filter:url(#Adobe_OpacityMaskFilter_3_);}
	.st9{mask:url(#h_2_);fill:#00AEEF;}
	.st10{filter:url(#Adobe_OpacityMaskFilter_4_);}
	.st11{mask:url(#j_2_);fill:#00AEEF;}
	.st12{filter:url(#Adobe_OpacityMaskFilter_5_);}
	.st13{mask:url(#l_2_);fill:#00AEEF;}
	.st14{filter:url(#Adobe_OpacityMaskFilter_6_);}
	.st15{mask:url(#n_2_);fill:#00AEEF;}
	.st16{fill:#FA4B2A;}
	.st17{fill:#121212;}
</style>
<g>
	<path d="M450.8,164.5v33.2h16.4c4.6,0,7.2-0.7,9.1-2.4c2.4-2.2,3.6-6,3.6-14.2c0-8.2-1.2-12-3.6-14.2c-1.9-1.7-4.6-2.4-9.1-2.4
		H450.8z M473.2,181.1c0,7.2-0.5,8.9-1.9,9.9c-1,0.7-2.2,1-4.6,1h-9.1V170h9.1c2.4,0,3.6,0,4.6,1
		C472.7,172.2,473.2,173.8,473.2,181.1z M488.3,205h-48v-48h48V205z M401.1,170v-5.5h28.4V175h-6V170h-11.5v7.9h9.1v5.3h-9.1v8.9
		h11.8v-5.8h6v11.3h-28.6v-5.5h4.6V170H401.1z M375.4,189c0,3.6,0.2,6.3,0.7,8.4h6.5c-0.2-1.7-0.5-4.8-0.5-8.9
		c-0.2-4.8-1.7-5.5-5.1-6.3c3.8-0.7,5.5-2.4,5.5-8.4c0-4.8-0.7-6.7-2.2-7.9c-1-1-2.6-1.4-5.3-1.4h-20.2v33.2h6.7v-13h9.4
		c1.9,0,2.6,0.2,3.4,0.7C375.1,185.9,375.4,186.6,375.4,189z M361.6,179.4v-9.1h10.8c1.4,0,1.9,0.2,2.2,0.5c0.5,0.5,1,1.2,1,4.1
		s-0.5,3.8-1,4.3c-0.2,0.2-0.7,0.5-2.2,0.5L361.6,179.4z M392.2,205h-48.1v-48h48v48H392.2z M331.6,192.1v5.5h-22.9v-5.5h8.2V170
		h-8.2v-5.5h22.9v5.5h-8.2v22.1H331.6z M292.9,164.5h-6.3l-4.6,26.2l-5.3-24.3c-0.2-1.7-1-1.9-2.4-1.9h-3.4c-1.4,0-2.2,0.5-2.4,1.9
		l-5.3,24.3l-4.6-26.2H252l6.5,31.5c0.2,1.4,0.7,1.7,2.4,1.7h4.6c1.4,0,1.9-0.2,2.4-1.7l5.1-22.9L278,196c0.2,1.4,0.7,1.7,2.4,1.7
		h4.3c1.4,0,2.2-0.2,2.4-1.7L292.9,164.5z M296.3,205h-48.1v-48h48v48H296.3z"/>
</g>
<g transform="translate(.887 .34)">
	<path class="st0" d="M28.2,162.5l-7.8,20.7l-7.9-20.7H-0.9V200h9.7v-24.8l9.5,24.8h4.3l9.5-24.8V200h9.7v-37.5H28.2z"/>
	<defs>
		<filter id="Adobe_OpacityMaskFilter" filterUnits="userSpaceOnUse" x="43.5" y="172.1" width="26.4" height="28.5">
			<feColorMatrix  type="matrix" values="1 0 0 0 0  0 1 0 0 0  0 0 1 0 0  0 0 0 1 0"/>
		</filter>
	</defs>
	<mask maskUnits="userSpaceOnUse" x="43.5" y="172.1" width="26.4" height="28.5" id="b_2_">
		<g class="st1">
			<path id="a_2_" class="st2" d="M43.2,169.7h27.3v30.9H43.2V169.7z"/>
		</g>
	</mask>
	<path class="st3" d="M61.3,193v-2.4c-0.9-1.3-2.9-1.9-4.8-1.9c-2.3,0-4.3,1-4.3,3.2c0,2.1,2.1,3.2,4.3,3.2
		C58.4,195,60.4,194.3,61.3,193L61.3,193z M61.3,200v-2.7c-1.7,2-4.9,3.4-8.4,3.4c-4.2,0-9.3-2.9-9.3-9c0-6.6,5.2-8.8,9.3-8.8
		c3.6,0,6.8,1.2,8.4,3.2v-2.7c0-2.4-2-4-5.5-4c-2.7,0-5.4,1.1-7.6,2.9l-3.2-6c3.5-3,8.2-4.2,12.3-4.2c6.5,0,12.7,2.4,12.7,10.9v17
		L61.3,200L61.3,200z"/>
	<defs>
		<filter id="Adobe_OpacityMaskFilter_1_" filterUnits="userSpaceOnUse" x="71.2" y="172.1" width="25.1" height="28.5">
			<feColorMatrix  type="matrix" values="1 0 0 0 0  0 1 0 0 0  0 0 1 0 0  0 0 0 1 0"/>
		</filter>
	</defs>
	<mask maskUnits="userSpaceOnUse" x="71.2" y="172.1" width="25.1" height="28.5" id="d_2_">
		<g class="st4">
			<path id="c_2_" class="st2" d="M70.5,169.7h27.3v30.9H70.5V169.7z"/>
		</g>
	</mask>
	<path class="st5" d="M71.2,196.4l3.6-6.2c2,1.8,6.4,3.7,9.6,3.7c2.6,0,3.7-0.7,3.7-1.9c0-3.4-15.8,0.1-15.8-10.9
		c0-4.8,4.2-8.9,11.6-8.9c4.6,0,8.4,1.5,11.4,3.6l-3.3,6.1c-1.6-1.6-4.7-3-8-3c-2,0-3.4,0.8-3.4,1.9c0,3,15.7-0.1,15.7,11
		c0,5.2-4.5,8.9-12.3,8.9C79,200.7,74,199,71.2,196.4"/>
	<defs>
		<filter id="Adobe_OpacityMaskFilter_2_" filterUnits="userSpaceOnUse" x="97.9" y="162.5" width="27.1" height="37.5">
			<feColorMatrix  type="matrix" values="1 0 0 0 0  0 1 0 0 0  0 0 1 0 0  0 0 0 1 0"/>
		</filter>
	</defs>
	<mask maskUnits="userSpaceOnUse" x="97.9" y="162.5" width="27.1" height="37.5" id="f_2_">
		<g class="st6">
			<path id="e_2_" class="st2" d="M97.8,162.5h27.3v38.2H97.8V162.5z"/>
		</g>
	</mask>
	<path class="st7" d="M116.3,200v-15.8c0-3.3-1.7-4.4-4.5-4.4c-2.5,0-4.2,1.4-5.2,2.6V200h-8.7v-37.5h8.7v13.7c1.6-1.9,4.8-4,9.4-4
		c6.2,0,9,3.5,9,8.5V200C125,200,116.3,200,116.3,200z"/>
	<defs>
		<filter id="Adobe_OpacityMaskFilter_3_" filterUnits="userSpaceOnUse" x="126.7" y="172.1" width="26.4" height="28.5">
			<feColorMatrix  type="matrix" values="1 0 0 0 0  0 1 0 0 0  0 0 1 0 0  0 0 0 1 0"/>
		</filter>
	</defs>
	<mask maskUnits="userSpaceOnUse" x="126.7" y="172.1" width="26.4" height="28.5" id="h_2_">
		<g class="st8">
			<path id="g_2_" class="st2" d="M125.2,169.7h30.1v30.9h-30.1V169.7z"/>
		</g>
	</mask>
	<path class="st9" d="M144.5,193v-2.4c-0.9-1.3-2.9-1.9-4.8-1.9c-2.3,0-4.3,1-4.3,3.2c0,2.1,2.1,3.2,4.3,3.2
		C141.6,195,143.6,194.3,144.5,193L144.5,193z M144.5,200v-2.7c-1.7,2-5,3.4-8.4,3.4c-4.2,0-9.3-2.9-9.3-9c0-6.6,5.2-8.8,9.3-8.8
		c3.6,0,6.8,1.2,8.4,3.2v-2.7c0-2.4-2-4-5.5-4c-2.7,0-5.4,1.1-7.6,2.9l-3.2-6c3.5-3,8.2-4.2,12.3-4.2c6.5,0,12.7,2.4,12.7,10.9v17
		L144.5,200L144.5,200z"/>
	<defs>
		<filter id="Adobe_OpacityMaskFilter_4_" filterUnits="userSpaceOnUse" x="156" y="162.5" width="28.7" height="38.2">
			<feColorMatrix  type="matrix" values="1 0 0 0 0  0 1 0 0 0  0 0 1 0 0  0 0 0 1 0"/>
		</filter>
	</defs>
	<mask maskUnits="userSpaceOnUse" x="156" y="162.5" width="28.7" height="38.2" id="j_2_">
		<g class="st10">
			<path id="i_2_" class="st2" d="M155.2,162.5h30.1v38.2h-30.1V162.5z"/>
		</g>
	</mask>
	<path class="st11" d="M169.8,193c3.4,0,6-2.5,6-6.6c0-4-2.6-6.6-6-6.6c-1.9,0-4.1,1-5.2,2.5v8.3C165.7,192.1,168,193,169.8,193z
		 M156,200v-37.5h8.7V176c1.9-2.5,4.9-3.9,8.1-3.9c6.8,0,12,5.3,12,14.2c0,9.2-5.3,14.3-12,14.3c-3,0-5.8-1.2-8.1-3.8v3.2L156,200
		L156,200z"/>
	<defs>
		<filter id="Adobe_OpacityMaskFilter_5_" filterUnits="userSpaceOnUse" x="186.4" y="162.5" width="8.7" height="37.5">
			<feColorMatrix  type="matrix" values="1 0 0 0 0  0 1 0 0 0  0 0 1 0 0  0 0 0 1 0"/>
		</filter>
	</defs>
	<mask maskUnits="userSpaceOnUse" x="186.4" y="162.5" width="8.7" height="37.5" id="l_2_">
		<g class="st12">
			<path id="k_2_" class="st2" d="M185.3,162.5h10.9v38.2h-10.9V162.5z"/>
		</g>
	</mask>
	<path class="st13" d="M186.4,162.5h8.7V200h-8.7V162.5z"/>
	<defs>
		<filter id="Adobe_OpacityMaskFilter_6_" filterUnits="userSpaceOnUse" x="196.8" y="172.1" width="28.3" height="28.5">
			<feColorMatrix  type="matrix" values="1 0 0 0 0  0 1 0 0 0  0 0 1 0 0  0 0 0 1 0"/>
		</filter>
	</defs>
	<mask maskUnits="userSpaceOnUse" x="196.8" y="172.1" width="28.3" height="28.5" id="n_2_">
		<g class="st14">
			<path id="m_2_" class="st2" d="M196.2,169.7h28.9v30.9h-28.9V169.7z"/>
		</g>
	</mask>
	<path class="st15" d="M211.2,179.1c-3.8,0-5.2,2.3-5.6,4.2h11.2C216.6,181.4,215.2,179.1,211.2,179.1 M196.8,186.4
		c0-7.9,5.9-14.2,14.4-14.2c8,0,13.9,5.9,13.9,15.1v2h-19.3c0.6,2.4,2.9,4.4,6.8,4.4c1.9,0,5.1-0.8,6.6-2.3l3.8,5.7
		c-2.7,2.4-7.2,3.6-11.4,3.6C203.2,200.7,196.8,195.2,196.8,186.4"/>
</g>
<path class="st16" d="M315.7,119.7c0,1.2-0.3,2.4-1.1,3.3h23v-11.6c-1.6,0.7-3.6,1.1-5.5,1.1h-5v-3.8h2.6c1.4,0,2.7,0.1,4,0.7v-10
	c-1.4,0.6-2.6,0.7-4,0.7h-2.6v-4.3h5c1.9,0,3.9,0.4,5.5,1.1V85.9h-23.1c0.9,0.8,1.2,2.2,1.2,3.3V119.7z M295.7,100.2v-3.8h0.5
	c1.3,0,2.8,0.2,3.8,0.7V85.9h-16.2V123h13.1c-0.9-0.8-1.2-2.2-1.2-3.3v-10.5h6.2v10.5c0,1.2-0.3,2.6-1.2,3.3h13.1V85.9h-11.9v14.3
	H295.7z M267.2,96.4h2.8v23.3c0,1.2-0.3,2.6-1.2,3.3h13.1V85.9h-18.6v11.2C264.3,96.6,265.9,96.4,267.2,96.4z M464.2,100.2h-14.2
	c-0.7,0-1.6-0.1-2.4-0.3v9.2c0.8-0.3,1.7-0.3,2.4-0.3h3.8v2.9c-0.5,0.4-1.5,0.7-2.5,0.7c-4.3,0-7.5-3.4-7.5-7.6
	c0-4.1,3.1-7.9,7.4-7.9c2.6,0,5.6,0.9,8.8,2.4V85.9h-9.5c-10.3,0-18.5,8-18.5,18.7c0,10.5,8.2,19.4,18.9,19.4
	c5.9,0,11.4-2.4,14.3-5.3c-0.6-1.1-0.9-2.1-0.9-3.4L464.2,100.2L464.2,100.2z M482.5,95.9c1.9,0,3.9,0.4,5.5,1.1V85.9h-23.1
	c0.9,0.8,1.2,2.2,1.2,3.3v30.5c0,1.2-0.3,2.4-1.1,3.3h23v-11.6c-1.6,0.7-3.6,1.1-5.5,1.1h-5v-3.8h2.6c1.4,0,2.7,0.1,4,0.7v-10
	c-1.4,0.6-2.6,0.7-4,0.7h-2.6v-4.3H482.5z M427.3,106.3c2-2.2,3.2-5.1,3.2-8c0-8.6-6.4-12.4-13.2-12.4l-14.7,0
	c0.9,0.8,1.2,2.2,1.2,3.3l0,30.5c0,1.1-0.3,2.4-1.2,3.3h14.2c-0.9-0.9-1.1-2.2-1.1-3.3v-7.6c4.1,0.8,6.8,4.5,6.8,7.6
	c0,1.1-0.3,2.4-1.2,3.3h14.1c-0.9-0.9-1.1-2.3-1.2-3.4C433.7,113,431.5,108.4,427.3,106.3L427.3,106.3z M415.6,102.6v-6.8
	c1.9,0,4.3,0.5,4.3,3.4S417.5,102.6,415.6,102.6z M363.7,106.4l-3.8-10.5h5.7l3.8-10h-26.7c0.8,0.8,1.6,1.8,2.2,2.9l14.7,34.3h8.1
	l12.1-28.6v25.2c0,1.2-0.3,2.6-1.2,3.3h23.1v-11.6c-1.6,0.7-3.6,1.6-5.5,1.6h-5v-4.3h2.6c1.4,0,2.7,0.1,4,0.7v-10
	c-1.4,0.6-2.6,0.7-4,0.7h-2.6v-3.8h5c1.9,0,3.9,0.4,5.5,1.1V85.9h-30.5L363.7,106.4z"/>
<path class="st17" d="M51.3,90.3c0.8-0.4,1.6-0.8,2.4-1.2c0.3-0.2,1.4-0.5,1.5-0.8c0.1-0.2,0-0.6,0-0.8v-1.8V72.5V59.7V58
	c0-0.1,0.1-0.6,0-0.7c-0.1-0.1-0.7,0-0.8,0h-1.7c-0.6,0-0.5,0.1-0.9,0.5c-1.5,1.9-2.9,3.8-4.4,5.8c-0.7,0.9-1.4,1.8-2,2.7
	C45,67,45,67,44.1,67l0.2-5.1c0.1-1.2,0.1-2.5,0.2-3.7c0-0.5,0.1-0.9,0.1-1.4c0-0.2-0.1-0.6,0-0.7c0.2-0.2,1.5-0.1,1.9-0.1h28.7
	c0.2,0,0.8-0.1,1,0s0.1,0.5,0.1,0.8c0.1,1,0.1,2.1,0.2,3.1c0.1,2.2,0.2,4.4,0.3,6.6V67c-0.4,0-0.7,0.1-1-0.2s-0.5-0.7-0.8-1
	c-0.9-1.2-1.8-2.5-2.8-3.8l-2.8-3.7c-0.2-0.2-0.4-0.8-0.7-0.9c-0.2-0.2-0.7-0.1-1-0.1h-1.2c-0.2,0-0.8-0.1-0.9,0
	c-0.1,0.1,0,0.1-0.1,0.2c-0.2,0.6,0,1.4,0,2v26.7c0,0.5-0.2,1.3,0,1.8c0.2,0.5,1.4,0.9,1.9,1.2c0.5,0.3,1.5,0.5,1.9,1
	c0.2,0.2,0.3,0.9,0.2,1.2c-0.1,0.1-0.5,0-0.5,0H52c-0.2,0-0.7,0.1-0.8,0C51.2,91.2,51.3,90.6,51.3,90.3z M79.7,89V77.8V59.4v-3
	c0-0.5,0.2-1.2,0-1.6c-0.2-0.5-1.1-0.6-1.6-0.8c-0.3-0.1-1.3-0.3-1.5-0.6v-0.6h0.2c0.3-0.2,0.9-0.2,1.3-0.2c0.7-0.2,1.4-0.2,2-0.4
	c1.5-0.3,3.1-0.6,4.7-0.8c0.9-0.2,1.8-0.4,2.8-0.5c0.2,0,1.2-0.2,1.2,0c0.1,0.1,0,0.4,0,0.5v15.9c2.9-2.9,8-4.5,12-3.5
	c3.5,0.8,4.7,4.1,4.7,7.5c0.1,4.3,0,8.5,0,12.8v3.5c0,0.4-0.2,1.3,0,1.7c0.1,0.2,0.4,0.2,0.5,0.4c0.5,0.3,1.2,0.6,1.7,0.9
	c0.1,0.1,0.3,0.2,0.3,0.2c0.1,0.1,0.1,0.8,0,0.8c-0.1,0.2-0.1,0.1-0.3,0.1c-0.8,0.2-1.8,0-2.5,0h-11c-0.1,0-0.5,0.1-0.5,0
	c-0.1-0.1-0.1-0.9,0-1c0.2-0.3,1.2-0.6,1.5-0.8c0.2-0.2,0.9-0.4,1.1-0.6c0.2-0.2,0-1.1,0-1.3v-3.1c0-4.4,0.1-9,0-13.4
	c0-1.3-0.2-2.8-1.5-3.5c-0.7-0.4-1.6-0.5-2.4-0.5c-0.6,0-1.2,0.2-1.8,0.3c-0.5,0.2-1.3,0.5-1.6,0.8c-0.2,0.3-0.1,0.8-0.1,1.2v18.1
	c0,0.4-0.2,1.2,0,1.5c0.1,0.2,0.4,0.3,0.6,0.4c0.5,0.3,1.2,0.6,1.8,0.9c0.1,0.1,0.2,0.1,0.2,0.2c0.1,0.1,0.1,0.8,0,0.8
	s-0.2,0.1-0.3,0.1c-0.8,0.1-1.8,0-2.6,0h-11c-0.1,0-0.5,0.1-0.5,0c-0.1-0.1,0-0.8,0.1-1c0.2-0.3,1.1-0.6,1.4-0.8
	C79,89.4,79.3,89.2,79.7,89z M116.1,78.4c0.2,3.4,1.2,7.1,4.3,9c1.6,0.9,3.6,1.2,5.4,1.1c2.2-0.2,4.1-1.3,6-2.3c0,0.3,0.1,0.8,0,1.2
	c-0.2,0.3-0.5,0.7-0.8,0.9c-0.3,0.3-0.7,0.7-1.1,1c-1.3,1.1-2.8,1.8-4.3,2.4c-2.9,1-6.3,0.9-9.3,0.2c-2.4-0.6-4.5-1.8-6.1-3.6
	c-1.6-1.8-2.5-4.2-2.9-6.7c-0.8-5.3,0.2-11.3,4.5-14.9c3.8-3.1,10-3.7,14.5-1.8c5.5,2.2,6.4,8.5,6.4,13.7h-14.6
	C117.5,78.4,116.8,78.4,116.1,78.4L116.1,78.4z M116,77.1c1.5-0.1,3.1-0.2,4.7-0.3c0.9-0.1,1.9-0.1,2.8-0.2c0.2,0,0.5,0,0.7-0.1
	c0.2-0.2,0.1-1.7,0.1-2c-0.1-2.8-0.2-6.1-1.8-8.5c-1.2-1.7-2.9-1.4-4,0.2C116.3,69.2,116,73.6,116,77.1z M-0.1,105.1
	c0-4.3,0.8-8.7,3.2-12.3c2.3-3.5,6-5.8,10-7c4.8-1.4,10.2-1.2,15.2-0.3c1.1,0.2,2.1,0.5,3.1,0.8c0.2,0.1,0.8,0.2,0.9,0.4v0.2
	c0.2,0.9,0.1,2.1,0.1,3c0.1,2.4,0.1,4.8,0.2,7.2c-0.3,0-0.8,0.1-1.1,0c-0.2-0.1-0.3-0.5-0.4-0.6c-0.6-0.9-1.2-1.8-1.8-2.8
	c-1.3-2.1-2.7-4.1-4-6.2c-0.7-1.2-2.6-1.2-3.8-1.2c-1.4,0-2.8,0.2-3.9,0.9c-2.6,1.6-3.8,4.8-4.5,7.6c-1.1,4.5-1,9.3-0.8,13.9
	c0.2,3.5,0.5,7.3,1.9,10.5c0.8,2,2.3,3.8,4.5,4.2c0.7,0.2,1.4,0.2,2.1,0.1c0.5-0.1,2.1-0.2,2.3-0.6c0.1-0.2,0-0.5,0-0.7v-1.3v-8.1
	v-3.1c0-0.5,0.2-0.8-0.3-1.1c-0.5-0.3-1.2-0.6-1.7-1c-0.4-0.2-1.2-0.5-1.4-0.8c-0.2-0.2-0.2-1-0.1-1.2c0.1-0.2,0.1-0.1,0.3-0.1
	c0.7-0.2,1.6,0,2.3,0h11.9c0.8,0,1.6-0.1,2.4,0h0.3c0.1,0.1,0.1,1.2,0,1.3c-0.2,0.2-0.9,0.5-1.2,0.7c-0.5,0.3-1.2,0.6-1.7,1
	c-0.6,0.3-0.5,0.3-0.5,1v12.5c0,0.2,0.1,0.5,0,0.7c-0.2,0.4-1.8,0.6-2.2,0.8c-1.3,0.4-2.7,0.7-4.1,0.9c-2.7,0.5-5.4,0.6-8.1,0.5
	c-4.3-0.2-8.8-1.1-12.3-3.7c-3.1-2.2-5.1-5.6-6-9.3C0.1,109.7-0.1,107.4-0.1,105.1z M35.2,98.1c0-0.2-0.1-0.8,0-0.8
	c0.1-0.1,0.2,0,0.2-0.1c0.5-0.2,1.1-0.2,1.6-0.3c1.8-0.3,3.5-0.6,5.4-0.9c1.4-0.2,2.8-0.5,4.1-0.7c0.4-0.1,0.8-0.1,1.2,0.1
	c0.4,0.1,0.2,0,0.3,0.3c0.2,0.9,0,2,0,2.9v16c0,1.9-0.5,5.4,1.3,6.6c0.9,0.6,2.2,0.6,3.3,0.4c0.8-0.2,2.5-0.8,2.8-1.7
	c0.1-0.2,0-0.5,0-0.8v-1.6v-10.7v-4.9v-1.6c0-0.2,0.1-0.6,0-0.8c-0.2-0.2-1-0.5-1.2-0.5c-0.5-0.2-0.8-0.4-1.3-0.5
	c-0.2-0.1-0.7-0.2-0.8-0.3c-0.1-0.1-0.1-0.8,0-0.8c0.1-0.1,0.1,0,0.2-0.1c0.4-0.2,1.1-0.2,1.5-0.2c3.1-0.5,6.4-1.2,9.6-1.7
	c0.4-0.1,0.8-0.1,1.2,0c0.4,0.1,0.2-0.1,0.3,0.3c0.2,0.8,0,1.8,0,2.7v22.1c0,0.2-0.1,0.6,0,0.9c0.1,0.2,0,0.2,0.4,0.3
	c0.8,0.3,1.6,0.7,2.4,1c0.2,0.1,0.3,0.1,0.4,0.2c0.1,0.2,0.1,0.7,0,0.7c-0.2,0.2-0.9,0.1-1.1,0.2c-1.7,0.2-3.4,0.4-5.1,0.6
	c-1.5,0.2-3.1,0.4-4.5,0.5c-0.3,0.1-0.6,0.1-0.9,0c-0.2,0-0.6,0-0.7-0.1c-0.1-0.2,0-0.8,0-0.9v-1.3c0-0.2,0.2-0.8,0-1.1
	c-0.2-0.2-0.5,0.1-0.7,0.2c-0.6,0.5-1.3,1.1-2,1.5c-2.5,1.5-5.7,2.2-8.6,1.6c-2.1-0.5-4-1.7-4.9-3.8c-0.7-1.5-0.8-3.1-0.8-4.6v-9.1
	v-5.2v-1.8c0-0.2,0.1-0.6,0-0.8c-0.2-0.2-1.1-0.5-1.3-0.6C36.5,98.6,35.9,98.4,35.2,98.1z M107.6,95.2c0.2,0,0.8,0,0.9,0.2
	c0.1,0.1,0,0.6,0,0.7v6.7c0,0.2-0.1,0.6,0,0.8v0.2c0.3,0.3,0.4-0.7,0.5-0.8c0.7-2.8,2-6.1,4.9-7.3c0.5-0.2,1.1-0.3,1.6-0.4
	c0.5,0,1.8-0.2,2,0.2c0.1,0.2,0,0.5,0,0.7v7.8c-1.8-0.4-3.9-0.3-5.7,0.1c-0.8,0.2-1.6,0.4-2.4,0.8c-0.4,0.2-0.5,0.1-0.5,0.4
	c-0.1,0.3,0,0.8,0,1.2v14.8c0,0.2-0.1,0.4,0,0.5c0.2,0.2,0.7,0.4,0.9,0.5c0.4,0.2,0.8,0.5,1.2,0.7c0.2,0.1,0.4,0.2,0.5,0.3
	c0.1,0.1,0.1,1,0,1.1c-0.1,0.1-0.5,0-0.7,0H98c-0.4,0-1.1,0.2-1.4,0h-0.2c-0.1-0.1,0-0.9,0-1c0.2-0.5,1.2-0.8,1.6-1
	c0.3-0.2,0.9-0.4,1.1-0.7c0.1-0.2,0-0.6,0-0.8v-1.6V99.6c0-0.1,0.1-0.5,0-0.5c-0.1-0.1-0.5-0.2-0.6-0.2c-0.5-0.2-0.9-0.3-1.4-0.4
	c-0.5-0.2-1.6-0.2-1.2-1c0.1-0.2,0.4-0.2,0.7-0.2c3.4-0.6,6.7-1.2,10-1.8C106.9,95.3,107.2,95.3,107.6,95.2L107.6,95.2z M136.5,95.9
	v-6.1V88c0-0.2,0.1-0.7,0-0.9c-0.1-0.2-0.4-0.2-0.6-0.3c-0.6-0.2-1.2-0.5-1.9-0.7c-0.5-0.2-0.7-0.1-0.7-0.6c0-0.5-0.1-0.3,0.3-0.4
	c0.8-0.3,1.8-0.3,2.7-0.5c2.5-0.5,5-0.9,7.5-1.4c0.5-0.1,1.1-0.2,1.6-0.2c0.6,0.1,0.7-0.1,0.7,0.5c0.1,1.2,0,2.5,0,3.8v33.6
	c0,0.3-0.1,0.3,0.2,0.5c0.5,0.3,1.2,0.5,1.7,0.6c0.3,0.1,1.2,0.2,1.3,0.5c0.1,0.1,0.1,0.9,0,1c-0.1,0.1-0.5,0.1-0.6,0.1
	c-1.1,0.2-2.1,0.3-3.1,0.4c-2.4,0.3-4.8,0.6-7.2,0.9c-0.4,0.1-1.3,0.2-1.5-0.1s0-1.3,0-1.6c0-0.2,0.2-1.2,0-1.4s-1.8,1.4-2.1,1.5
	c-0.9,0.6-1.9,1.1-3,1.4c-1.7,0.5-3.6,0.5-5.3,0.1c-7.4-1.7-8.9-10.4-8.3-16.8c0.3-3.4,1.4-6.7,3.7-9.2c2.1-2.2,5.1-3.4,8.1-3.6
	C132.2,94.9,134.4,95,136.5,95.9L136.5,95.9z M136.5,120.3v-18.9v-3.5c0-0.5-0.1-0.5-0.6-0.8c-1.1-0.6-2.5-0.8-3.6-0.4
	c-1.8,0.7-2.6,2.8-3.1,4.4c-0.9,3.1-1,6.4-0.9,9.6c0.1,2.8,0.2,6.1,1.7,8.6C131.3,121.5,134.5,122,136.5,120.3z M161.8,95.2
	c0.4,0.1,0.8-0.1,1,0.3c0.1,0.2,0,0.8,0,1v24c0,0.3-0.1,0.8,0,1.1c0.1,0.3,0.4,0.4,0.7,0.5c0.5,0.2,0.8,0.5,1.3,0.7
	c0.2,0.1,0.6,0.2,0.7,0.5c0,0.1,0.1,1,0,1.1h-0.2c-0.5,0.1-1.1,0-1.6,0H152c-0.3,0-1.2,0.2-1.4,0c-0.2-0.1-0.2-1-0.1-1.2
	c0.2-0.2,0.7-0.4,0.9-0.5c0.5-0.2,0.9-0.5,1.4-0.8c0.4-0.2,0.3-0.2,0.3-0.5c0.2-1.2,0-2.5,0-3.6v-6.1v-11c0-0.3,0.1-0.8,0-1.2
	c-0.1-0.3-0.5-0.3-0.8-0.5c-0.5-0.2-1-0.4-1.5-0.6c-0.2-0.1-0.8-0.2-0.9-0.4c-0.1-0.1-0.1-0.8,0-0.9s0.2,0,0.3-0.1
	c0.6-0.2,1.3-0.2,2-0.4c1-0.2,1.9-0.4,2.9-0.5c1.9-0.3,3.8-0.7,5.7-1C161.2,95.3,161.5,95.3,161.8,95.2L161.8,95.2z M162.9,88
	c-0.2,4.6-6.4,6.6-9.2,3c-1.3-1.7-1.4-4-0.2-5.8s3.4-2.5,5.4-2.1C161.2,83.7,162.9,85.7,162.9,88z M196.5,121.7v-18.5v-3.5
	c0-0.1,0.1-0.5,0-0.5c-0.1-0.2-0.5-0.2-0.7-0.2l-1.4-0.5c-0.2-0.1-0.8-0.2-1-0.4c-0.2-0.2-0.1-0.5-0.1-0.8c0-0.5,0.2-0.4,0.6-0.5
	l5.1-0.9l5.1-0.9c0.3-0.1,0.5-0.2,0.8-0.2c0.2,0,0.9,0,1.1,0.1c0.1,0.1,0,0.5,0,0.7v1.5c0,0.2-0.2,0.9,0,1.2c0.2,0.3,0.5,0,0.7-0.2
	c0.7-0.5,1.4-1,2.1-1.4c2.8-1.5,6.1-2.2,9.2-1.8c2.1,0.3,3.9,1.5,4.7,3.5c0.5,1.5,0.6,3,0.6,4.5v17.5c0,0.3-0.1,0.8,0,1.2
	s0.3,0.4,0.7,0.5c0.4,0.2,0.8,0.5,1.2,0.7c0.2,0.1,0.7,0.2,0.8,0.5c0.1,0.2,0.1,0.9,0,1c-0.1,0.2,0.1,0-0.2,0.1c-0.3,0.2-1,0-1.4,0
	h-11c-0.5,0-2.2,0.2-2.5-0.1c-0.1-0.1-0.1-0.9,0-1.1s0.5-0.3,0.7-0.4c0.5-0.2,0.8-0.5,1.3-0.7c0.2-0.1,0.6-0.2,0.7-0.4
	c0.1-0.2,0-0.5,0-0.6v-1.7V114v-10.4c0-1.2,0.1-2.6-0.7-3.7c-0.6-0.9-1.7-1.2-2.8-1.2c-0.8,0-1.6,0.1-2.4,0.3
	c-0.4,0.2-1.5,0.5-1.8,0.9c-0.1,0.2,0,0.5,0,0.6v19.9c0,0.2-0.1,0.8,0,1c0.1,0.3,0.5,0.4,0.8,0.5c0.4,0.2,0.8,0.5,1.2,0.7
	c0.2,0.1,0.5,0.2,0.5,0.3c0.1,0.1,0.1,1,0,1.1c0,0.1-0.1,0-0.2,0c-0.3,0.2-1.1,0-1.4,0h-12.9c-0.4,0-0.5,0.1-0.5-0.2
	c-0.1-0.2-0.1-0.8,0-1c0.1-0.2,0.5-0.3,0.7-0.4C195.2,122.5,195.8,122.1,196.5,121.7z M180.2,107.6c0-2,0.1-4.1-0.1-6.1
	c-0.2-2.2-0.8-4.7-3.4-5.1c-0.8-0.2-2.1-0.4-2.7,0.2c-0.5,0.5-0.9,1.3-1.4,1.9l-3.9,5.3c-0.2,0.3-0.5,0.9-0.8,1.1
	c-0.1,0.1-0.8,0.1-0.8,0c-0.1-0.1,0-0.6,0-0.8v-6.2c0-0.2-0.1-0.6,0-0.8c0.2-0.4,1.8-0.6,2.2-0.8c2.1-0.5,4.4-0.9,6.6-1.1
	c3.1-0.2,6.7-0.2,9.6,1.2c2.3,1.1,3.8,3,4.1,5.4c0.2,1.2,0.2,2.6,0.2,3.8V121c0,0.2-0.2,0.8,0,1c0.1,0.1,0.5,0.2,0.5,0.2
	c0.6,0.2,1.2,0.3,1.8,0.5c0.4,0.1,0.5,0.1,0.5,0.5s0.1,0.4-0.4,0.5c-0.5,0.2-1.1,0.5-1.6,0.6c-2.8,0.8-7.3,1.1-9.4-1.5
	c-0.2-0.2-0.6-1.2-0.8-1.3c-0.3-0.1-1.2,1.2-1.5,1.4c-1.2,1.1-2.8,1.7-4.4,1.9c-3,0.4-6.2-0.2-8.1-2.8c-1.5-2.2-1.8-5.7-0.7-8.1
	c2.1-4.7,8.2-5.1,12.7-5.9C178.9,107.8,179.6,107.7,180.2,107.6L180.2,107.6z M180.2,120.3V109c-2.3,0.2-4.7,0.3-5.5,2.8
	c-0.6,1.7-0.6,3.7-0.4,5.4c0.2,1.2,0.5,2.8,1.6,3.5C177.2,121.6,179.2,121.5,180.2,120.3L180.2,120.3z M83.2,107.6
	c0-2,0.1-4.1-0.1-6.1c-0.2-2.2-0.8-4.7-3.4-5.1c-0.8-0.2-2.1-0.4-2.7,0.2c-0.5,0.5-0.9,1.3-1.4,1.9l-3.9,5.3
	c-0.2,0.3-0.5,0.9-0.8,1.1c-0.1,0.1-0.8,0.1-0.8,0c-0.1-0.1,0-0.6,0-0.8v-6.1c0-0.2-0.1-0.6,0-0.8c0.2-0.4,1.8-0.6,2.2-0.8
	c2.1-0.5,4.4-0.9,6.5-1.1c3.1-0.2,6.7-0.2,9.6,1.2c2.3,1.1,3.8,3,4.1,5.4c0.2,1.2,0.2,2.6,0.2,3.8v15.3c0,0.2-0.2,0.8,0,1
	c0.1,0.1,0.5,0.2,0.5,0.2c0.6,0.2,1.2,0.3,1.8,0.5c0.4,0.1,0.5,0.1,0.5,0.5s0.1,0.4-0.4,0.5c-0.5,0.2-1.1,0.5-1.6,0.6
	c-2.8,0.8-7.3,1.1-9.4-1.5c-0.2-0.2-0.6-1.2-0.8-1.3c-0.3-0.1-1.2,1.2-1.5,1.4c-1.2,1.1-2.8,1.7-4.4,1.9c-3,0.4-6.2-0.2-8.1-2.8
	c-1.5-2.2-1.8-5.7-0.7-8.1c2.1-4.7,8.2-5.1,12.6-5.9C81.9,107.8,82.5,107.7,83.2,107.6z M83.2,120.3V109c-2.3,0.2-4.7,0.3-5.5,2.8
	c-0.6,1.7-0.6,3.7-0.4,5.4c0.2,1.2,0.5,2.8,1.6,3.5C80.1,121.6,82.2,121.5,83.2,120.3z"/>
</svg>
