<?xml version="1.0" encoding="utf-8"?>
<!-- Generator: Adobe Illustrator 23.0.1, SVG Export Plug-In . SVG Version: 6.00 Build 0)  -->
<svg version="1.1" id="Layer_1" xmlns="http://www.w3.org/2000/svg" xmlns:xlink="http://www.w3.org/1999/xlink" x="0px" y="0px"
	 viewBox="0 0 466 139" style="enable-background:new 0 0 466 139;" xml:space="preserve">
<style type="text/css">
	.st0{fill:#4267B2;}
</style>
<path class="st0" d="M120.7,93.9H96.6c-0.8,0-1.1-0.3-1.1-1v-4.4c0-0.7,0.4-1,1.1-1h6.6V37.8h-6.6c-0.8,0-1.1-0.3-1.1-1v-4.4
	c0-0.7,0.4-1,1.1-1h44.7c0.8,0,1.1,0.3,1.1,1v14c0,0.8-0.4,1.1-1.1,1.1h-4.7c-0.7,0-1-0.4-1-1.1v-8.5h-24.8v21.6h20.5
	c0.8,0,1.1,0.3,1.1,1v4.4c0,0.7-0.4,1-1.1,1h-20.5v21.4h9.9c0.7,0,1,0.3,1,1v4.4C121.7,93.5,121.4,93.9,120.7,93.9z M185,93.9h-7.6
	c-2.5,0-3.8-1.2-3.8-3.7v-4.4h-0.2c-4.2,5.9-9.9,8.8-17,8.8c-4.2,0-7.6-1.1-10.3-3.2c-2.7-2.2-4-5.2-4-8.9c0-4.8,2.1-8.3,6.2-10.5
	c4.2-2.3,9.9-3.4,17.2-3.4h7.3v-1c0-7.3-3.8-10.9-11.3-10.9c-3.5,0-6.1,0.3-7.7,1c-1.6,0.6-2.7,1.2-3.4,1.6c-0.6,0.4-1.1,0.7-1.5,1
	c-0.9,0.7-1.5,0.8-1.9,0.2l-2.4-3.1c-0.4-0.5-0.3-0.9,0.2-1.4c1-1.3,3-2.5,6.1-3.8c3.1-1.2,6.7-1.8,10.9-1.8
	c12.2,0,18.3,5.8,18.3,17.4V88h4.9c0.7,0,1,0.3,1,1v3.8C186,93.5,185.7,93.9,185,93.9z M172.8,73.8H166c-3.4,0-6.2,0.2-8.4,0.5
	c-2.2,0.3-4.1,1.1-5.7,2.3c-1.5,1.2-2.3,2.8-2.3,4.8s0.8,3.7,2.4,5.1c1.7,1.3,3.9,1.9,6.5,1.9c5.6,0,10.4-2.5,14.2-7.5V73.8z
	 M230.6,83.8c0.3,0.3,0.5,0.6,0.5,0.9c0,0.2-0.1,0.6-0.4,1c-0.2,0.4-0.8,1-1.7,1.9c-0.8,0.9-2,1.9-3.5,3c-1.5,1.1-3.4,2-5.8,2.8
	c-2.3,0.8-4.8,1.1-7.5,1.1c-6.1,0-11.2-2-15.4-6c-4.1-4-6.1-9.4-6.1-16.1c0-6.8,2-12.2,6.1-16c4.1-4,9.2-5.9,15.1-5.9
	c5.9,0,10.4,2.2,13.4,6.5h0.1l-0.1-4.8c0-0.8,0.4-1.1,1.1-1.1h3.3c0.7,0,1,0.4,1,1.1v14.8c0,0.7-0.3,1-1,1h-4c-0.7,0-1-0.3-1-1v-1.5
	c-0.1-2.1-1.3-4.1-3.6-6c-2.3-1.9-5.3-2.9-8.9-2.9c-3.5,0-6.8,1.4-9.8,4.3c-3,2.8-4.4,6.7-4.4,11.7c0,4.9,1.5,8.8,4.4,11.7
	c2.9,2.8,6.2,4.3,9.8,4.3c3.6,0,6.7-0.8,9.2-2.3c2.6-1.6,4.3-3.1,5.1-4.5c0.4-0.7,0.9-0.8,1.5-0.3L230.6,83.8z M266.9,89.4
	c0.2,0.2,0.3,0.5,0.3,0.8c0,0.2-0.2,0.5-0.5,0.9c-2.6,2.3-5.8,3.4-9.7,3.4c-3.8,0-7-1.3-9.5-3.8c-2.4-2.6-3.7-6.3-3.7-11.1V56.8H239
	c-0.8,0-1.2-0.4-1.2-1.1v-3.6c0-0.8,0.4-1.1,1.2-1.1h4.9v-8.8c0-0.8,0.4-1.2,1.2-1.2h4.9c0.8,0,1.1,0.4,1.1,1.2V51h11.1
	c0.8,0,1.2,0.4,1.2,1.1v3.6c0,0.8-0.4,1.1-1.2,1.1h-11.1v22.7c0,2.9,0.6,5.1,1.9,6.6c1.3,1.5,3.1,2.2,5.2,2.2c2.2,0,3.9-0.6,5-1.7
	c0.6-0.5,1.1-0.5,1.6,0.1L266.9,89.4z M289.9,93.9h-16.7c-0.8,0-1.1-0.3-1.1-1v-3.8c0-0.7,0.4-1,1.1-1h4.8V56.8h-4.8
	c-0.8,0-1.1-0.3-1.1-1V52c0-0.7,0.4-1,1.1-1h11c0.7,0,1,0.3,1,1v36h4.6c0.8,0,1.1,0.3,1.1,1v3.8C291.1,93.5,290.7,93.9,289.9,93.9z
	 M284.9,38.1c1,1,1.5,2.2,1.5,3.5c0,1.3-0.5,2.5-1.5,3.4c-0.9,0.9-2.1,1.4-3.4,1.4c-1.3,0-2.5-0.5-3.5-1.4c-0.9-0.9-1.4-2.1-1.4-3.4
	c0-1.3,0.5-2.5,1.4-3.5c1-1,2.2-1.5,3.5-1.5C282.9,36.6,284,37.1,284.9,38.1z M318.7,93.9H299c-0.8,0-1.1-0.3-1.1-1v-3.8
	c0-0.7,0.4-1,1.1-1h4.8V56.8h-5c-0.8,0-1.1-0.3-1.1-1V52c0-0.7,0.4-1,1.1-1h5v-5.4c0-4.8,1.2-8.5,3.7-11c2.5-2.6,6-3.8,10.4-3.8
	c3.3,0,6.2,1.2,8.8,3.5c0.3,0.3,0.5,0.6,0.5,0.9c0,0.2-0.1,0.4-0.3,0.6l-2.1,2.7c-0.5,0.5-1,0.6-1.5,0.2c-1.4-1.1-3.1-1.7-5.2-1.7
	c-2.1,0-3.8,0.8-5.1,2.3c-1.3,1.5-1.9,3.6-1.9,6.5V51h11.2c0.8,0,1.1,0.3,1.1,1v3.8c0,0.7-0.4,1-1.1,1H311V88h7.7c0.7,0,1,0.3,1,1
	v3.8C319.7,93.5,319.4,93.9,318.7,93.9z M349.7,92.9c-0.9,0-1.7-0.7-2.3-2.2l-13.3-33.9h-4.8c-0.7,0-1-0.3-1-1V52c0-0.7,0.3-1,1-1
	H345c0.8,0,1.1,0.3,1.1,1v3.8c0,0.7-0.4,1-1.1,1h-3.6l11.3,29.6h0.2l10.5-29.6h-3.9c-0.7,0-1-0.3-1-1V52c0-0.7,0.3-1,1-1h16.2
	c0.7,0,1,0.3,1,1v3.8c0,0.7-0.3,1-1,1h-4.9l-15.5,42.7c-1.9,5.2-3.9,8.9-6,11.3c-2,2.4-4.9,3.6-8.5,3.6c-3.5,0-6.6-1.1-9.2-3.4
	c-0.6-0.6-0.7-1.1-0.3-1.6l2.2-2.8c0.5-0.4,1-0.4,1.6-0.1c1.4,1.1,3.1,1.7,5,1.7c1.9,0,3.5-0.7,4.7-2c1.3-1.3,2.5-3.5,3.7-6.7
	l2.4-6.5H349.7z"/>
</svg>
