<?xml version="1.0" encoding="utf-8"?>
<!-- Generator: Adobe Illustrator 23.0.1, SVG Export Plug-In . SVG Version: 6.00 Build 0)  -->
<svg version="1.1" id="Layer_1" xmlns="http://www.w3.org/2000/svg" xmlns:xlink="http://www.w3.org/1999/xlink" x="0px" y="0px"
	 viewBox="0 0 500 500" style="enable-background:new 0 0 500 500;" xml:space="preserve">
<style type="text/css">
	.st0{fill:#F7F7F7;}
	.st1{fill:#183944;}
	.st2{fill:#FFFFFF;}
</style>
<path class="st0" d="M43.7,130H458c9.6,0,17.4,6.6,17.4,14.7v289.7c0,7.9-7.9,14.7-17.4,14.7H43.7c-9.6,0-17.4-6.6-17.4-14.7V144.6
	C26.4,136.5,34.1,130,43.7,130z"/>
<path class="st1" d="M24.7,68.5c0-9.6,7.9-17.5,17.5-17.5h415.6c9.8,0,17.5,7.9,17.5,17.5V150H24.7V68.5z"/>
<path class="st2" d="M64,105.7H51.9v12.7h-5.2v-30h19.1v4.2H51.9v8.9H64V105.7z M82.1,118.4c-0.2-0.4-0.4-1.1-0.6-2.1
	c-1.6,1.7-3.5,2.5-5.9,2.5c-2.2,0-4.1-0.6-5.5-1.9S68,114,68,112.2c0-2.4,0.9-4.2,2.6-5.5c1.8-1.3,4.3-1.9,7.6-1.9h3.1v-1.5
	c0-1.2-0.3-2.1-1-2.8c-0.6-0.7-1.6-1.1-3-1.1c-1.1,0-2.1,0.3-2.8,0.9c-0.7,0.6-1.1,1.3-1.1,2.2h-5c0-1.2,0.4-2.4,1.2-3.4
	c0.8-1.1,1.9-1.9,3.3-2.5s3-0.9,4.7-0.9c2.6,0,4.7,0.7,6.3,2c1.6,1.3,2.4,3.1,2.4,5.5v10.1c0,2,0.3,3.6,0.8,4.8v0.4L82.1,118.4
	L82.1,118.4z M76.5,114.8c1,0,1.9-0.2,2.8-0.7s1.5-1.1,2-1.9V108h-2.7c-1.9,0-3.3,0.3-4.2,1c-0.9,0.6-1.4,1.6-1.4,2.7
	c0,1,0.3,1.7,0.9,2.3C74.6,114.6,75.5,114.8,76.5,114.8z M100.8,114.9c1.3,0,2.3-0.4,3.1-1.1c0.8-0.7,1.3-1.6,1.3-2.7h4.7
	c-0.1,1.4-0.5,2.7-1.3,3.9c-0.8,1.2-1.9,2.1-3.3,2.8s-2.9,1.1-4.5,1.1c-3.1,0-5.6-1-7.4-3s-2.7-4.8-2.7-8.4V107
	c0-3.4,0.9-6.1,2.7-8.2c1.8-2,4.3-3.1,7.4-3.1c2.7,0,4.8,0.8,6.5,2.3s2.6,3.6,2.6,6.1h-4.7c-0.1-1.3-0.5-2.3-1.3-3.2
	c-0.8-0.8-1.8-1.2-3.1-1.2c-1.6,0-2.9,0.6-3.8,1.8c-0.9,1.2-1.3,3-1.3,5.3v0.8c0,2.4,0.4,4.2,1.3,5.4
	C97.8,114.3,99.1,114.9,100.8,114.9z M120,90.7v5.4h3.9v3.7H120v12.5c0,0.9,0.2,1.5,0.5,1.9s0.9,0.6,1.8,0.6c0.6,0,1.2-0.1,1.8-0.2
	v3.9c-1.1,0.3-2.2,0.5-3.3,0.5c-3.9,0-5.8-2.1-5.8-6.4V99.8h-3.7v-3.7h3.7v-5.4C115,90.7,120,90.7,120,90.7z M133.1,118.4h-5V96.1h5
	V118.4z M127.8,90.3c0-0.8,0.2-1.4,0.7-1.9s1.2-0.8,2.1-0.8s1.6,0.3,2.1,0.8s0.7,1.1,0.7,1.9s-0.2,1.4-0.7,1.9s-1.2,0.7-2.1,0.7
	s-1.6-0.2-2.1-0.7C128,91.7,127.8,91.1,127.8,90.3z M140.4,118.4V99.8H137v-3.7h3.4v-2c0-2.5,0.7-4.4,2.1-5.7c1.4-1.3,3.3-2,5.8-2
	c0.9,0,1.8,0.1,2.8,0.4l-0.1,3.9c-0.6-0.1-1.2-0.2-1.9-0.2c-2.4,0-3.6,1.2-3.6,3.7v2h4.5v3.7h-4.5v18.6h-5.1V118.4z M161.4,111.3
	l4.5-15.2h5.3l-8.9,25.7c-1.4,3.8-3.7,5.6-6.9,5.6c-0.7,0-1.5-0.1-2.4-0.4v-3.9l0.9,0.1c1.3,0,2.2-0.2,2.8-0.7s1.2-1.2,1.5-2.3
	l0.7-1.9l-7.8-22.2h5.4L161.4,111.3z"/>
</svg>
