<?xml version="1.0" encoding="utf-8"?>
<!-- Generator: Adobe Illustrator 23.0.1, SVG Export Plug-In . SVG Version: 6.00 Build 0)  -->
<svg version="1.1" id="Layer_1" xmlns="http://www.w3.org/2000/svg" xmlns:xlink="http://www.w3.org/1999/xlink" x="0px" y="0px"
	 viewBox="0 0 655 110" style="enable-background:new 0 0 655 110;" xml:space="preserve">
<style type="text/css">
	.st0{fill:none;stroke:#292B2C;stroke-width:2;}
	.st1{fill:#FFFFFF;stroke:#000000;stroke-miterlimit:10;}
</style>
<path class="st0" d="M89.5,8h475c24,0,43.5,19.5,43.5,43.5l0,0c0,24-19.5,43.5-43.5,43.5h-475C65.5,95,46,75.5,46,51.5l0,0
	C46,27.5,65.5,8,89.5,8z"/>
<path class="st1" d="M116.6,47.2c0,5.7-2,10.8-5.4,14.9c-4.3,5.2-10.7,8.4-17.9,8.4C80.5,70.5,70,60.1,70,47.2s10.4-23.3,23.3-23.3
	S116.6,34.3,116.6,47.2z"/>
<line class="st1" x1="132.7" y1="82.9" x2="109.6" y2="62.8"/>
</svg>
