<?xml version="1.0" encoding="utf-8"?>
<!-- Generator: Adobe Illustrator 23.0.1, SVG Export Plug-In . SVG Version: 6.00 Build 0)  -->
<svg version="1.1" id="Layer_1" xmlns="http://www.w3.org/2000/svg" xmlns:xlink="http://www.w3.org/1999/xlink" x="0px" y="0px"
	 viewBox="0 0 500 500" style="enable-background:new 0 0 500 500;" xml:space="preserve">
<style type="text/css">
	.st0{fill:#F7F7F7;}
	.st1{fill:#183944;}
	.st2{fill:#4267B2;fill-opacity:0.1;}
	.st3{fill:#4267B2;}
	.st4{fill-opacity:0.1;}
	.st5{fill:#FFFFFF;}
</style>
<path class="st0" d="M43.7,130H458c9.6,0,17.4,6.6,17.4,14.7v289.7c0,7.9-7.9,14.7-17.4,14.7H43.7c-9.6,0-17.4-6.6-17.4-14.7V144.6
	C26.4,136.5,34.1,130,43.7,130z"/>
<path class="st1" d="M24.7,68.5c0-9.6,7.9-17.5,17.5-17.5h415.6c9.8,0,17.5,7.9,17.5,17.5V150H24.7V68.5z"/>
<path class="st2" d="M73.9,193.7h355.7c3.2,0,5.9,3.1,5.9,6.9v38.7c0,3.8-2.6,6.9-5.9,6.9H73.9c-3.2,0-5.9-3.1-5.9-6.9v-38.7
	C68,196.8,70.6,193.7,73.9,193.7z"/>
<path class="st3" d="M157.4,275.7h188.8c3.8,0,6.9,3.1,6.9,6.9v25.9c0,3.8-3.1,6.9-6.9,6.9H157.4c-3.8,0-6.9-3.1-6.9-6.9v-25.9
	C150.5,278.7,153.6,275.7,157.4,275.7z"/>
<path class="st4" d="M101.8,222.6v5.1h-2.4V214h5.3c1.5,0,2.8,0.4,3.7,1.2c0.9,0.8,1.4,1.9,1.4,3.2c0,1.4-0.4,2.4-1.3,3.2
	c-0.9,0.8-2.1,1.1-3.7,1.1L101.8,222.6L101.8,222.6z M101.8,220.7h2.9c0.9,0,1.5-0.2,2-0.6c0.4-0.4,0.7-1,0.7-1.7
	c0-0.7-0.2-1.3-0.7-1.8c-0.5-0.4-1.1-0.7-1.9-0.7h-3V220.7z M117.6,227.8c-0.1-0.2-0.2-0.5-0.3-1c-0.7,0.8-1.6,1.1-2.7,1.1
	c-1,0-1.9-0.3-2.5-0.9c-0.7-0.6-1-1.3-1-2.2c0-1.1,0.4-1.9,1.2-2.5c0.8-0.6,2-0.9,3.5-0.9h1.4v-0.7c0-0.5-0.1-1-0.4-1.3
	c-0.3-0.3-0.7-0.5-1.4-0.5c-0.5,0-1,0.1-1.3,0.4c-0.3,0.3-0.5,0.6-0.5,1h-2.3c0-0.6,0.2-1.1,0.6-1.6c0.4-0.5,0.9-0.9,1.5-1.2
	c0.6-0.3,1.4-0.4,2.2-0.4c1.2,0,2.2,0.3,2.9,0.9c0.7,0.6,1.1,1.4,1.1,2.5v4.6c0,0.9,0.1,1.7,0.4,2.2v0.2L117.6,227.8L117.6,227.8z
	 M115.1,226.1c0.5,0,0.9-0.1,1.3-0.3c0.4-0.2,0.7-0.5,0.9-0.9V223H116c-0.9,0-1.5,0.1-1.9,0.4c-0.4,0.3-0.6,0.7-0.6,1.3
	c0,0.4,0.1,0.8,0.4,1.1C114.2,226,114.6,226.1,115.1,226.1z M127.7,225c0-0.4-0.2-0.7-0.5-0.9c-0.3-0.2-0.9-0.4-1.7-0.6
	c-0.8-0.2-1.4-0.4-2-0.6c-1.2-0.6-1.7-1.4-1.7-2.4c0-0.9,0.4-1.6,1.1-2.2c0.7-0.6,1.7-0.9,2.8-0.9c1.2,0,2.2,0.3,3,0.9
	c0.8,0.6,1.1,1.4,1.1,2.4h-2.3c0-0.4-0.2-0.8-0.5-1.1c-0.3-0.3-0.8-0.4-1.3-0.4c-0.5,0-0.9,0.1-1.2,0.4c-0.3,0.2-0.5,0.5-0.5,0.9
	c0,0.4,0.1,0.6,0.4,0.8c0.3,0.2,0.9,0.4,1.8,0.6c0.9,0.2,1.6,0.4,2.1,0.7c0.5,0.3,0.9,0.6,1.1,1c0.3,0.4,0.4,0.9,0.4,1.4
	c0,0.9-0.4,1.7-1.1,2.2c-0.8,0.6-1.8,0.9-3,0.9c-0.8,0-1.6-0.2-2.2-0.5c-0.7-0.3-1.2-0.7-1.5-1.3c-0.4-0.5-0.6-1.1-0.6-1.7h2.2
	c0,0.5,0.2,1,0.6,1.3c0.4,0.3,0.9,0.4,1.5,0.4c0.6,0,1.1-0.1,1.4-0.3C127.6,225.7,127.7,225.4,127.7,225z M134.9,215v2.5h1.8v1.7
	h-1.8v5.7c0,0.4,0.1,0.7,0.2,0.9c0.2,0.2,0.4,0.3,0.8,0.3c0.3,0,0.5,0,0.8-0.1v1.8c-0.5,0.1-1,0.2-1.5,0.2c-1.8,0-2.7-1-2.7-2.9
	v-5.8h-1.7v-1.7h1.7V215L134.9,215L134.9,215z M143,228c-1.5,0-2.6-0.5-3.6-1.4c-0.9-0.9-1.4-2.2-1.4-3.7v-0.3c0-1,0.2-1.9,0.6-2.7
	c0.4-0.8,1-1.4,1.7-1.9s1.5-0.7,2.4-0.7c1.4,0,2.5,0.4,3.2,1.3c0.8,0.9,1.1,2.2,1.1,3.8v0.9h-6.7c0.1,0.8,0.4,1.5,0.8,2
	c0.5,0.5,1.1,0.7,1.9,0.7c1.1,0,1.9-0.4,2.6-1.3l1.2,1.2c-0.4,0.6-1,1.1-1.6,1.4C144.6,227.8,143.8,228,143,228z M142.7,219.2
	c-0.6,0-1.1,0.2-1.5,0.7c-0.4,0.4-0.6,1.1-0.7,1.8h4.4v-0.2c-0.1-0.8-0.3-1.4-0.6-1.7C143.9,219.4,143.4,219.2,142.7,219.2z
	 M156.4,225.9h6.3v1.9H154V214h2.4V225.9z M167,227.8h-2.4V214h2.4V227.8z M171.9,217.5l0.1,1.2c0.8-0.9,1.8-1.4,3-1.4
	c2.1,0,3.2,1.2,3.3,3.7v6.8h-2.3v-6.7c0-0.7-0.1-1.1-0.4-1.4c-0.3-0.3-0.7-0.5-1.4-0.5c-0.9,0-1.6,0.4-2.1,1.3v7.3h-2.3v-10.3H171.9
	z M183.9,223.4l-1,1.1v3.3h-2.3v-14.6h2.3v8.4l0.7-0.9l2.8-3.2h2.8l-3.8,4.3l4.2,6h-2.7L183.9,223.4z M206.7,227.8h-2.4v-6.1h-6.2
	v6.1h-2.4V214h2.4v5.7h6.2V214h2.4V227.8z M213.9,228c-1.5,0-2.6-0.5-3.6-1.4c-0.9-0.9-1.4-2.2-1.4-3.7v-0.3c0-1,0.2-1.9,0.6-2.7
	c0.4-0.8,1-1.4,1.7-1.9s1.5-0.7,2.4-0.7c1.4,0,2.5,0.4,3.2,1.3c0.8,0.9,1.1,2.2,1.1,3.8v0.9h-6.7c0.1,0.8,0.4,1.5,0.8,2
	c0.5,0.5,1.1,0.7,1.9,0.7c1.1,0,1.9-0.4,2.6-1.3l1.2,1.2c-0.4,0.6-1,1.1-1.6,1.4C215.5,227.8,214.7,228,213.9,228z M213.6,219.2
	c-0.6,0-1.1,0.2-1.5,0.7c-0.4,0.4-0.6,1.1-0.7,1.8h4.4v-0.2c-0.1-0.8-0.3-1.4-0.6-1.7C214.7,219.4,214.2,219.2,213.6,219.2z
	 M225.2,219.6c-0.3-0.1-0.6-0.1-0.9-0.1c-1.1,0-1.8,0.4-2.1,1.2v7h-2.3v-10.3h2.2l0.1,1.1c0.6-0.9,1.3-1.3,2.3-1.3
	c0.3,0,0.6,0,0.8,0.1L225.2,219.6z M231,228c-1.5,0-2.6-0.5-3.6-1.4c-0.9-0.9-1.4-2.2-1.4-3.7v-0.3c0-1,0.2-1.9,0.6-2.7
	c0.4-0.8,1-1.4,1.7-1.9c0.7-0.4,1.5-0.7,2.4-0.7c1.4,0,2.5,0.4,3.2,1.3c0.8,0.9,1.1,2.2,1.1,3.8v0.9h-6.7c0.1,0.8,0.4,1.5,0.8,2
	c0.5,0.5,1.1,0.7,1.9,0.7c1.1,0,1.9-0.4,2.6-1.3l1.2,1.2c-0.4,0.6-1,1.1-1.7,1.4C232.6,227.8,231.8,228,231,228z M230.7,219.2
	c-0.6,0-1.1,0.2-1.5,0.7c-0.4,0.4-0.6,1.1-0.7,1.8h4.4v-0.2c-0.1-0.8-0.3-1.4-0.6-1.7C231.8,219.4,231.3,219.2,230.7,219.2z
	 M241.3,222.5c0-1,0.2-1.9,0.6-2.7c0.4-0.8,1-1.4,1.7-1.9c0.7-0.4,1.6-0.7,2.5-0.7c1.4,0,2.5,0.4,3.4,1.3c0.9,0.9,1.3,2.1,1.4,3.5
	l0,0.5c0,1-0.2,1.9-0.6,2.7c-0.4,0.8-0.9,1.4-1.7,1.8c-0.7,0.4-1.6,0.7-2.5,0.7c-1.4,0-2.6-0.5-3.5-1.4c-0.9-1-1.3-2.3-1.3-3.9
	V222.5z M243.6,222.8c0,1.1,0.2,1.9,0.7,2.5c0.4,0.6,1,0.9,1.8,0.9c0.8,0,1.4-0.3,1.8-0.9c0.4-0.6,0.7-1.5,0.7-2.7
	c0-1-0.2-1.9-0.7-2.5c-0.4-0.6-1-0.9-1.8-0.9c-0.8,0-1.3,0.3-1.8,0.9C243.8,220.7,243.6,221.6,243.6,222.8z M253.6,227.8v-8.6H252
	v-1.7h1.6v-0.9c0-1.1,0.3-2,0.9-2.6c0.6-0.6,1.5-0.9,2.7-0.9c0.4,0,0.8,0.1,1.3,0.2l-0.1,1.8c-0.3-0.1-0.5-0.1-0.9-0.1
	c-1.1,0-1.6,0.6-1.6,1.7v0.9h2.1v1.7h-2.1v8.6H253.6z M267.4,215v2.5h1.8v1.7h-1.8v5.7c0,0.4,0.1,0.7,0.2,0.9
	c0.2,0.2,0.4,0.3,0.8,0.3c0.3,0,0.5,0,0.8-0.1v1.8c-0.5,0.1-1,0.2-1.5,0.2c-1.8,0-2.7-1-2.7-2.9v-5.8h-1.7v-1.7h1.7V215L267.4,215
	L267.4,215z M273.2,218.6c0.8-0.9,1.7-1.3,2.9-1.3c2.2,0,3.3,1.2,3.3,3.7v6.7h-2.3v-6.6c0-0.7-0.2-1.2-0.5-1.5
	c-0.3-0.3-0.8-0.4-1.3-0.4c-0.9,0-1.6,0.4-2.1,1.2v7.3h-2.3v-14.6h2.3L273.2,218.6L273.2,218.6z M286.3,228c-1.5,0-2.6-0.5-3.6-1.4
	c-0.9-0.9-1.4-2.2-1.4-3.7v-0.3c0-1,0.2-1.9,0.6-2.7c0.4-0.8,1-1.4,1.7-1.9s1.5-0.7,2.4-0.7c1.4,0,2.5,0.4,3.2,1.3
	c0.8,0.9,1.1,2.2,1.1,3.8v0.9h-6.7c0.1,0.8,0.4,1.5,0.8,2c0.5,0.5,1.1,0.7,1.9,0.7c1.1,0,1.9-0.4,2.6-1.3l1.2,1.2
	c-0.4,0.6-1,1.1-1.6,1.4C287.9,227.8,287.1,228,286.3,228z M286,219.2c-0.6,0-1.1,0.2-1.5,0.7c-0.4,0.4-0.6,1.1-0.7,1.8h4.4v-0.2
	c-0.1-0.8-0.3-1.4-0.6-1.7C287.1,219.4,286.6,219.2,286,219.2z M299.2,217.5l0.1,1.2c0.8-0.9,1.8-1.4,3-1.4c2.1,0,3.2,1.2,3.3,3.7
	v6.8h-2.3v-6.7c0-0.7-0.1-1.1-0.4-1.4c-0.3-0.3-0.7-0.5-1.4-0.5c-0.9,0-1.6,0.4-2.1,1.3v7.3H297v-10.3H299.2z M312.4,228
	c-1.5,0-2.6-0.5-3.6-1.4c-0.9-0.9-1.4-2.2-1.4-3.7v-0.3c0-1,0.2-1.9,0.6-2.7c0.4-0.8,1-1.4,1.7-1.9c0.7-0.4,1.5-0.7,2.4-0.7
	c1.4,0,2.5,0.4,3.2,1.3c0.8,0.9,1.1,2.2,1.1,3.8v0.9h-6.7c0.1,0.8,0.4,1.5,0.8,2c0.5,0.5,1.1,0.7,1.9,0.7c1.1,0,1.9-0.4,2.6-1.3
	l1.2,1.2c-0.4,0.6-1,1.1-1.7,1.4C314,227.8,313.2,228,312.4,228z M312.1,219.2c-0.6,0-1.1,0.2-1.5,0.7c-0.4,0.4-0.6,1.1-0.7,1.8h4.4
	v-0.2c-0.1-0.8-0.3-1.4-0.6-1.7C313.2,219.4,312.7,219.2,312.1,219.2z M327.3,224.6l1.6-7.1h2.2l-2.8,10.3h-1.9l-2.2-7l-2.2,7h-1.9
	l-2.8-10.3h2.2l1.7,7l2.1-7h1.7L327.3,224.6z M338.5,225c0-0.4-0.2-0.7-0.5-0.9c-0.3-0.2-0.9-0.4-1.7-0.6c-0.8-0.2-1.4-0.4-2-0.6
	c-1.2-0.6-1.7-1.4-1.7-2.4c0-0.9,0.4-1.6,1.1-2.2c0.7-0.6,1.7-0.9,2.8-0.9c1.2,0,2.2,0.3,3,0.9c0.8,0.6,1.1,1.4,1.1,2.4h-2.3
	c0-0.4-0.2-0.8-0.5-1.1c-0.3-0.3-0.8-0.4-1.3-0.4c-0.5,0-0.9,0.1-1.2,0.4c-0.3,0.2-0.5,0.5-0.5,0.9c0,0.4,0.1,0.6,0.4,0.8
	c0.3,0.2,0.9,0.4,1.8,0.6c0.9,0.2,1.6,0.4,2.1,0.7c0.5,0.3,0.9,0.6,1.1,1c0.3,0.4,0.4,0.9,0.4,1.4c0,0.9-0.4,1.7-1.1,2.2
	c-0.8,0.6-1.8,0.9-3,0.9c-0.8,0-1.6-0.2-2.2-0.5c-0.7-0.3-1.2-0.7-1.5-1.3c-0.4-0.5-0.6-1.1-0.6-1.7h2.2c0,0.5,0.2,1,0.6,1.3
	c0.4,0.3,0.9,0.4,1.5,0.4c0.6,0,1.1-0.1,1.4-0.3C338.3,225.7,338.5,225.4,338.5,225z M353.7,227.8c-0.1-0.2-0.2-0.5-0.3-1
	c-0.7,0.8-1.6,1.1-2.7,1.1c-1,0-1.9-0.3-2.5-0.9c-0.7-0.6-1-1.3-1-2.2c0-1.1,0.4-1.9,1.2-2.5c0.8-0.6,2-0.9,3.5-0.9h1.4v-0.7
	c0-0.5-0.1-1-0.4-1.3c-0.3-0.3-0.8-0.5-1.4-0.5c-0.5,0-1,0.1-1.3,0.4c-0.3,0.3-0.5,0.6-0.5,1h-2.3c0-0.6,0.2-1.1,0.6-1.6
	c0.4-0.5,0.9-0.9,1.5-1.2c0.6-0.3,1.4-0.4,2.2-0.4c1.2,0,2.2,0.3,2.9,0.9c0.7,0.6,1.1,1.4,1.1,2.5v4.6c0,0.9,0.1,1.7,0.4,2.2v0.2
	L353.7,227.8L353.7,227.8z M351.2,226.1c0.5,0,0.9-0.1,1.3-0.3c0.4-0.2,0.7-0.5,0.9-0.9V223h-1.2c-0.9,0-1.5,0.1-1.9,0.4
	c-0.4,0.3-0.6,0.7-0.6,1.3c0,0.4,0.1,0.8,0.4,1.1C350.3,226,350.7,226.1,351.2,226.1z M363.5,219.6c-0.3-0.1-0.6-0.1-0.9-0.1
	c-1.1,0-1.8,0.4-2.1,1.2v7h-2.3v-10.3h2.2l0.1,1.1c0.6-0.9,1.3-1.3,2.3-1.3c0.3,0,0.6,0,0.8,0.1L363.5,219.6z M368.3,215v2.5h1.8
	v1.7h-1.8v5.7c0,0.4,0.1,0.7,0.2,0.9c0.2,0.2,0.4,0.3,0.8,0.3c0.3,0,0.5,0,0.8-0.1v1.8c-0.5,0.1-1,0.2-1.5,0.2c-1.8,0-2.7-1-2.7-2.9
	v-5.8h-1.7v-1.7h1.7V215L368.3,215L368.3,215z M374.3,227.8H372v-10.3h2.3V227.8z M371.9,214.8c0-0.4,0.1-0.6,0.3-0.9
	c0.2-0.2,0.6-0.4,1-0.4c0.4,0,0.7,0.1,1,0.4c0.2,0.2,0.3,0.5,0.3,0.9c0,0.3-0.1,0.6-0.3,0.9c-0.2,0.2-0.6,0.3-1,0.3
	c-0.4,0-0.7-0.1-1-0.3C372,215.5,371.9,215.2,371.9,214.8z M381.1,226.1c0.6,0,1.1-0.2,1.4-0.5c0.4-0.3,0.6-0.7,0.6-1.2h2.2
	c0,0.6-0.2,1.2-0.6,1.8c-0.4,0.6-0.9,1-1.5,1.3c-0.6,0.3-1.3,0.5-2.1,0.5c-1.4,0-2.6-0.5-3.4-1.4c-0.8-0.9-1.3-2.2-1.3-3.9v-0.2
	c0-1.6,0.4-2.8,1.3-3.7c0.8-0.9,2-1.4,3.4-1.4c1.2,0,2.2,0.4,3,1.1c0.8,0.7,1.2,1.6,1.2,2.8h-2.2c0-0.6-0.2-1.1-0.6-1.5
	c-0.4-0.4-0.8-0.6-1.4-0.6c-0.7,0-1.3,0.3-1.7,0.8c-0.4,0.5-0.6,1.4-0.6,2.5v0.4c0,1.1,0.2,1.9,0.6,2.5
	C379.7,225.9,380.3,226.1,381.1,226.1z M389.5,227.8h-2.3v-14.6h2.3V227.8z M396.5,228c-1.5,0-2.6-0.5-3.6-1.4
	c-0.9-0.9-1.4-2.2-1.4-3.7v-0.3c0-1,0.2-1.9,0.6-2.7c0.4-0.8,1-1.4,1.7-1.9c0.7-0.4,1.5-0.7,2.4-0.7c1.4,0,2.5,0.4,3.2,1.3
	c0.8,0.9,1.1,2.2,1.1,3.8v0.9h-6.7c0.1,0.8,0.4,1.5,0.8,2c0.5,0.5,1.1,0.7,1.9,0.7c1.1,0,1.9-0.4,2.6-1.3l1.2,1.2
	c-0.4,0.6-1,1.1-1.7,1.4C398.1,227.8,397.4,228,396.5,228z M396.2,219.2c-0.6,0-1.1,0.2-1.5,0.7c-0.4,0.4-0.6,1.1-0.7,1.8h4.4v-0.2
	c-0.1-0.8-0.3-1.4-0.6-1.7C397.4,219.4,396.9,219.2,396.2,219.2z"/>
<path class="st5" d="M224.8,299.4c0-0.8-0.3-1.3-0.8-1.8c-0.5-0.4-1.5-0.8-2.9-1.2c-1.4-0.4-2.5-0.9-3.3-1.4c-1.6-1-2.4-2.3-2.4-3.9
	c0-1.4,0.6-2.5,1.7-3.4c1.1-0.9,2.6-1.4,4.4-1.4c1.2,0,2.3,0.2,3.2,0.7c0.9,0.4,1.7,1.1,2.2,1.9c0.5,0.8,0.8,1.7,0.8,2.7h-3
	c0-0.9-0.3-1.6-0.9-2.1c-0.6-0.5-1.4-0.8-2.4-0.8c-1,0-1.7,0.2-2.3,0.6c-0.5,0.4-0.8,1-0.8,1.8c0,0.6,0.3,1.2,0.9,1.6
	c0.6,0.4,1.6,0.8,2.9,1.2c1.3,0.4,2.4,0.9,3.2,1.4c0.8,0.5,1.4,1.1,1.8,1.8c0.4,0.7,0.6,1.4,0.6,2.3c0,1.4-0.6,2.6-1.7,3.4
	c-1.1,0.8-2.6,1.3-4.5,1.3c-1.2,0-2.4-0.2-3.5-0.7c-1-0.5-1.9-1.1-2.4-1.9c-0.6-0.8-0.9-1.8-0.9-2.8h3c0,1,0.3,1.7,1,2.3
	c0.6,0.5,1.6,0.8,2.8,0.8c1,0,1.8-0.2,2.3-0.6C224.6,300.6,224.8,300,224.8,299.4z M235.8,304c-1.8,0-3.3-0.6-4.4-1.7
	c-1.1-1.2-1.7-2.7-1.7-4.6v-0.4c0-1.3,0.2-2.4,0.7-3.4c0.5-1,1.2-1.8,2.1-2.4c0.9-0.6,1.9-0.8,3-0.8c1.7,0,3.1,0.6,4,1.7
	c1,1.1,1.4,2.7,1.4,4.7v1.2h-8.4c0.1,1.1,0.4,1.9,1.1,2.5c0.6,0.6,1.4,0.9,2.3,0.9c1.3,0,2.4-0.5,3.2-1.6l1.6,1.5
	c-0.5,0.8-1.2,1.4-2.1,1.8C237.9,303.8,236.9,304,235.8,304z M235.5,293c-0.8,0-1.4,0.3-1.9,0.8c-0.5,0.6-0.8,1.3-0.9,2.3h5.5V296
	c-0.1-1-0.3-1.7-0.8-2.2C236.9,293.3,236.3,293,235.5,293z M250.9,303.8c-0.1-0.2-0.2-0.6-0.3-1.2c-0.9,1-2,1.4-3.4,1.4
	c-1.3,0-2.3-0.4-3.2-1.1c-0.8-0.7-1.2-1.6-1.2-2.7c0-1.4,0.5-2.4,1.5-3.1c1-0.7,2.5-1.1,4.4-1.1h1.8v-0.8c0-0.7-0.2-1.2-0.6-1.6
	c-0.4-0.4-0.9-0.6-1.7-0.6c-0.7,0-1.2,0.2-1.6,0.5c-0.4,0.3-0.6,0.7-0.6,1.2h-2.9c0-0.7,0.2-1.4,0.7-2c0.5-0.6,1.1-1.1,1.9-1.4
	c0.8-0.3,1.7-0.5,2.7-0.5c1.5,0,2.7,0.4,3.6,1.1c0.9,0.8,1.4,1.8,1.4,3.2v5.8c0,1.2,0.2,2.1,0.5,2.8v0.2L250.9,303.8L250.9,303.8z
	 M247.7,301.7c0.6,0,1.1-0.1,1.6-0.4c0.5-0.3,0.9-0.6,1.1-1.1v-2.4h-1.6c-1.1,0-1.9,0.2-2.4,0.6c-0.5,0.4-0.8,0.9-0.8,1.6
	c0,0.6,0.2,1,0.5,1.3C246.6,301.6,247.1,301.7,247.7,301.7z M263.1,293.6c-0.4-0.1-0.8-0.1-1.2-0.1c-1.3,0-2.2,0.5-2.7,1.5v8.8h-2.9
	V291h2.8l0.1,1.4c0.7-1.1,1.7-1.7,2.9-1.7c0.4,0,0.8,0.1,1,0.2L263.1,293.6z M269.9,301.7c0.7,0,1.3-0.2,1.8-0.6
	c0.5-0.4,0.7-0.9,0.8-1.6h2.7c0,0.8-0.3,1.5-0.7,2.2c-0.5,0.7-1.1,1.2-1.9,1.6c-0.8,0.4-1.7,0.6-2.6,0.6c-1.8,0-3.2-0.6-4.3-1.7
	c-1.1-1.2-1.6-2.8-1.6-4.8v-0.3c0-2,0.5-3.5,1.6-4.7c1-1.2,2.5-1.8,4.3-1.8c1.5,0,2.8,0.4,3.7,1.3c1,0.9,1.5,2.1,1.5,3.5h-2.7
	c0-0.7-0.3-1.3-0.8-1.8c-0.5-0.5-1.1-0.7-1.8-0.7c-0.9,0-1.7,0.3-2.2,1c-0.5,0.7-0.8,1.7-0.8,3.1v0.5c0,1.4,0.2,2.4,0.7,3.1
	C268.3,301.4,269,301.7,269.9,301.7z M280.2,292.4c0.9-1.1,2.1-1.6,3.6-1.6c2.7,0,4.1,1.6,4.2,4.7v8.4h-2.9v-8.3
	c0-0.9-0.2-1.5-0.6-1.9c-0.4-0.4-0.9-0.6-1.7-0.6c-1.2,0-2,0.5-2.6,1.5v9.2h-2.9v-18.2h2.9L280.2,292.4L280.2,292.4z"/>
<path class="st5" d="M64,105.7H51.9v12.7h-5.2V88.4h19.1v4.2H51.9v8.9H64V105.7z M82.1,118.4c-0.2-0.4-0.4-1.1-0.6-2.1
	c-1.6,1.7-3.5,2.5-5.9,2.5c-2.2,0-4.1-0.6-5.5-1.9c-1.4-1.3-2.1-2.9-2.1-4.7c0-2.4,0.9-4.2,2.6-5.5c1.8-1.3,4.3-1.9,7.6-1.9h3.1
	v-1.5c0-1.2-0.3-2.1-1-2.8c-0.6-0.7-1.6-1.1-3-1.1c-1.1,0-2.1,0.3-2.8,0.9c-0.7,0.6-1.1,1.3-1.1,2.2h-5c0-1.2,0.4-2.4,1.2-3.4
	c0.8-1.1,1.9-1.9,3.3-2.5c1.4-0.6,3-0.9,4.7-0.9c2.6,0,4.7,0.7,6.3,2c1.6,1.3,2.4,3.1,2.4,5.5v10.1c0,2,0.3,3.6,0.8,4.8v0.4H82.1z
	 M76.5,114.8c1,0,1.9-0.2,2.8-0.7c0.9-0.5,1.5-1.1,2-1.9V108h-2.7c-1.9,0-3.3,0.3-4.2,1c-0.9,0.6-1.4,1.6-1.4,2.7
	c0,1,0.3,1.7,0.9,2.3C74.6,114.6,75.5,114.8,76.5,114.8z M100.8,114.9c1.3,0,2.3-0.4,3.1-1.1c0.8-0.7,1.3-1.6,1.3-2.7h4.7
	c-0.1,1.4-0.5,2.7-1.3,3.9c-0.8,1.2-1.9,2.1-3.3,2.8s-2.9,1.1-4.5,1.1c-3.1,0-5.6-1-7.4-3c-1.8-2-2.7-4.8-2.7-8.4v-0.5
	c0-3.4,0.9-6.1,2.7-8.2c1.8-2,4.3-3.1,7.4-3.1c2.7,0,4.8,0.8,6.5,2.3c1.7,1.5,2.6,3.6,2.6,6.1h-4.7c-0.1-1.3-0.5-2.3-1.3-3.2
	c-0.8-0.8-1.8-1.2-3.1-1.2c-1.6,0-2.9,0.6-3.8,1.8c-0.9,1.2-1.3,3-1.3,5.3v0.8c0,2.4,0.4,4.2,1.3,5.4
	C97.8,114.3,99.1,114.9,100.8,114.9z M120,90.7v5.4h3.9v3.7H120v12.5c0,0.9,0.2,1.5,0.5,1.9c0.3,0.4,0.9,0.6,1.8,0.6
	c0.6,0,1.2-0.1,1.8-0.2v3.9c-1.1,0.3-2.2,0.5-3.3,0.5c-3.9,0-5.8-2.1-5.8-6.4V99.8h-3.7v-3.7h3.7v-5.4H120z M133.1,118.4h-5V96.1h5
	V118.4z M127.8,90.3c0-0.8,0.2-1.4,0.7-1.9c0.5-0.5,1.2-0.8,2.1-0.8s1.6,0.3,2.1,0.8c0.5,0.5,0.7,1.1,0.7,1.9c0,0.8-0.2,1.4-0.7,1.9
	c-0.5,0.5-1.2,0.7-2.1,0.7s-1.6-0.2-2.1-0.7C128,91.7,127.8,91.1,127.8,90.3z M140.4,118.4V99.8H137v-3.7h3.4v-2
	c0-2.5,0.7-4.4,2.1-5.7c1.4-1.3,3.3-2,5.8-2c0.9,0,1.8,0.1,2.8,0.4l-0.1,3.9c-0.6-0.1-1.2-0.2-1.9-0.2c-2.4,0-3.6,1.2-3.6,3.7v2h4.5
	v3.7h-4.5v18.6H140.4z M161.4,111.3l4.5-15.2h5.3l-8.9,25.7c-1.4,3.8-3.7,5.6-6.9,5.6c-0.7,0-1.5-0.1-2.4-0.4v-3.9l0.9,0.1
	c1.3,0,2.2-0.2,2.8-0.7c0.6-0.5,1.2-1.2,1.5-2.3l0.7-1.9l-7.8-22.2h5.4L161.4,111.3z"/>
</svg>
