<?xml version="1.0" encoding="utf-8"?>
<!-- Generator: Adobe Illustrator 23.0.1, SVG Export Plug-In . SVG Version: 6.00 Build 0)  -->
<svg version="1.1" id="Layer_1" xmlns="http://www.w3.org/2000/svg" xmlns:xlink="http://www.w3.org/1999/xlink" x="0px" y="0px"
	 viewBox="0 0 3334 2349" style="enable-background:new 0 0 3334 2349;" xml:space="preserve">
<style type="text/css">
	.st0{fill:#FFFFFF;}
	.st1{fill:#4267B2;}
	.st2{fill:#1CB7EB;}
	.st3{fill:#4267B2;fill-opacity:0.1;}
	.st4{fill:none;stroke:#4267B2;stroke-width:10;}
	.st5{fill:#F2F6F7;}
	.st6{fill-opacity:0.1;}
	.st7{fill:none;}
	.st8{fill:none;stroke:#000000;stroke-width:3;stroke-linecap:round;stroke-linejoin:round;stroke-miterlimit:2.6131;}
	.st9{fill-rule:evenodd;clip-rule:evenodd;}
	.st10{fill:#134563;}
</style>
<rect class="st0" width="3334" height="2349"/>
<path class="st1" d="M184.4,130.62h-41.2V174h-17.79V71.63h65.04v14.34H143.2v30.45h41.2V130.62z M245.99,174
	c-0.75-1.45-1.41-3.82-1.97-7.1c-5.44,5.67-12.09,8.51-19.97,8.51c-7.64,0-13.88-2.18-18.7-6.54c-4.83-4.36-7.24-9.75-7.24-16.17
	c0-8.11,3-14.32,9-18.63c6.05-4.36,14.67-6.54,25.88-6.54h10.48v-4.99c0-3.94-1.1-7.08-3.3-9.42c-2.2-2.39-5.55-3.59-10.05-3.59
	c-3.89,0-7.08,0.99-9.56,2.95c-2.48,1.92-3.73,4.38-3.73,7.38h-17.08c0-4.17,1.38-8.06,4.15-11.67c2.77-3.66,6.52-6.52,11.25-8.58
	c4.78-2.06,10.1-3.09,15.96-3.09c8.91,0,16.01,2.25,21.31,6.75c5.3,4.45,8.01,10.73,8.16,18.84v34.31c0,6.84,0.96,12.31,2.88,16.38
	v1.2H245.99z M227.22,161.7c3.38,0,6.54-0.82,9.49-2.46c3-1.64,5.25-3.84,6.75-6.61v-14.34h-9.21c-6.33,0-11.09,1.1-14.27,3.3
	c-3.19,2.2-4.78,5.32-4.78,9.35c0,3.28,1.08,5.91,3.23,7.87C220.63,160.73,223.56,161.7,227.22,161.7z M309.7,161.77
	c4.27,0,7.8-1.24,10.62-3.73c2.81-2.48,4.31-5.56,4.5-9.21h16.1c-0.19,4.73-1.66,9.16-4.43,13.29c-2.77,4.08-6.52,7.31-11.25,9.7
	c-4.73,2.39-9.84,3.59-15.33,3.59c-10.64,0-19.08-3.45-25.31-10.34c-6.23-6.89-9.35-16.41-9.35-28.55v-1.76
	c0-11.58,3.09-20.84,9.28-27.77c6.19-6.98,14.63-10.48,25.31-10.48c9.05,0,16.41,2.65,22.08,7.95c5.72,5.25,8.72,12.16,9,20.74
	h-16.1c-0.19-4.36-1.69-7.94-4.5-10.76c-2.77-2.81-6.3-4.22-10.62-4.22c-5.53,0-9.8,2.01-12.8,6.05c-3,3.99-4.52,10.06-4.57,18.21
	v2.74c0,8.25,1.48,14.41,4.43,18.49C299.76,159.75,304.07,161.77,309.7,161.77z M375.23,79.43v18.49h13.43v12.66h-13.43v42.47
	c0,2.91,0.56,5.01,1.69,6.33c1.17,1.27,3.23,1.9,6.19,1.9c1.97,0,3.96-0.23,5.98-0.7v13.22c-3.89,1.08-7.64,1.62-11.25,1.62
	c-13.13,0-19.69-7.24-19.69-21.73v-43.1h-12.52V97.92h12.52V79.43H375.23z M419.95,174h-17.09V97.92h17.09V174z M401.8,78.16
	c0-2.63,0.82-4.8,2.46-6.54c1.69-1.73,4.08-2.6,7.17-2.6c3.09,0,5.48,0.87,7.17,2.6c1.69,1.73,2.53,3.91,2.53,6.54
	c0,2.58-0.84,4.73-2.53,6.47c-1.69,1.69-4.08,2.53-7.17,2.53c-3.09,0-5.48-0.84-7.17-2.53C402.63,82.9,401.8,80.74,401.8,78.16z
	 M444.63,174v-63.42h-11.6V97.92h11.6v-6.96c0-8.44,2.34-14.95,7.03-19.55c4.69-4.59,11.25-6.89,19.69-6.89c3,0,6.19,0.42,9.56,1.27
	l-0.42,13.36c-1.88-0.38-4.05-0.56-6.54-0.56c-8.16,0-12.23,4.2-12.23,12.59v6.75h15.47v12.66h-15.47V174H444.63z M516.27,149.53
	l15.47-51.61h18.21l-30.23,87.61c-4.64,12.8-12.52,19.2-23.63,19.2c-2.48,0-5.23-0.42-8.23-1.27v-13.22l3.23,0.21
	c4.31,0,7.55-0.8,9.7-2.39c2.2-1.55,3.94-4.17,5.2-7.87l2.46-6.54l-26.72-75.73h18.42L516.27,149.53z"/>
<path class="st2" d="M251,1138h140c17.12,0,31,13.88,31,31v140c0,17.12-13.88,31-31,31H251c-17.12,0-31-13.88-31-31v-140
	C220,1151.88,233.88,1138,251,1138z"/>
<path class="st3" d="M251,463h140c17.12,0,31,13.88,31,31v140c0,17.12-13.88,31-31,31H251c-17.12,0-31-13.88-31-31V494
	C220,476.88,233.88,463,251,463z"/>
<path class="st3" d="M251,801h140c17.12,0,31,13.88,31,31v140c0,17.12-13.88,31-31,31H251c-17.12,0-31-13.88-31-31V832
	C220,814.88,233.88,801,251,801z"/>
<path class="st4" d="M321,1493L321,1493c53.02,0,96,42.98,96,96l0,0c0,53.02-42.98,96-96,96l0,0c-53.02,0-96-42.98-96-96l0,0
	C225,1535.98,267.98,1493,321,1493z"/>
<rect x="717" class="st5" width="2617" height="2349"/>
<path class="st3" d="M883,328h2285c18.78,0,34,15.22,34,34v174c0,18.78-15.22,34-34,34H883c-18.78,0-34-15.22-34-34V362
	C849,343.22,864.22,328,883,328z"/>
<path class="st1" d="M1473,695h1105c18.78,0,34,15.22,34,34v162c0,18.78-15.22,34-34,34H1473c-18.78,0-34-15.22-34-34V729
	C1439,710.22,1454.22,695,1473,695z"/>
<path class="st6" d="M1047.8,456.64V482h-11.86v-68.25h26.11c7.62,0,13.67,1.98,18.14,5.95c4.5,3.97,6.75,9.22,6.75,15.75
	c0,6.69-2.21,11.89-6.61,15.61c-4.38,3.72-10.52,5.58-18.42,5.58H1047.8z M1047.8,447.13h14.25c4.22,0,7.43-0.98,9.65-2.95
	c2.22-2,3.33-4.88,3.33-8.63c0-3.69-1.12-6.63-3.37-8.81c-2.25-2.22-5.35-3.36-9.28-3.42h-14.58V447.13z M1125.98,482
	c-0.5-0.97-0.93-2.55-1.31-4.73c-3.62,3.78-8.06,5.67-13.31,5.67c-5.09,0-9.25-1.45-12.47-4.36s-4.83-6.5-4.83-10.78
	c0-5.41,2-9.55,6-12.42c4.03-2.91,9.78-4.36,17.25-4.36h6.99v-3.33c0-2.63-0.74-4.72-2.21-6.28c-1.47-1.59-3.7-2.39-6.7-2.39
	c-2.59,0-4.72,0.66-6.37,1.97c-1.66,1.28-2.49,2.92-2.49,4.92h-11.39c0-2.78,0.92-5.38,2.77-7.78c1.84-2.44,4.34-4.34,7.5-5.72
	c3.18-1.38,6.73-2.06,10.64-2.06c5.93,0,10.67,1.5,14.2,4.5c3.53,2.97,5.34,7.16,5.44,12.56v22.88c0,4.56,0.64,8.2,1.92,10.92v0.8
	H1125.98z M1113.47,473.8c2.25,0,4.36-0.55,6.33-1.64c2-1.09,3.5-2.56,4.5-4.41v-9.56h-6.14c-4.22,0-7.39,0.73-9.52,2.2
	c-2.12,1.47-3.19,3.55-3.19,6.23c0,2.19,0.72,3.94,2.16,5.25C1109.08,473.16,1111.03,473.8,1113.47,473.8z M1176.05,468.22
	c0-2.03-0.85-3.58-2.53-4.64c-1.66-1.06-4.43-2-8.3-2.81c-3.88-0.81-7.11-1.84-9.7-3.09c-5.69-2.75-8.54-6.73-8.54-11.95
	c0-4.38,1.85-8.03,5.54-10.97c3.68-2.94,8.37-4.41,14.06-4.41c6.06,0,10.95,1.5,14.67,4.5c3.75,3,5.63,6.89,5.63,11.67h-11.4
	c0-2.19-0.81-4-2.43-5.44c-1.63-1.47-3.78-2.2-6.47-2.2c-2.5,0-4.55,0.58-6.14,1.73c-1.56,1.16-2.35,2.7-2.35,4.64
	c0,1.75,0.74,3.11,2.21,4.08c1.47,0.97,4.43,1.95,8.9,2.95c4.47,0.97,7.97,2.14,10.5,3.52c2.57,1.34,4.46,2.97,5.68,4.88
	c1.24,1.91,1.87,4.22,1.87,6.94c0,4.56-1.89,8.27-5.67,11.11c-3.78,2.81-8.74,4.22-14.86,4.22c-4.16,0-7.86-0.75-11.11-2.25
	s-5.78-3.56-7.59-6.19c-1.82-2.63-2.72-5.45-2.72-8.48h11.06c0.16,2.69,1.17,4.77,3.05,6.23c1.87,1.44,4.36,2.16,7.45,2.16
	c3,0,5.28-0.56,6.84-1.69C1175.27,471.56,1176.05,470.06,1176.05,468.22z M1211.48,418.95v12.33h8.96v8.44h-8.96v28.31
	c0,1.94,0.38,3.34,1.13,4.22c0.78,0.84,2.16,1.27,4.12,1.27c1.32,0,2.65-0.16,3.99-0.47v8.81c-2.6,0.72-5.1,1.08-7.5,1.08
	c-8.75,0-13.13-4.83-13.13-14.48v-28.73h-8.34v-8.44h8.34v-12.33H1211.48z M1251.52,482.94c-7.22,0-13.08-2.27-17.58-6.8
	c-4.47-4.56-6.71-10.63-6.71-18.19v-1.41c0-5.06,0.97-9.58,2.91-13.55c1.97-4,4.72-7.11,8.25-9.33s7.47-3.33,11.81-3.33
	c6.91,0,12.24,2.2,15.99,6.61c3.78,4.41,5.67,10.64,5.67,18.7v4.59h-33.14c0.34,4.19,1.73,7.5,4.17,9.94
	c2.47,2.44,5.56,3.66,9.28,3.66c5.22,0,9.47-2.11,12.75-6.33l6.14,5.86c-2.03,3.03-4.75,5.39-8.15,7.08
	C1259.53,482.11,1255.73,482.94,1251.52,482.94z M1250.16,439.48c-3.13,0-5.66,1.09-7.6,3.28c-1.9,2.19-3.12,5.23-3.65,9.14h21.7
	v-0.84c-0.25-3.81-1.27-6.69-3.05-8.62C1255.78,440.47,1253.31,439.48,1250.16,439.48z M1316.77,482h-11.39v-72h11.39V482z
	 M1341.33,482h-11.39v-50.72h11.39V482z M1329.23,418.11c0-1.75,0.55-3.2,1.65-4.36c1.12-1.16,2.71-1.73,4.78-1.73
	c2.06,0,3.65,0.58,4.78,1.73c1.12,1.16,1.68,2.61,1.68,4.36c0,1.72-0.56,3.16-1.68,4.31c-1.13,1.13-2.72,1.69-4.78,1.69
	c-2.07,0-3.66-0.56-4.78-1.69C1329.78,421.27,1329.23,419.83,1329.23,418.11z M1364.34,431.28l0.33,5.86
	c3.75-4.53,8.67-6.8,14.77-6.8c10.56,0,15.94,6.05,16.12,18.14V482h-11.39v-32.86c0-3.22-0.7-5.59-2.11-7.13
	c-1.37-1.56-3.64-2.34-6.79-2.34c-4.6,0-8.02,2.08-10.27,6.23V482h-11.39v-50.72H1364.34z M1423.69,460.25l-5.07,5.2V482h-11.39v-72
	h11.39v41.53l3.57-4.45l14.01-15.8h13.69l-18.84,21.14l20.86,29.58h-13.18L1423.69,460.25z M1492.5,436.81
	c3.72-4.31,8.42-6.47,14.11-6.47c10.81,0,16.3,6.17,16.45,18.52V482h-11.39v-32.72c0-3.5-0.76-5.97-2.29-7.41
	c-1.5-1.47-3.72-2.2-6.66-2.2c-4.56,0-7.97,2.03-10.22,6.09V482h-11.39v-72h11.39V436.81z M1556.95,482.94
	c-7.22,0-13.07-2.27-17.57-6.8c-4.47-4.56-6.71-10.63-6.71-18.19v-1.41c0-5.06,0.97-9.58,2.91-13.55c1.97-4,4.72-7.11,8.25-9.33
	c3.53-2.22,7.47-3.33,11.81-3.33c6.91,0,12.24,2.2,15.98,6.61c3.79,4.41,5.68,10.64,5.68,18.7v4.59h-33.14
	c0.34,4.19,1.73,7.5,4.17,9.94c2.47,2.44,5.56,3.66,9.28,3.66c5.22,0,9.47-2.11,12.75-6.33l6.14,5.86
	c-2.03,3.03-4.75,5.39-8.16,7.08C1564.97,482.11,1561.17,482.94,1556.95,482.94z M1555.59,439.48c-3.12,0-5.65,1.09-7.59,3.28
	c-1.91,2.19-3.12,5.23-3.66,9.14h21.71v-0.84c-0.25-3.81-1.27-6.69-3.05-8.62C1561.22,440.47,1558.75,439.48,1555.59,439.48z
	 M1612.73,441.69c-1.5-0.25-3.04-0.38-4.64-0.38c-5.21,0-8.73,2-10.54,6V482h-11.39v-50.72h10.87l0.28,5.67
	c2.75-4.41,6.57-6.61,11.44-6.61c1.63,0,2.97,0.22,4.03,0.66L1612.73,441.69z M1641.33,482.94c-7.22,0-13.08-2.27-17.58-6.8
	c-4.47-4.56-6.7-10.63-6.7-18.19v-1.41c0-5.06,0.97-9.58,2.9-13.55c1.97-4,4.72-7.11,8.25-9.33c3.53-2.22,7.47-3.33,11.82-3.33
	c6.9,0,12.23,2.2,15.98,6.61c3.78,4.41,5.67,10.64,5.67,18.7v4.59h-33.14c0.35,4.19,1.74,7.5,4.17,9.94
	c2.47,2.44,5.57,3.66,9.28,3.66c5.22,0,9.47-2.11,12.75-6.33l6.15,5.86c-2.04,3.03-4.76,5.39-8.16,7.08
	C1649.34,482.11,1645.55,482.94,1641.33,482.94z M1639.97,439.48c-3.13,0-5.66,1.09-7.59,3.28c-1.91,2.19-3.13,5.23-3.66,9.14h21.7
	v-0.84c-0.25-3.81-1.26-6.69-3.04-8.62C1645.59,440.47,1643.12,439.48,1639.97,439.48z M1692.33,456.17c0-4.97,0.98-9.44,2.95-13.41
	c1.97-4,4.74-7.06,8.3-9.19c3.56-2.16,7.65-3.23,12.28-3.23c6.84,0,12.39,2.2,16.64,6.61c4.28,4.41,6.59,10.25,6.94,17.53l0.04,2.67
	c0,5-0.96,9.47-2.9,13.41c-1.91,3.94-4.66,6.98-8.25,9.14c-3.56,2.16-7.69,3.23-12.38,3.23c-7.15,0-12.89-2.38-17.2-7.13
	c-4.28-4.78-6.42-11.14-6.42-19.08V456.17z M1703.72,457.16c0,5.22,1.08,9.31,3.23,12.28c2.16,2.94,5.16,4.41,9,4.41
	c3.85,0,6.83-1.5,8.96-4.5c2.15-3,3.23-7.39,3.23-13.17c0-5.13-1.11-9.19-3.33-12.19c-2.19-3-5.17-4.5-8.95-4.5
	c-3.72,0-6.67,1.48-8.86,4.45C1704.81,446.88,1703.72,451.28,1703.72,457.16z M1753.12,482v-42.28h-7.73v-8.44h7.73v-4.64
	c0-5.63,1.57-9.97,4.69-13.03c3.13-3.06,7.5-4.59,13.13-4.59c2,0,4.12,0.28,6.37,0.84l-0.28,8.91c-1.25-0.25-2.7-0.38-4.36-0.38
	c-5.44,0-8.15,2.8-8.15,8.39v4.5h10.31v8.44h-10.31V482H1753.12z M1821.33,418.95v12.33h8.95v8.44h-8.95v28.31
	c0,1.94,0.37,3.34,1.12,4.22c0.78,0.84,2.16,1.27,4.13,1.27c1.31,0,2.64-0.16,3.98-0.47v8.81c-2.59,0.72-5.09,1.08-7.5,1.08
	c-8.75,0-13.12-4.83-13.12-14.48v-28.73h-8.35v-8.44h8.35v-12.33H1821.33z M1883.58,466.3l8.06-35.02h11.11L1888.92,482h-9.37
	l-10.88-34.83L1857.98,482h-9.37l-13.88-50.72h11.11l8.21,34.64l10.4-34.64h8.58L1883.58,466.3z M1932.7,482.94
	c-7.22,0-13.08-2.27-17.58-6.8c-4.46-4.56-6.7-10.63-6.7-18.19v-1.41c0-5.06,0.97-9.58,2.91-13.55c1.97-4,4.72-7.11,8.25-9.33
	c3.53-2.22,7.47-3.33,11.81-3.33c6.91,0,12.23,2.2,15.99,6.61c3.78,4.41,5.67,10.64,5.67,18.7v4.59h-33.14
	c0.34,4.19,1.73,7.5,4.17,9.94c2.47,2.44,5.56,3.66,9.28,3.66c5.22,0,9.47-2.11,12.75-6.33l6.14,5.86
	c-2.03,3.03-4.75,5.39-8.16,7.08C1940.72,482.11,1936.92,482.94,1932.7,482.94z M1931.34,439.48c-3.12,0-5.65,1.09-7.59,3.28
	c-1.91,2.19-3.13,5.23-3.66,9.14h21.71v-0.84c-0.25-3.81-1.27-6.69-3.05-8.62C1936.97,440.47,1934.5,439.48,1931.34,439.48z
	 M1984.27,482.94c-7.22,0-13.08-2.27-17.58-6.8c-4.47-4.56-6.71-10.63-6.71-18.19v-1.41c0-5.06,0.97-9.58,2.91-13.55
	c1.97-4,4.72-7.11,8.25-9.33s7.47-3.33,11.81-3.33c6.91,0,12.24,2.2,15.99,6.61c3.78,4.41,5.67,10.64,5.67,18.7v4.59h-33.14
	c0.34,4.19,1.73,7.5,4.17,9.94c2.47,2.44,5.56,3.66,9.28,3.66c5.22,0,9.47-2.11,12.75-6.33l6.14,5.86
	c-2.03,3.03-4.75,5.39-8.15,7.08C1992.28,482.11,1988.48,482.94,1984.27,482.94z M1982.91,439.48c-3.13,0-5.66,1.09-7.6,3.28
	c-1.9,2.19-3.12,5.23-3.65,9.14h21.7v-0.84c-0.25-3.81-1.27-6.69-3.05-8.62C1988.53,440.47,1986.06,439.48,1982.91,439.48z
	 M2027.77,418.95v12.33h8.95v8.44h-8.95v28.31c0,1.94,0.37,3.34,1.12,4.22c0.78,0.84,2.16,1.27,4.13,1.27
	c1.31,0,2.64-0.16,3.98-0.47v8.81c-2.59,0.72-5.09,1.08-7.5,1.08c-8.75,0-13.12-4.83-13.12-14.48v-28.73h-8.35v-8.44h8.35v-12.33
	H2027.77z M2087.11,465.69l10.31-34.41h12.14l-20.15,58.41c-3.1,8.53-8.35,12.8-15.75,12.8c-1.66,0-3.49-0.28-5.49-0.84v-8.81
	l2.16,0.14c2.87,0,5.03-0.53,6.47-1.59c1.47-1.03,2.62-2.78,3.47-5.25l1.64-4.36l-17.82-50.48h12.29L2087.11,465.69z
	 M2113.27,456.17c0-4.97,0.98-9.44,2.95-13.41c1.97-4,4.73-7.06,8.3-9.19c3.56-2.16,7.65-3.23,12.28-3.23
	c6.84,0,12.39,2.2,16.64,6.61c4.28,4.41,6.59,10.25,6.94,17.53l0.04,2.67c0,5-0.97,9.47-2.9,13.41c-1.91,3.94-4.66,6.98-8.25,9.14
	c-3.57,2.16-7.69,3.23-12.38,3.23c-7.16,0-12.89-2.38-17.2-7.13c-4.28-4.78-6.42-11.14-6.42-19.08V456.17z M2124.66,457.16
	c0,5.22,1.07,9.31,3.23,12.28c2.16,2.94,5.16,4.41,9,4.41c3.84,0,6.83-1.5,8.95-4.5c2.16-3,3.24-7.39,3.24-13.17
	c0-5.13-1.11-9.19-3.33-12.19c-2.19-3-5.17-4.5-8.95-4.5c-3.72,0-6.68,1.48-8.86,4.45C2125.75,446.88,2124.66,451.28,2124.66,457.16
	z M2200.78,477.03c-3.34,3.94-8.09,5.91-14.25,5.91c-5.5,0-9.67-1.61-12.51-4.83c-2.82-3.22-4.22-7.88-4.22-13.97v-32.86h11.39V464
	c0,6.44,2.67,9.66,8.01,9.66c5.53,0,9.27-1.98,11.21-5.95v-36.42h11.39V482h-10.74L2200.78,477.03z M2291.86,466.3l8.06-35.02h11.11
	L2297.2,482h-9.37l-10.88-34.83L2266.27,482h-9.38l-13.87-50.72h11.1l8.21,34.64l10.4-34.64h8.58L2291.86,466.3z M2348.95,482
	c-0.5-0.97-0.93-2.55-1.31-4.73c-3.62,3.78-8.06,5.67-13.31,5.67c-5.1,0-9.25-1.45-12.47-4.36c-3.22-2.91-4.83-6.5-4.83-10.78
	c0-5.41,2-9.55,6-12.42c4.03-2.91,9.78-4.36,17.25-4.36h6.99v-3.33c0-2.63-0.74-4.72-2.21-6.28c-1.47-1.59-3.7-2.39-6.7-2.39
	c-2.59,0-4.72,0.66-6.38,1.97c-1.65,1.28-2.48,2.92-2.48,4.92h-11.39c0-2.78,0.92-5.38,2.77-7.78c1.84-2.44,4.34-4.34,7.5-5.72
	c3.18-1.38,6.73-2.06,10.64-2.06c5.93,0,10.67,1.5,14.2,4.5c3.53,2.97,5.34,7.16,5.44,12.56v22.88c0,4.56,0.64,8.2,1.92,10.92v0.8
	H2348.95z M2336.44,473.8c2.25,0,4.36-0.55,6.33-1.64c2-1.09,3.5-2.56,4.5-4.41v-9.56h-6.15c-4.21,0-7.39,0.73-9.51,2.2
	c-2.13,1.47-3.19,3.55-3.19,6.23c0,2.19,0.72,3.94,2.16,5.25C2332.05,473.16,2334,473.8,2336.44,473.8z M2381.16,431.28l0.32,5.86
	c3.75-4.53,8.68-6.8,14.77-6.8c10.56,0,15.94,6.05,16.13,18.14V482h-11.4v-32.86c0-3.22-0.7-5.59-2.1-7.13
	c-1.38-1.56-3.65-2.34-6.8-2.34c-4.6,0-8.02,2.08-10.27,6.23V482h-11.39v-50.72H2381.16z M2438.3,418.95v12.33h8.95v8.44h-8.95
	v28.31c0,1.94,0.37,3.34,1.12,4.22c0.78,0.84,2.16,1.27,4.13,1.27c1.31,0,2.64-0.16,3.98-0.47v8.81c-2.59,0.72-5.09,1.08-7.5,1.08
	c-8.75,0-13.12-4.83-13.12-14.48v-28.73h-8.35v-8.44h8.35v-12.33H2438.3z M2500.73,473.84c2.85,0,5.21-0.83,7.08-2.48
	c1.88-1.66,2.88-3.7,3-6.14h10.74c-0.13,3.16-1.11,6.11-2.96,8.86c-1.84,2.72-4.34,4.88-7.5,6.47c-3.15,1.59-6.56,2.39-10.21,2.39
	c-7.1,0-12.72-2.3-16.88-6.89s-6.23-10.94-6.23-19.03v-1.17c0-7.72,2.06-13.89,6.18-18.52c4.13-4.66,9.75-6.98,16.88-6.98
	c6.03,0,10.94,1.77,14.72,5.3c3.81,3.5,5.81,8.11,6,13.83h-10.74c-0.12-2.91-1.12-5.3-3-7.17c-1.84-1.88-4.2-2.81-7.08-2.81
	c-3.68,0-6.53,1.34-8.53,4.03c-2,2.66-3.01,6.7-3.04,12.14v1.83c0,5.5,0.98,9.61,2.95,12.33
	C2494.11,472.5,2496.98,473.84,2500.73,473.84z M2541.38,436.81c3.71-4.31,8.42-6.47,14.1-6.47c10.82,0,16.3,6.17,16.46,18.52V482
	h-11.39v-32.72c0-3.5-0.77-5.97-2.3-7.41c-1.5-1.47-3.72-2.2-6.66-2.2c-4.56,0-7.97,2.03-10.21,6.09V482h-11.4v-72h11.4V436.81z
	 M2605.83,482.94c-7.22,0-13.08-2.27-17.58-6.8c-4.47-4.56-6.7-10.63-6.7-18.19v-1.41c0-5.06,0.97-9.58,2.9-13.55
	c1.97-4,4.72-7.11,8.25-9.33s7.47-3.33,11.82-3.33c6.9,0,12.23,2.2,15.98,6.61c3.78,4.41,5.67,10.64,5.67,18.7v4.59h-33.14
	c0.35,4.19,1.74,7.5,4.17,9.94c2.47,2.44,5.57,3.66,9.28,3.66c5.22,0,9.47-2.11,12.75-6.33l6.15,5.86
	c-2.04,3.03-4.76,5.39-8.16,7.08C2613.84,482.11,2610.05,482.94,2605.83,482.94z M2604.47,439.48c-3.13,0-5.66,1.09-7.59,3.28
	c-1.91,2.19-3.13,5.23-3.66,9.14h21.7v-0.84c-0.25-3.81-1.26-6.69-3.04-8.62C2610.09,440.47,2607.62,439.48,2604.47,439.48z
	 M2655.89,473.84c2.84,0,5.2-0.83,7.08-2.48c1.87-1.66,2.87-3.7,3-6.14h10.73c-0.12,3.16-1.11,6.11-2.95,8.86
	c-1.84,2.72-4.34,4.88-7.5,6.47s-6.56,2.39-10.22,2.39c-7.09,0-12.72-2.3-16.87-6.89c-4.16-4.59-6.24-10.94-6.24-19.03v-1.17
	c0-7.72,2.06-13.89,6.19-18.52c4.12-4.66,9.75-6.98,16.87-6.98c6.04,0,10.94,1.77,14.72,5.3c3.82,3.5,5.82,8.11,6,13.83h-10.73
	c-0.13-2.91-1.13-5.3-3-7.17c-1.85-1.88-4.2-2.81-7.08-2.81c-3.69,0-6.53,1.34-8.53,4.03c-2,2.66-3.02,6.7-3.05,12.14v1.83
	c0,5.5,0.99,9.61,2.96,12.33C2649.27,472.5,2652.14,473.84,2655.89,473.84z M2701.78,460.25l-5.06,5.2V482h-11.39v-72h11.39v41.53
	l3.56-4.45l14.02-15.8h13.68l-18.84,21.14L2730,482h-13.17L2701.78,460.25z"/>
<path class="st0" d="M1865.91,833.63c0-4.5-1.59-7.97-4.78-10.41c-3.14-2.44-8.83-4.9-17.08-7.38c-8.25-2.48-14.82-5.25-19.69-8.3
	c-9.33-5.86-13.99-13.5-13.99-22.92c0-8.25,3.35-15.05,10.05-20.39c6.75-5.34,15.49-8.02,26.23-8.02c7.12,0,13.47,1.31,19.05,3.94
	c5.58,2.63,9.96,6.38,13.15,11.25c3.19,4.83,4.78,10.2,4.78,16.1h-17.72c0-5.34-1.68-9.52-5.06-12.52
	c-3.33-3.05-8.11-4.57-14.34-4.57c-5.81,0-10.34,1.24-13.57,3.73c-3.19,2.48-4.78,5.95-4.78,10.41c0,3.75,1.73,6.89,5.2,9.42
	c3.47,2.48,9.19,4.92,17.16,7.31c7.96,2.34,14.36,5.04,19.19,8.09c4.83,3,8.37,6.47,10.62,10.41c2.25,3.89,3.37,8.46,3.37,13.71
	c0,8.53-3.28,15.33-9.84,20.39c-6.52,5.02-15.38,7.52-26.58,7.52c-7.4,0-14.23-1.36-20.46-4.08c-6.19-2.77-11.02-6.56-14.48-11.39
	c-3.43-4.83-5.14-10.45-5.14-16.88h17.79c0,5.81,1.92,10.31,5.77,13.5c3.84,3.19,9.35,4.78,16.52,4.78c6.19,0,10.83-1.24,13.92-3.73
	C1864.34,841.09,1865.91,837.76,1865.91,833.63z M1931.16,861.41c-10.82,0-19.61-3.4-26.36-10.2c-6.71-6.84-10.06-15.94-10.06-27.28
	v-2.11c0-7.59,1.46-14.37,4.36-20.32c2.95-6,7.08-10.66,12.38-13.99c5.29-3.33,11.2-4.99,17.72-4.99c10.35,0,18.35,3.3,23.97,9.91
	c5.67,6.61,8.51,15.96,8.51,28.05v6.89h-49.71c0.51,6.28,2.6,11.25,6.26,14.91c3.7,3.66,8.34,5.48,13.92,5.48
	c7.83,0,14.2-3.16,19.12-9.49l9.21,8.79c-3.04,4.55-7.12,8.09-12.23,10.62C1943.19,860.16,1937.49,861.41,1931.16,861.41z
	 M1929.12,796.23c-4.68,0-8.48,1.64-11.39,4.92c-2.85,3.28-4.68,7.85-5.48,13.71h32.55v-1.27c-0.37-5.72-1.89-10.03-4.57-12.94
	C1937.56,797.7,1933.86,796.23,1929.12,796.23z M2020.46,860c-0.75-1.45-1.41-3.82-1.97-7.1c-5.44,5.67-12.09,8.51-19.97,8.51
	c-7.64,0-13.87-2.18-18.7-6.54c-4.83-4.36-7.24-9.75-7.24-16.17c0-8.11,3-14.32,9-18.63c6.04-4.36,14.67-6.54,25.87-6.54h10.48
	v-4.99c0-3.94-1.1-7.08-3.31-9.42c-2.2-2.39-5.55-3.59-10.05-3.59c-3.89,0-7.08,0.98-9.56,2.95c-2.49,1.92-3.73,4.38-3.73,7.38
	h-17.08c0-4.17,1.38-8.06,4.14-11.67c2.77-3.66,6.52-6.52,11.25-8.58c4.79-2.06,10.11-3.09,15.96-3.09c8.91,0,16.01,2.25,21.31,6.75
	c5.3,4.45,8.02,10.73,8.16,18.84v34.31c0,6.84,0.96,12.3,2.88,16.38v1.2H2020.46z M2001.69,847.7c3.37,0,6.54-0.82,9.49-2.46
	c3-1.64,5.25-3.84,6.75-6.61v-14.34h-9.21c-6.33,0-11.09,1.1-14.27,3.3c-3.19,2.2-4.79,5.32-4.79,9.35c0,3.28,1.08,5.91,3.24,7.87
	C1995.1,846.73,1998.03,847.7,2001.69,847.7z M2092.74,799.53c-2.25-0.38-4.57-0.56-6.96-0.56c-7.83,0-13.1,3-15.82,9V860h-17.08
	v-76.08h16.31l0.42,8.51c4.12-6.61,9.84-9.91,17.16-9.91c2.43,0,4.45,0.33,6.04,0.98L2092.74,799.53z M2133.38,847.77
	c4.27,0,7.81-1.24,10.62-3.73s4.31-5.55,4.5-9.21h16.1c-0.19,4.73-1.66,9.16-4.43,13.29c-2.76,4.08-6.51,7.31-11.25,9.7
	c-4.73,2.39-9.84,3.59-15.33,3.59c-10.64,0-19.07-3.45-25.31-10.34c-6.23-6.89-9.35-16.41-9.35-28.55v-1.76
	c0-11.58,3.09-20.84,9.28-27.77c6.19-6.98,14.63-10.48,25.31-10.48c9.05,0,16.41,2.65,22.08,7.95c5.72,5.25,8.72,12.16,9,20.74
	h-16.1c-0.19-4.36-1.69-7.95-4.5-10.76c-2.77-2.81-6.3-4.22-10.62-4.22c-5.53,0-9.79,2.02-12.79,6.05c-3,3.98-4.53,10.05-4.57,18.21
	v2.74c0,8.25,1.47,14.41,4.43,18.49C2123.45,845.75,2127.76,847.77,2133.38,847.77z M2194.34,792.22c5.58-6.47,12.64-9.7,21.17-9.7
	c16.22,0,24.44,9.26,24.68,27.77V860h-17.09v-49.08c0-5.25-1.15-8.95-3.44-11.11c-2.25-2.2-5.58-3.3-9.99-3.3
	c-6.84,0-11.95,3.05-15.33,9.14V860h-17.08V752h17.08V792.22z"/>
<rect x="1112" y="1174" class="st7" width="407" height="411"/>
<path class="st8" d="M274.59,616.47v-73.26h-18.51v70.28c0,1.64,1.35,2.99,2.99,2.99L274.59,616.47z"/>
<path class="st8" d="M274.48,543.21v73.26c35.28-0.01,72.25-0.04,107.5-0.04c0.32,0,0.61-0.13,0.83-0.34l0.01-0.01
	c0.21-0.21,0.34-0.51,0.34-0.83c0-24.07-0.11-47.96-0.11-72.04H274.48L274.48,543.21z"/>
<path class="st8" d="M257.72,522.55h123.55c4.39,0,7.97,3.59,7.97,7.98v41.08v8.37v35.67c0,1.87-0.76,3.56-1.99,4.79l-0.01,0.01
	c-1.23,1.23-2.93,1.99-4.8,1.99h-20h-5.81h-98.92c-4.38,0-7.97-3.59-7.97-7.97v-83.96C249.75,526.14,253.34,522.55,257.72,522.55z"
	/>
<path class="st8" d="M287.05,555.13h28.89c0.7,0,1.27,0.57,1.27,1.26v19.79c0,0.7-0.57,1.27-1.27,1.27h-28.89
	c-0.69,0-1.27-0.57-1.27-1.27v-19.79C285.78,555.7,286.35,555.13,287.05,555.13z"/>
<path class="st9" d="M265.34,558.43c1.89,0,3.43-1.54,3.43-3.43c0-1.89-1.54-3.43-3.43-3.43c-1.89,0-3.43,1.54-3.43,3.43
	C261.91,556.89,263.45,558.43,265.34,558.43z"/>
<path class="st9" d="M265.34,570.85c1.89,0,3.43-1.54,3.43-3.43c0-1.89-1.54-3.43-3.43-3.43c-1.89,0-3.43,1.54-3.43,3.43
	C261.91,569.31,263.45,570.85,265.34,570.85z"/>
<path class="st9" d="M265.34,583.27c1.89,0,3.43-1.54,3.43-3.43c0-1.89-1.54-3.43-3.43-3.43c-1.89,0-3.43,1.54-3.43,3.43
	C261.91,581.73,263.45,583.27,265.34,583.27z"/>
<path class="st9" d="M265.34,595.69c1.89,0,3.43-1.54,3.43-3.43c0-1.89-1.54-3.43-3.43-3.43c-1.89,0-3.43,1.54-3.43,3.43
	C261.91,594.15,263.45,595.69,265.34,595.69z"/>
<path class="st9" d="M265.34,608.11c1.89,0,3.43-1.54,3.43-3.43c0-1.89-1.54-3.43-3.43-3.43c-1.89,0-3.43,1.54-3.43,3.43
	C261.91,606.57,263.45,608.11,265.34,608.11z"/>
<path class="st8" d="M295.35,607.71c5.27,0,9.57-4.3,9.57-9.56c0-5.27-4.3-9.57-9.57-9.57c-5.27,0-9.57,4.3-9.57,9.57
	C285.78,603.41,290.08,607.71,295.35,607.71z"/>
<path class="st8" d="M330.27,607.71c5.27,0,9.57-4.3,9.57-9.56c0-5.27-4.29-9.57-9.57-9.57c-5.27,0-9.56,4.3-9.56,9.57
	C320.71,603.41,325.01,607.71,330.27,607.71z"/>
<path class="st8" d="M365.2,607.71c5.27,0,9.57-4.3,9.57-9.56c0-5.27-4.3-9.57-9.57-9.57c-5.27,0-9.56,4.3-9.56,9.57
	C355.64,603.41,359.94,607.71,365.2,607.71z"/>
<path class="st9" d="M351.68,529.35c1.87,0,3.39,1.51,3.39,3.38c0,1.87-1.52,3.38-3.39,3.38c-1.87,0-3.38-1.52-3.38-3.38
	C348.29,530.86,349.81,529.35,351.68,529.35z"/>
<path class="st9" d="M364.67,529.35c1.87,0,3.38,1.51,3.38,3.38c0,1.87-1.51,3.38-3.38,3.38c-1.87,0-3.39-1.52-3.39-3.38
	C361.28,530.86,362.8,529.35,364.67,529.35z"/>
<path d="M377.66,536.11c1.87,0,3.38-1.52,3.38-3.38c0-1.87-1.51-3.38-3.38-3.38c-1.87,0-3.38,1.52-3.38,3.38
	C374.27,534.6,375.79,536.11,377.66,536.11z"/>
<path class="st8" d="M324.95,555.13h49.82"/>
<path class="st8" d="M324.95,566.28h49.82"/>
<path class="st8" d="M324.95,577.44h49.82"/>
<path d="M150.57,754v-51.19h15.75c4.5,0,8.52,1.02,12.06,3.06c3.56,2.02,6.34,4.9,8.33,8.65c1.99,3.73,2.99,7.97,2.99,12.73v2.36
	c0,4.76-0.98,8.99-2.95,12.69c-1.95,3.7-4.7,6.57-8.26,8.61c-3.56,2.04-7.58,3.07-12.06,3.09H150.57z M161.12,711.35v34.17h5.1
	c4.13,0,7.28-1.35,9.46-4.04c2.18-2.7,3.29-6.55,3.34-11.57v-2.71c0-5.2-1.08-9.14-3.24-11.81c-2.16-2.7-5.31-4.04-9.46-4.04H161.12
	z M218.77,754c-0.47-0.91-0.81-2.05-1.02-3.41c-2.46,2.74-5.66,4.11-9.6,4.11c-3.73,0-6.82-1.08-9.28-3.23
	c-2.44-2.16-3.66-4.88-3.66-8.16c0-4.03,1.49-7.12,4.47-9.28c3-2.16,7.32-3.25,12.97-3.27h4.68v-2.18c0-1.76-0.46-3.16-1.37-4.22
	c-0.89-1.05-2.31-1.58-4.25-1.58c-1.71,0-3.06,0.41-4.04,1.23c-0.96,0.82-1.44,1.94-1.44,3.38h-10.16c0-2.2,0.68-4.24,2.04-6.12
	c1.36-1.88,3.28-3.34,5.76-4.4c2.49-1.08,5.27-1.62,8.37-1.62c4.69,0,8.4,1.18,11.15,3.55c2.77,2.34,4.15,5.65,4.15,9.91v16.49
	c0.02,3.61,0.53,6.34,1.51,8.19v0.6H218.77z M210.37,746.93c1.5,0,2.88-0.33,4.15-0.99c1.26-0.68,2.2-1.58,2.81-2.71v-6.54h-3.8
	c-5.09,0-7.79,1.76-8.12,5.27l-0.04,0.6c0,1.27,0.45,2.31,1.34,3.13C207.6,746.52,208.82,746.93,210.37,746.93z M255.93,743.49
	c0-1.24-0.62-2.21-1.86-2.92c-1.22-0.73-3.19-1.37-5.91-1.93c-9.05-1.9-13.57-5.74-13.57-11.53c0-3.38,1.39-6.19,4.18-8.44
	c2.81-2.27,6.48-3.41,11-3.41c4.83,0,8.68,1.14,11.57,3.41c2.91,2.27,4.36,5.23,4.36,8.86h-10.16c0-1.45-0.47-2.65-1.41-3.59
	c-0.94-0.96-2.4-1.44-4.4-1.44c-1.71,0-3.04,0.39-3.97,1.16c-0.94,0.77-1.41,1.76-1.41,2.95c0,1.13,0.53,2.04,1.58,2.74
	c1.08,0.68,2.88,1.28,5.41,1.79c2.53,0.49,4.66,1.05,6.4,1.69c5.37,1.97,8.05,5.38,8.05,10.23c0,3.47-1.49,6.28-4.46,8.44
	c-2.98,2.13-6.82,3.2-11.53,3.2c-3.19,0-6.02-0.56-8.51-1.69c-2.46-1.15-4.4-2.71-5.8-4.68c-1.41-1.99-2.11-4.14-2.11-6.43h9.63
	c0.09,1.8,0.76,3.19,2,4.15c1.24,0.96,2.91,1.44,4.99,1.44c1.95,0,3.41-0.36,4.4-1.09C255.43,745.66,255.93,744.68,255.93,743.49z
	 M282.3,720.11c2.7-3.23,6.08-4.85,10.16-4.85c8.25,0,12.43,4.79,12.55,14.38V754h-10.16v-24.08c0-2.18-0.47-3.79-1.41-4.82
	c-0.94-1.05-2.5-1.58-4.68-1.58c-2.98,0-5.13,1.15-6.47,3.45V754h-10.16v-54h10.16V720.11z M346.95,735.33
	c0,6.09-1.3,10.85-3.9,14.27c-2.6,3.4-6.23,5.1-10.9,5.1c-4.13,0-7.42-1.58-9.88-4.75l-0.46,4.04h-9.14v-54h10.16v19.37
	c2.34-2.74,5.43-4.11,9.25-4.11c4.64,0,8.27,1.71,10.9,5.13c2.65,3.4,3.97,8.19,3.97,14.38V735.33z M336.79,734.59
	c0-3.84-0.61-6.65-1.83-8.4c-1.22-1.78-3.04-2.67-5.45-2.67c-3.23,0-5.46,1.32-6.68,3.97v15.01c1.24,2.67,3.49,4.01,6.75,4.01
	c3.28,0,5.44-1.62,6.47-4.85C336.55,740.11,336.79,737.76,336.79,734.59z M351.66,734.63c0-3.77,0.73-7.14,2.18-10.09
	s3.54-5.24,6.26-6.85c2.74-1.62,5.92-2.43,9.53-2.43c5.13,0,9.32,1.57,12.55,4.71c3.26,3.14,5.07,7.41,5.45,12.8l0.07,2.6
	c0,5.84-1.63,10.52-4.89,14.06c-3.26,3.52-7.63,5.27-13.11,5.27c-5.48,0-9.87-1.76-13.15-5.27c-3.26-3.52-4.89-8.3-4.89-14.34
	V734.63z M361.82,735.37c0,3.61,0.68,6.38,2.04,8.3c1.36,1.9,3.3,2.85,5.84,2.85c2.46,0,4.38-0.94,5.77-2.81
	c1.38-1.9,2.07-4.92,2.07-9.07c0-3.54-0.69-6.28-2.07-8.23c-1.38-1.95-3.33-2.92-5.84-2.92c-2.48,0-4.41,0.97-5.77,2.92
	C362.5,728.32,361.82,731.31,361.82,735.37z M416,754c-0.47-0.91-0.81-2.05-1.02-3.41c-2.46,2.74-5.66,4.11-9.6,4.11
	c-3.73,0-6.82-1.08-9.28-3.23c-2.44-2.16-3.66-4.88-3.66-8.16c0-4.03,1.49-7.12,4.46-9.28c3-2.16,7.32-3.25,12.97-3.27h4.68v-2.18
	c0-1.76-0.46-3.16-1.37-4.22c-0.89-1.05-2.31-1.58-4.25-1.58c-1.71,0-3.06,0.41-4.04,1.23c-0.96,0.82-1.44,1.94-1.44,3.38h-10.16
	c0-2.2,0.68-4.24,2.04-6.12c1.36-1.88,3.28-3.34,5.77-4.4c2.48-1.08,5.27-1.62,8.37-1.62c4.69,0,8.4,1.18,11.14,3.55
	c2.77,2.34,4.15,5.65,4.15,9.91v16.49c0.02,3.61,0.53,6.34,1.51,8.19v0.6H416z M407.6,746.93c1.5,0,2.88-0.33,4.15-0.99
	c1.27-0.68,2.2-1.58,2.81-2.71v-6.54h-3.8c-5.09,0-7.79,1.76-8.12,5.27l-0.04,0.6c0,1.27,0.45,2.31,1.34,3.13
	C404.83,746.52,406.05,746.93,407.6,746.93z M453.93,725.49c-1.38-0.19-2.6-0.28-3.66-0.28c-3.84,0-6.36,1.3-7.56,3.9V754h-10.16
	v-38.04h9.6l0.28,4.53c2.04-3.49,4.86-5.24,8.47-5.24c1.13,0,2.18,0.15,3.16,0.46L453.93,725.49z M456.57,734.7
	c0-5.93,1.32-10.65,3.97-14.17c2.67-3.52,6.32-5.27,10.93-5.27c3.7,0,6.76,1.38,9.18,4.15V700h10.2v54h-9.18l-0.49-4.04
	c-2.53,3.16-5.79,4.75-9.77,4.75c-4.48,0-8.07-1.76-10.79-5.27C457.92,745.89,456.57,740.98,456.57,734.7z M466.73,735.44
	c0,3.56,0.62,6.29,1.86,8.19c1.24,1.9,3.05,2.85,5.41,2.85c3.14,0,5.36-1.33,6.64-3.97v-15.01c-1.27-2.65-3.46-3.97-6.57-3.97
	C469.18,723.52,466.73,727.49,466.73,735.44z"/>
<path d="M239.11,1074.57c0-1.99-0.7-3.52-2.11-4.57c-1.41-1.08-3.94-2.2-7.59-3.38c-3.66-1.19-6.55-2.36-8.68-3.51
	c-5.81-3.14-8.72-7.37-8.72-12.69c0-2.77,0.77-5.23,2.32-7.38c1.57-2.18,3.81-3.88,6.71-5.1c2.93-1.22,6.21-1.83,9.84-1.83
	c3.66,0,6.91,0.67,9.77,2c2.86,1.32,5.07,3.18,6.64,5.59c1.59,2.42,2.39,5.16,2.39,8.23h-10.55c0-2.34-0.74-4.16-2.21-5.45
	c-1.48-1.31-3.55-1.97-6.22-1.97c-2.58,0-4.58,0.55-6.01,1.65c-1.43,1.08-2.14,2.51-2.14,4.29c0,1.67,0.83,3.06,2.5,4.19
	c1.69,1.12,4.16,2.18,7.42,3.16c6,1.81,10.37,4.04,13.11,6.72c2.74,2.67,4.11,6,4.11,9.98c0,4.43-1.68,7.91-5.03,10.44
	c-3.35,2.51-7.86,3.76-13.54,3.76c-3.94,0-7.52-0.71-10.76-2.14c-3.23-1.45-5.71-3.44-7.42-5.94c-1.69-2.51-2.53-5.42-2.53-8.72
	h10.58c0,5.65,3.38,8.47,10.13,8.47c2.51,0,4.47-0.5,5.87-1.51C238.41,1077.83,239.11,1076.4,239.11,1074.57z M273.71,1088.7
	c-5.58,0-10.13-1.71-13.64-5.13c-3.49-3.42-5.24-7.98-5.24-13.68v-0.98c0-3.82,0.74-7.23,2.21-10.23c1.48-3.02,3.56-5.34,6.26-6.96
	c2.72-1.64,5.81-2.46,9.28-2.46c5.2,0,9.29,1.64,12.27,4.92c3,3.28,4.5,7.93,4.5,13.96v4.15h-24.22c0.33,2.48,1.31,4.47,2.95,5.97
	c1.66,1.5,3.76,2.25,6.29,2.25c3.91,0,6.97-1.42,9.18-4.25l4.99,5.59c-1.52,2.15-3.59,3.84-6.19,5.06
	C279.75,1088.11,276.87,1088.7,273.71,1088.7z M272.55,1057.48c-2.02,0-3.66,0.68-4.92,2.04c-1.24,1.36-2.04,3.31-2.39,5.84h14.13
	v-0.81c-0.05-2.25-0.66-3.98-1.83-5.2C276.37,1058.11,274.7,1057.48,272.55,1057.48z M317.2,1088c-0.47-0.91-0.81-2.05-1.02-3.41
	c-2.46,2.74-5.66,4.11-9.6,4.11c-3.73,0-6.82-1.08-9.28-3.23c-2.44-2.16-3.66-4.88-3.66-8.16c0-4.03,1.49-7.12,4.46-9.28
	c3-2.15,7.32-3.24,12.97-3.27h4.68v-2.18c0-1.76-0.46-3.16-1.37-4.22c-0.89-1.05-2.31-1.58-4.25-1.58c-1.71,0-3.06,0.41-4.04,1.23
	c-0.96,0.82-1.44,1.95-1.44,3.38h-10.16c0-2.21,0.68-4.25,2.04-6.12c1.36-1.88,3.28-3.34,5.77-4.39c2.48-1.08,5.27-1.62,8.37-1.62
	c4.69,0,8.4,1.18,11.14,3.55c2.77,2.34,4.15,5.65,4.15,9.91v16.49c0.02,3.61,0.53,6.34,1.51,8.19v0.6H317.2z M308.79,1080.93
	c1.5,0,2.88-0.32,4.15-0.98c1.27-0.68,2.2-1.58,2.81-2.71v-6.54h-3.8c-5.09,0-7.79,1.76-8.12,5.28l-0.04,0.59
	c0,1.27,0.45,2.31,1.34,3.13C306.03,1080.52,307.25,1080.93,308.79,1080.93z M355.13,1059.49c-1.38-0.19-2.6-0.28-3.66-0.28
	c-3.84,0-6.36,1.3-7.56,3.9V1088h-10.16v-38.04h9.6l0.28,4.54c2.04-3.5,4.86-5.24,8.47-5.24c1.13,0,2.18,0.15,3.16,0.45
	L355.13,1059.49z M375.17,1080.51c1.88,0,3.4-0.51,4.57-1.55c1.17-1.03,1.78-2.4,1.83-4.11h9.53c-0.02,2.58-0.73,4.95-2.11,7.1
	c-1.38,2.14-3.28,3.8-5.7,5c-2.39,1.17-5.04,1.75-7.95,1.75c-5.44,0-9.73-1.72-12.87-5.16c-3.14-3.47-4.71-8.25-4.71-14.35v-0.67
	c0-5.86,1.56-10.53,4.68-14.02c3.12-3.5,7.39-5.24,12.83-5.24c4.76,0,8.57,1.36,11.43,4.08c2.88,2.69,4.35,6.29,4.39,10.79h-9.53
	c-0.05-1.97-0.66-3.56-1.83-4.78c-1.17-1.24-2.72-1.87-4.64-1.87c-2.37,0-4.16,0.87-5.38,2.61c-1.2,1.71-1.79,4.5-1.79,8.36v1.06
	c0,3.91,0.6,6.72,1.79,8.44C370.91,1079.66,372.73,1080.51,375.17,1080.51z M406.81,1054.11c2.7-3.23,6.08-4.85,10.16-4.85
	c8.25,0,12.43,4.79,12.55,14.38V1088h-10.16v-24.08c0-2.18-0.47-3.79-1.41-4.82c-0.94-1.05-2.5-1.58-4.68-1.58
	c-2.98,0-5.13,1.15-6.47,3.44V1088h-10.16v-54h10.16V1054.11z"/>
<path d="M241.1,1399.36h-15.68V1442h-10.55v-42.64h-15.47v-8.55h41.7V1399.36z M277.88,1428.18l4.99-24.22h9.81l-9.7,38.04h-8.51
	l-7.21-23.94l-7.21,23.94h-8.47l-9.7-38.04h9.81l4.96,24.19l6.96-24.19h7.35L277.88,1428.18z M315.25,1442.7
	c-5.58,0-10.13-1.71-13.64-5.13c-3.49-3.42-5.24-7.98-5.24-13.68v-0.98c0-3.82,0.74-7.23,2.21-10.23c1.48-3.02,3.56-5.34,6.26-6.96
	c2.72-1.64,5.81-2.46,9.28-2.46c5.2,0,9.29,1.64,12.27,4.92c3,3.28,4.5,7.93,4.5,13.96v4.15h-24.22c0.33,2.48,1.31,4.47,2.95,5.97
	c1.66,1.5,3.76,2.25,6.29,2.25c3.91,0,6.97-1.42,9.18-4.25l4.99,5.59c-1.52,2.15-3.59,3.84-6.19,5.06
	C321.29,1442.11,318.41,1442.7,315.25,1442.7z M314.09,1411.48c-2.02,0-3.66,0.68-4.92,2.04c-1.24,1.36-2.04,3.31-2.39,5.84h14.13
	v-0.81c-0.05-2.25-0.66-3.98-1.83-5.2C317.91,1412.11,316.24,1411.48,314.09,1411.48z M354.2,1442.7c-5.58,0-10.13-1.71-13.64-5.13
	c-3.49-3.42-5.24-7.98-5.24-13.68v-0.98c0-3.82,0.74-7.23,2.21-10.23c1.48-3.02,3.56-5.34,6.26-6.96c2.72-1.64,5.81-2.46,9.28-2.46
	c5.2,0,9.29,1.64,12.27,4.92c3,3.28,4.5,7.93,4.5,13.96v4.15h-24.22c0.33,2.48,1.31,4.47,2.95,5.97c1.66,1.5,3.76,2.25,6.29,2.25
	c3.91,0,6.97-1.42,9.18-4.25l4.99,5.59c-1.52,2.15-3.59,3.84-6.19,5.06C360.25,1442.11,357.36,1442.7,354.2,1442.7z M353.04,1411.48
	c-2.02,0-3.66,0.68-4.92,2.04c-1.24,1.36-2.04,3.31-2.39,5.84h14.13v-0.81c-0.05-2.25-0.66-3.98-1.83-5.2
	C356.86,1412.11,355.2,1411.48,353.04,1411.48z M387.81,1394.61v9.35h6.5v7.45h-6.5v18.99c0,1.4,0.27,2.41,0.81,3.02
	s1.57,0.92,3.09,0.92c1.13,0,2.12-0.09,2.99-0.25v7.7c-1.99,0.61-4.04,0.91-6.15,0.91c-7.13,0-10.76-3.59-10.9-10.79v-20.5h-5.55
	v-7.45h5.55v-9.35H387.81z M420.57,1431.49c0-1.24-0.62-2.22-1.86-2.92c-1.22-0.73-3.19-1.37-5.91-1.93
	c-9.05-1.9-13.57-5.75-13.57-11.53c0-3.38,1.39-6.19,4.18-8.44c2.81-2.28,6.48-3.41,11-3.41c4.83,0,8.68,1.13,11.57,3.41
	c2.91,2.27,4.36,5.22,4.36,8.86h-10.16c0-1.46-0.47-2.65-1.41-3.59c-0.94-0.96-2.4-1.44-4.39-1.44c-1.71,0-3.04,0.39-3.97,1.16
	c-0.94,0.77-1.41,1.76-1.41,2.95c0,1.13,0.53,2.04,1.58,2.75c1.08,0.68,2.88,1.27,5.41,1.79c2.53,0.49,4.66,1.05,6.4,1.69
	c5.37,1.96,8.05,5.37,8.05,10.23c0,3.47-1.49,6.28-4.46,8.43c-2.98,2.14-6.82,3.2-11.53,3.2c-3.19,0-6.02-0.56-8.51-1.68
	c-2.46-1.15-4.39-2.71-5.8-4.68c-1.41-1.99-2.11-4.14-2.11-6.43h9.63c0.09,1.8,0.76,3.18,2,4.14c1.24,0.97,2.91,1.45,4.99,1.45
	c1.95,0,3.41-0.37,4.39-1.09C420.07,1433.66,420.57,1432.68,420.57,1431.49z"/>
<path d="M298.23,1765h-10.55v-21.94h-20.57V1765h-10.55v-51.19h10.55v20.74h20.57v-20.74h10.55V1765z M324.32,1765.7
	c-5.58,0-10.13-1.71-13.64-5.13c-3.49-3.42-5.24-7.98-5.24-13.68v-0.98c0-3.82,0.74-7.23,2.21-10.23c1.48-3.02,3.56-5.34,6.26-6.96
	c2.72-1.64,5.81-2.46,9.28-2.46c5.2,0,9.29,1.64,12.27,4.92c3,3.28,4.5,7.93,4.5,13.96v4.15h-24.22c0.33,2.48,1.31,4.47,2.95,5.97
	c1.66,1.5,3.76,2.25,6.29,2.25c3.91,0,6.97-1.42,9.18-4.25l4.99,5.59c-1.52,2.15-3.59,3.84-6.19,5.06
	C330.36,1765.11,327.48,1765.7,324.32,1765.7z M323.16,1734.48c-2.02,0-3.66,0.68-4.92,2.04c-1.24,1.36-2.04,3.31-2.39,5.84h14.13
	v-0.81c-0.05-2.25-0.66-3.98-1.83-5.2C326.98,1735.11,325.31,1734.48,323.16,1734.48z M356.48,1765h-10.2v-54h10.2V1765z
	 M399.13,1746.33c0,5.86-1.34,10.56-4.01,14.1c-2.65,3.52-6.23,5.27-10.76,5.27c-3.84,0-6.95-1.33-9.32-4v17.92h-10.16v-52.66h9.42
	l0.35,3.73c2.46-2.96,5.67-4.43,9.63-4.43c4.69,0,8.33,1.73,10.93,5.2c2.6,3.47,3.9,8.25,3.9,14.34V1746.33z M388.97,1745.59
	c0-3.54-0.63-6.27-1.9-8.19c-1.24-1.92-3.06-2.88-5.45-2.88c-3.19,0-5.38,1.22-6.57,3.66v15.57c1.24,2.51,3.46,3.76,6.64,3.76
	C386.54,1757.51,388.97,1753.54,388.97,1745.59z"/>
<path d="M313.27,1602.05c0-4.38,0.53-7.86,1.59-10.46c1.06-2.59,3-5.14,5.81-7.64c2.84-2.53,4.73-4.57,5.67-6.14
	c0.94-1.59,1.41-3.26,1.41-5.01c0-5.28-2.44-7.92-7.31-7.92c-2.31,0-4.17,0.71-5.58,2.15c-1.38,1.41-2.09,3.36-2.16,5.86h-13.59
	c0.06-5.97,1.98-10.64,5.77-14.01c3.81-3.38,9-5.07,15.56-5.07c6.62,0,11.77,1.61,15.42,4.83c3.66,3.19,5.48,7.7,5.48,13.55
	c0,2.65-0.59,5.17-1.78,7.54c-1.19,2.35-3.27,4.96-6.23,7.83l-3.8,3.61c-2.38,2.28-3.73,4.95-4.08,8.02l-0.19,2.86H313.27z
	 M311.91,1616.44c0-2.1,0.7-3.82,2.11-5.16c1.44-1.37,3.27-2.06,5.48-2.06s4.03,0.69,5.44,2.06c1.44,1.34,2.16,3.06,2.16,5.16
	c0,2.06-0.7,3.76-2.11,5.11c-1.38,1.34-3.2,2.01-5.48,2.01s-4.13-0.67-5.53-2.01C312.59,1620.2,311.91,1618.5,311.91,1616.44z"/>
<path class="st10" d="M309.09,947.07c-25.91,0-47.23-21.07-47.23-47.23c0-25.91,21.07-47.23,47.23-47.23s47.23,21.07,47.23,47.23
	C356.07,926,335,947.07,309.09,947.07z M309.09,859.64c-22.28,0-40.45,18.16-40.45,40.45s18.16,40.45,40.45,40.45
	s40.45-18.16,40.45-40.45C349.29,877.8,331.13,859.64,309.09,859.64z"/>
<path class="st10" d="M372.05,968.14l-32.94-32.7l5.33-5.33l32.7,32.94L372.05,968.14z"/>
<path class="st2" d="M319.5,1309c37.28,0,67.5-30.22,67.5-67.5s-30.22-67.5-67.5-67.5s-67.5,30.22-67.5,67.5S282.22,1309,319.5,1309
	z"/>
<path class="st0" d="M355.5,1217.31c-2.53,1.41-5.63,2.25-8.44,2.53c3.09-1.96,5.34-5.06,6.47-8.71c-2.81,1.68-5.91,3.09-9.56,3.93
	c-2.81-3.09-6.47-5.06-10.69-5.06c-8.16,0-14.91,7.03-14.91,16.03c0,1.13,0,2.53,0.28,3.66c-12.38-0.56-23.34-7.03-30.66-16.6
	c-1.41,2.25-1.97,5.07-1.97,8.16c0,5.63,2.53,10.41,6.47,13.22c-2.53,0-4.78-0.84-6.75-1.97v0.28c0,7.6,5.06,14.06,11.81,15.75
	c-1.13,0.28-2.53,0.56-3.94,0.56c-0.84,0-1.97,0-2.81-0.28c1.97,6.47,7.31,10.97,13.78,10.97c-5.06,4.22-11.53,6.75-18.28,6.75
	c-1.13,0-2.25,0-3.66-0.28c6.47,4.5,14.34,7.31,22.78,7.31c27.28,0,42.19-24.18,42.19-45.28c0-0.56,0-1.4,0-1.97
	C351,1223.5,353.53,1220.69,355.5,1217.31z"/>
</svg>
