<?xml version="1.0" encoding="utf-8"?>
<!-- Generator: Adobe Illustrator 23.0.1, SVG Export Plug-In . SVG Version: 6.00 Build 0)  -->
<svg version="1.1" id="Layer_1" xmlns="http://www.w3.org/2000/svg" xmlns:xlink="http://www.w3.org/1999/xlink" x="0px" y="0px"
	 viewBox="0 0 500 259" style="enable-background:new 0 0 500 259;" xml:space="preserve">
<style type="text/css">
	.st0{fill-rule:evenodd;clip-rule:evenodd;}
	.st1{fill:#00AADE;}
	.st2{fill:#FFFFFF;}
	.st3{fill:#061A34;}
	.st4{fill:#1877F2;}
</style>
<path class="st0" d="M151.8,15c34.5,0,62.5,28,62.5,62.5s-28,62.5-62.5,62.5s-62.5-28-62.5-62.5S117.3,15,151.8,15z M188.3,110.4
	v-1.2l-5.7-5.6c-0.5-0.4-0.8-1-0.6-1.6V60.8c-0.1-0.6,0.1-1.3,0.6-1.6l5.8-5.6v-1.2h-20.2l-14.4,36l-16.5-36.1h-21.2v1.2l6.8,8.2
	c0.7,0.6,1,1.5,0.9,2.4v32.4c0.2,1.2-0.2,2.4-1,3.2l-7.7,9.3v1.2h21.8V109l-7.6-9.3c-0.8-0.9-1.2-2-1.1-3.2v-28l19.1,41.8h2.2
	l16.4-41.8v33.3c0,0.9,0,1.1-0.6,1.6l-5.9,5.7v1.2L188.3,110.4L188.3,110.4z"/>
<g id="_6-twitter">
	<path class="st1" d="M346.1,122.5h-63c-9.4,0-17-7.6-17-17v-63c0-9.4,7.6-17,17-17h63c9.4,0,17,7.6,17,17v63
		C363.1,114.9,355.5,122.5,346.1,122.5z"/>
	<path class="st2" d="M337.6,57c2.9-1.5,5.1-4.1,6.1-7.3c-2.4,2.4-7.6,3.2-7.6,3.2c-4.2-5.2-11.9-6-17.1-1.8
		c-3.9,3.1-5.4,8.3-3.9,13.1h-0.6c-10-0.7-19.2-5.5-25.5-13.3c0,0-7.3,9.7,3.6,17c0,0-4.8,0-6.1-1.2c0,0-1.2,7.3,9.7,12.1
		c-1.5,0.7-3.3,0.7-4.9,0c0,4.7,4.9,8.5,10.9,8.5c0,3.3-8.1,6.1-18.2,6.1c15.8,10.9,53.4,8.5,55.8-32.7l6.1-6.1L337.6,57z"/>
</g>
<g>
	<path class="st3" d="M188.9,157h-58.2c-10.7,0-19.4,8.7-19.4,19.4v58.3c0,10.7,8.7,19.4,19.4,19.4H189c10.6,0,19.4-8.7,19.4-19.4
		v-58.3C208.3,165.7,199.6,157,188.9,157L188.9,157z"/>
	<path class="st2" d="M176.5,235.7h-10.2c-9.2,0-16.1-4.7-16.1-16.1v-18.1h-8.4v-9.8c9.2-2.4,13.1-10.3,13.5-17.2h9.6v15.6h11.2
		v11.4h-11.2v15.8c0,4.7,2.4,6.4,6.2,6.4h5.4V235.7z"/>
</g>
<g>
	<path class="st4" d="M373.1,197c0-31.8-25.7-57.5-57.5-57.5s-57.5,25.7-57.5,57.5c0,28.7,21,52.5,48.5,56.8v-40.2H292V197h14.6
		v-12.7c0-14.4,8.6-22.4,21.7-22.4c6.3,0,12.9,1.1,12.9,1.1v14.2h-7.3c-7.1,0-9.4,4.4-9.4,9V197h15.9l-2.5,16.6h-13.4v40.2
		C352.1,249.5,373.1,225.7,373.1,197z"/>
	<path class="st2" d="M338,213.6l2.5-16.6h-15.9v-10.8c0-4.5,2.2-9,9.4-9h7.3V163c0,0-6.6-1.1-12.9-1.1c-13.1,0-21.7,8-21.7,22.4
		V197h-14.6v16.6h14.6v40.2c2.9,0.5,5.9,0.7,9,0.7s6.1-0.2,9-0.7v-40.2H338L338,213.6z"/>
</g>
</svg>
