<?xml version="1.0" ?><!DOCTYPE svg  PUBLIC '-//W3C//DTD SVG 1.1//EN'  'http://www.w3.org/Graphics/SVG/1.1/DTD/svg11.dtd'><svg height="512px" style="enable-background:new 0 0 512 512;" version="1.1" viewBox="0 0 512 512" width="512px" xml:space="preserve" xmlns="http://www.w3.org/2000/svg" xmlns:xlink="http://www.w3.org/1999/xlink"><g id="C_-_199_x2C__license_to_work_x2C__license_x2C__card_x2C__identity_card_x2C__id"><g><path d="M133.432,200.925c16.502,0,26.601-25.61,26.601-39.556c0-14.237-11.933-25.821-26.601-25.821    c-14.664,0-26.595,11.584-26.595,25.821C106.837,175.314,116.935,200.925,133.432,200.925z"/><path d="M172.582,233.229c-3.81-1.988-8.424-4.398-13.827-7.37l-23.176,16.444c-1.625,1.151-3.799,1.15-5.423,0l-23.175-16.444    c-5.565,3.059-10.289,5.515-14.185,7.541c-9.84,5.117-14.779,7.685-16.72,11.132c-2.006,3.562-1.918,10.09-1.758,21.942    c0.039,2.922,0.083,6.135,0.102,9.728c19.15,4.072,38.644,6.135,58.001,6.135c19.394,0,39.186-2.07,58.885-6.155    c0.019-3.453,0.059-6.557,0.095-9.382c0.154-11.983,0.239-18.584-1.806-22.206C187.61,241.078,182.588,238.455,172.582,233.229z"/><path d="M45.154,105.5v253.065h372.494c2.588,0,4.686,2.098,4.686,4.686s-2.098,4.686-4.686,4.686H45.154V406.5h421.691v-301    H45.154z M300.902,172.585h112.915c2.588,0,4.686,2.097,4.686,4.685c0,2.588-2.098,4.686-4.686,4.686H300.902    c-2.586,0-4.686-2.097-4.686-4.686C296.217,174.682,298.316,172.585,300.902,172.585z M241.119,215.647h172.698    c2.588,0,4.686,2.097,4.686,4.685c0,2.588-2.098,4.686-4.686,4.686H241.119c-2.587,0-4.686-2.097-4.686-4.686    C236.434,217.745,238.532,215.647,241.119,215.647z M241.119,258.71h50.801c2.588,0,4.686,2.098,4.686,4.686    s-2.098,4.686-4.686,4.686h-50.801c-2.587,0-4.686-2.098-4.686-4.686S238.532,258.71,241.119,258.71z M133.432,126.176    c19.835,0,35.972,15.787,35.972,35.192c0,17.56-12.021,48.927-35.972,48.927c-23.947,0-35.966-31.367-35.966-48.927    C97.466,141.963,113.601,126.176,133.432,126.176z M200.772,266.919c-0.048,3.795-0.104,8.095-0.104,13.053    c0,2.199-1.529,4.103-3.678,4.576c-21.569,4.75-43.293,7.159-64.567,7.159c-21.283,0-42.718-2.411-63.712-7.165    c-2.135-0.484-3.65-2.381-3.65-4.57c0-5.098-0.06-9.493-0.112-13.372c-0.378-27.992,0.501-29.543,23.525-41.514    c4.433-2.305,9.95-5.173,16.534-8.846c1.579-0.877,3.521-0.774,4.994,0.271l22.867,16.225l22.869-16.225    c1.471-1.045,3.415-1.15,4.994-0.27c6.417,3.58,11.834,6.409,16.188,8.682C200.245,237.103,201.136,238.673,200.772,266.919z     M413.817,311.142H241.119c-2.587,0-4.686-2.098-4.686-4.686s2.099-4.686,4.686-4.686h172.698c2.588,0,4.686,2.098,4.686,4.686    S416.405,311.142,413.817,311.142z M417.648,268.081h-80.768c-2.588,0-4.686-2.098-4.686-4.686s2.098-4.686,4.686-4.686h80.768    c2.588,0,4.686,2.098,4.686,4.686S420.236,268.081,417.648,268.081z"/></g></g><g id="Layer_1"/></svg>