<?xml version="1.0" encoding="utf-8"?>
<!-- Generator: Adobe Illustrator 23.0.1, SVG Export Plug-In . SVG Version: 6.00 Build 0)  -->
<svg version="1.1" id="Layer_1" xmlns="http://www.w3.org/2000/svg" xmlns:xlink="http://www.w3.org/1999/xlink" x="0px" y="0px"
	 viewBox="0 0 307 307" style="enable-background:new 0 0 307 307;" xml:space="preserve">
<style type="text/css">
	.st0{fill:#4267B2;fill-opacity:0.1;}
	.st1{fill:none;stroke:#000000;stroke-width:3;stroke-linecap:round;stroke-linejoin:round;stroke-miterlimit:2.6131;}
	.st2{fill-rule:evenodd;clip-rule:evenodd;}
</style>
<path class="st0" d="M48.1,0h212.8c26,0,47.1,21.1,47.1,47.1v212.8c0,26-21.1,47.1-47.1,47.1H48.1C22.1,307,1,285.9,1,259.9V47.1
	C1,21.1,22.1,0,48.1,0z"/>
<path class="st1" d="M84,233.3V121.9H55.9v106.8c0,2.4,2,4.6,4.6,4.6H84z"/>
<path class="st1" d="M83.8,121.9v111.4c53.6,0,109.9,0,163.4,0c0.5,0,0.9-0.2,1.2-0.5l0,0c0.3-0.3,0.5-0.8,0.5-1.2
	c0-36.6-0.2-73-0.2-109.4H83.8V121.9z"/>
<path class="st1" d="M58.3,90.4h187.8c6.7,0,12.2,5.5,12.2,12.2v62.5v12.8v54.3c0,2.9-1.2,5.5-3,7.3l0,0c-1.8,1.8-4.4,3-7.3,3h-30.4
	h-8.8H58.3c-6.7,0-12.2-5.5-12.2-12.2V102.6C46.3,95.9,51.6,90.4,58.3,90.4z"/>
<path class="st1" d="M102.8,140h43.9c1.1,0,2,0.9,2,2V172c0,1.1-0.9,2-2,2h-43.9c-1.1,0-2-0.9-2-2v-30.1
	C101,140.9,101.9,140,102.8,140z"/>
<path class="st2" d="M69.8,145c2.9,0,5.2-2.3,5.2-5.2c0-2.9-2.3-5.2-5.2-5.2c-2.9,0-5.2,2.3-5.2,5.2C64.7,142.7,67,145,69.8,145z"/>
<path class="st2" d="M69.8,164c2.9,0,5.2-2.3,5.2-5.2s-2.3-5.2-5.2-5.2c-2.9,0-5.2,2.3-5.2,5.2C64.7,161.6,67,164,69.8,164z"/>
<path class="st2" d="M69.8,182.8c2.9,0,5.2-2.3,5.2-5.2c0-2.9-2.3-5.2-5.2-5.2c-2.9,0-5.2,2.3-5.2,5.2
	C64.7,180.4,67,182.8,69.8,182.8z"/>
<path class="st2" d="M69.8,201.7c2.9,0,5.2-2.3,5.2-5.2c0-2.9-2.3-5.2-5.2-5.2c-2.9,0-5.2,2.3-5.2,5.2
	C64.7,199.2,67,201.7,69.8,201.7z"/>
<path class="st2" d="M69.8,220.5c2.9,0,5.2-2.3,5.2-5.2s-2.3-5.2-5.2-5.2c-2.9,0-5.2,2.3-5.2,5.2S67,220.5,69.8,220.5z"/>
<path class="st1" d="M115.4,219.9c8.1,0,14.6-6.5,14.6-14.6c0-8.1-6.5-14.6-14.6-14.6s-14.6,6.5-14.6,14.6
	C101,213.4,107.5,219.9,115.4,219.9z"/>
<path class="st1" d="M168.6,219.9c8.1,0,14.6-6.5,14.6-14.6c0-8.1-6.5-14.6-14.6-14.6c-8.1,0-14.6,6.5-14.6,14.6
	C154,213.4,160.6,219.9,168.6,219.9z"/>
<path class="st1" d="M221.7,219.9c8.1,0,14.6-6.5,14.6-14.6c0-8.1-6.5-14.6-14.6-14.6c-8.1,0-14.6,6.5-14.6,14.6
	C207.1,213.4,213.6,219.9,221.7,219.9z"/>
<path class="st2" d="M201.2,100.8c2.9,0,5.2,2.3,5.2,5.2s-2.3,5.2-5.2,5.2s-5.2-2.3-5.2-5.2C196,103.2,198.3,100.8,201.2,100.8z"/>
<path class="st2" d="M220.9,100.8c2.9,0,5.2,2.3,5.2,5.2s-2.3,5.2-5.2,5.2s-5.2-2.3-5.2-5.2C215.7,103.2,218,100.8,220.9,100.8z"/>
<path d="M240.7,111.1c2.9,0,5.2-2.3,5.2-5.2s-2.3-5.2-5.2-5.2c-2.9,0-5.2,2.3-5.2,5.2S237.8,111.1,240.7,111.1z"/>
<path class="st1" d="M160.6,140h75.7"/>
<path class="st1" d="M160.6,157h75.7"/>
<path class="st1" d="M160.6,173.9h75.7"/>
</svg>
