<svg width="1068" height="954" viewBox="0 0 1068 954" fill="none" xmlns="http://www.w3.org/2000/svg">
<g clip-path="url(#clip0)">
<path d="M999.338 519.766L234.981 846.693C229.76 848.919 223.87 848.984 218.602 846.873C213.334 844.763 209.119 840.649 206.881 835.435L5.243 364.229C3.61188 360.406 3.56436 356.092 5.11088 352.233C6.6574 348.375 9.67165 345.287 13.4924 343.648L788.125 12.3256C792.016 10.6667 796.405 10.6185 800.332 12.1916C804.258 13.7646 807.399 16.8303 809.067 20.7163L1010.6 491.673C1012.82 496.892 1012.89 502.781 1010.78 508.047C1008.67 513.314 1004.55 517.528 999.338 519.766Z" fill="#F2F2F2"/>
<path d="M963.994 505.494L251.633 810.182C241.191 814.648 229.292 810.328 225.109 800.552L49.5199 390.22C46.4174 382.97 50.1885 374.379 57.9265 371.069L779.864 62.2853C787.73 58.9207 796.696 62.1796 799.849 69.5492L975.345 479.665C979.529 489.441 974.436 501.028 963.994 505.494Z" fill="white"/>
<path d="M809.735 23.0358L6.01523 366.799L1.7287 356.782C-0.503389 351.545 -0.566488 345.636 1.55324 340.353C3.67296 335.069 7.80242 330.842 13.0357 328.599L777.252 1.73185C782.489 -0.502991 788.398 -0.569754 793.684 1.5462C798.971 3.66215 803.201 7.78802 805.448 13.0186L809.735 23.0358Z" fill="#6C63FF"/>
<path d="M35.5589 342.155C38.6279 342.155 41.1158 339.668 41.1158 336.599C41.1158 333.531 38.6279 331.044 35.5589 331.044C32.4899 331.044 30.002 333.531 30.002 336.599C30.002 339.668 32.4899 342.155 35.5589 342.155Z" fill="white"/>
<path d="M54.9515 333.861C58.0205 333.861 60.5084 331.373 60.5084 328.305C60.5084 325.237 58.0205 322.749 54.9515 322.749C51.8825 322.749 49.3945 325.237 49.3945 328.305C49.3945 331.373 51.8825 333.861 54.9515 333.861Z" fill="white"/>
<path d="M74.3441 325.566C77.4131 325.566 79.901 323.079 79.901 320.01C79.901 316.942 77.4131 314.455 74.3441 314.455C71.275 314.455 68.7871 316.942 68.7871 320.01C68.7871 323.079 71.275 325.566 74.3441 325.566Z" fill="white"/>
<path d="M394.239 471.821L299.238 512.454C294.018 514.68 288.127 514.745 282.86 512.634C277.592 510.524 273.376 506.41 271.138 501.196L218.696 378.645C216.47 373.426 216.405 367.538 218.516 362.271C220.627 357.004 224.742 352.79 229.957 350.552L324.958 309.919C330.178 307.693 336.068 307.629 341.336 309.739C346.604 311.85 350.819 315.963 353.058 321.177L405.5 443.728C407.726 448.947 407.79 454.836 405.679 460.102C403.568 465.369 399.454 469.583 394.239 471.821Z" fill="#F2F2F2"/>
<path d="M554.987 403.067L459.986 443.7C454.766 445.926 448.876 445.99 443.608 443.88C438.34 441.769 434.124 437.656 431.886 432.442L379.444 309.891C377.218 304.672 377.153 298.783 379.264 293.516C381.375 288.25 385.49 284.035 390.705 281.798L485.706 241.164C490.926 238.939 496.816 238.874 502.084 240.985C507.352 243.095 511.567 247.209 513.806 252.422L566.248 374.973C568.474 380.192 568.538 386.081 566.427 391.348C564.316 396.614 560.202 400.829 554.987 403.067Z" fill="#F2F2F2"/>
<path d="M715.735 334.312L620.734 374.946C615.514 377.171 609.624 377.236 604.356 375.125C599.088 373.015 594.872 368.901 592.634 363.688L540.192 241.136C537.966 235.917 537.901 230.029 540.012 224.762C542.124 219.495 546.238 215.281 551.453 213.043L646.454 172.41C651.674 170.184 657.565 170.12 662.832 172.23C668.1 174.341 672.316 178.454 674.554 183.668L726.996 306.219C729.222 311.438 729.287 317.327 727.176 322.593C725.065 327.86 720.95 332.074 715.735 334.312Z" fill="#F2F2F2"/>
<path d="M475.372 661.422L380.371 702.056C375.15 704.281 369.26 704.346 363.992 702.236C358.725 700.125 354.509 696.012 352.271 690.798L299.829 568.247C297.603 563.028 297.538 557.139 299.649 551.872C301.76 546.606 305.875 542.391 311.09 540.154L406.091 499.52C411.311 497.295 417.201 497.23 422.469 499.34C427.737 501.451 431.952 505.564 434.19 510.778L486.632 633.329C488.859 638.548 488.923 644.437 486.812 649.704C484.701 654.97 480.587 659.185 475.372 661.422Z" fill="#F2F2F2"/>
<path d="M636.12 592.668L541.119 633.301C535.898 635.527 530.008 635.592 524.74 633.481C519.473 631.37 515.257 627.257 513.019 622.043L460.577 499.492C458.351 494.273 458.286 488.384 460.397 483.118C462.508 477.851 466.623 473.637 471.838 471.399L566.839 430.766C572.059 428.54 577.949 428.475 583.217 430.586C588.485 432.696 592.7 436.81 594.938 442.024L647.38 564.575C649.607 569.794 649.671 575.682 647.56 580.949C645.449 586.216 641.335 590.43 636.12 592.668Z" fill="#F2F2F2"/>
<path d="M796.868 523.913L701.867 564.547C696.647 566.773 690.756 566.837 685.489 564.727C680.221 562.616 676.005 558.503 673.767 553.289L621.325 430.738C619.099 425.519 619.034 419.63 621.145 414.363C623.256 409.097 627.371 404.882 632.586 402.645L727.587 362.011C732.807 359.786 738.697 359.721 743.965 361.831C749.233 363.942 753.449 368.055 755.687 373.269L808.129 495.82C810.355 501.039 810.42 506.928 808.309 512.195C806.197 517.461 802.083 521.676 796.868 523.913Z" fill="#F2F2F2"/>
<path d="M1046.59 954H215.226C209.551 953.994 204.11 951.737 200.097 947.725C196.084 943.713 193.827 938.273 193.82 932.599V420.083C193.825 415.926 195.479 411.941 198.418 409.002C201.358 406.062 205.344 404.409 209.502 404.404H1052.05C1056.28 404.409 1060.33 406.091 1063.32 409.081C1066.31 412.071 1068 416.125 1068 420.354V932.599C1067.99 938.273 1065.74 943.713 1061.72 947.725C1057.71 951.737 1052.27 953.994 1046.59 954Z" fill="#E6E6E6"/>
<path d="M1019.71 926.98H244.901C233.543 926.98 224.303 918.329 224.303 907.696V461.39C224.303 453.504 231.15 447.088 239.566 447.088H1024.8C1033.35 447.088 1040.31 453.61 1040.31 461.626V907.696C1040.31 918.329 1031.07 926.98 1019.71 926.98Z" fill="white"/>
<path d="M1067.7 422.75H193.52V411.854C193.528 406.162 195.794 400.705 199.822 396.681C203.849 392.656 209.309 390.394 215.003 390.389H1046.22C1051.91 390.394 1057.37 392.656 1061.4 396.681C1065.43 400.705 1067.69 406.162 1067.7 411.854V422.75Z" fill="#6C63FF"/>
<path d="M232.563 412.157C235.632 412.157 238.12 409.67 238.12 406.602C238.12 403.533 235.632 401.046 232.563 401.046C229.494 401.046 227.006 403.533 227.006 406.602C227.006 409.67 229.494 412.157 232.563 412.157Z" fill="white"/>
<path d="M253.657 412.157C256.726 412.157 259.213 409.67 259.213 406.602C259.213 403.533 256.726 401.046 253.657 401.046C250.588 401.046 248.1 403.533 248.1 406.602C248.1 409.67 250.588 412.157 253.657 412.157Z" fill="white"/>
<path d="M274.748 412.157C277.817 412.157 280.305 409.67 280.305 406.602C280.305 403.533 277.817 401.046 274.748 401.046C271.679 401.046 269.191 403.533 269.191 406.602C269.191 409.67 271.679 412.157 274.748 412.157Z" fill="white"/>
<path d="M977.772 572.376H610.667C595.97 572.376 584.055 584.288 584.055 598.982V598.982C584.055 613.677 595.97 625.589 610.667 625.589H977.772C992.47 625.589 1004.38 613.677 1004.38 598.982C1004.38 584.288 992.47 572.376 977.772 572.376Z" fill="#E6E6E6"/>
<path d="M977.772 660.428H610.667C595.97 660.428 584.055 672.34 584.055 687.034V687.034C584.055 701.729 595.97 713.641 610.667 713.641H977.772C992.47 713.641 1004.38 701.729 1004.38 687.034C1004.38 672.34 992.47 660.428 977.772 660.428Z" fill="#E6E6E6"/>
<path d="M977.772 748.48H610.667C595.97 748.48 584.055 760.392 584.055 775.087V775.087C584.055 789.781 595.97 801.693 610.667 801.693H977.772C992.47 801.693 1004.38 789.781 1004.38 775.087C1004.38 760.392 992.47 748.48 977.772 748.48Z" fill="#E6E6E6"/>
<path d="M549.532 687.034C549.532 715.252 541.163 742.836 525.482 766.298C509.802 789.76 487.514 808.046 461.438 818.845C435.362 829.643 406.669 832.469 378.987 826.964C351.305 821.459 325.878 807.871 305.92 787.918C285.963 767.965 272.371 742.543 266.865 714.868C261.359 687.193 264.185 658.506 274.986 632.437C285.787 606.367 304.078 584.085 327.545 568.408C351.013 552.731 378.603 544.364 406.828 544.364C444.672 544.376 480.962 559.411 507.722 586.164C534.481 612.918 549.52 649.199 549.532 687.034Z" fill="white"/>
<path d="M472.782 711.447C471.223 802.692 335.465 802.678 333.92 711.444C335.479 620.201 471.237 620.216 472.782 711.447Z" fill="#6C63FF"/>
<path d="M400.596 739.768L400.523 737.174C418.406 739.561 422.257 717.403 404.223 725.687L408.34 695.609L410.91 695.961L407.408 721.547C426.397 718.721 419.374 742.361 400.596 739.768Z" fill="#2F2E41"/>
<path d="M437.597 698.168H423.623V700.762H437.597V698.168Z" fill="#2F2E41"/>
<path d="M393.488 698.168H379.514V700.762H393.488V698.168Z" fill="#2F2E41"/>
<path d="M425.859 808.499C428.584 790.12 407.062 793.752 395.671 793.57C393.834 793.576 392.022 793.991 390.367 794.786C388.711 795.58 387.253 796.734 386.1 798.163C384.947 799.592 384.127 801.26 383.7 803.046C383.273 804.832 383.25 806.69 383.632 808.486C374.816 811.21 366.652 815.713 359.645 821.715C389.175 832.01 421.263 832.365 451.015 822.727C443.762 816.215 435.178 811.36 425.859 808.499Z" fill="#2F2E41"/>
<path d="M370.71 678.615C383.577 671.181 399.181 676.884 412.472 680.003C437.69 687.753 473.053 678.048 476.119 648.015C479.311 620.085 441.093 604.518 428.878 632.317L432.435 631.852C392.819 572.991 323.908 575.224 324.361 656.147C324.215 658.647 328.107 658.639 328.253 656.145C326.794 608.459 358.361 575.861 402.985 606.507C413.196 613.956 421.46 623.822 429.074 633.816C433.721 639.023 434.731 616.599 456.974 622.473C481.453 631.954 473.465 666.997 451.586 674.69C424.552 688.498 395.273 661.726 368.745 675.254C368.318 675.523 368.012 675.948 367.893 676.439C367.773 676.929 367.848 677.447 368.103 677.883C368.358 678.319 368.772 678.639 369.258 678.776C369.745 678.912 370.265 678.855 370.71 678.615V678.615Z" fill="#2F2E41"/>
<path d="M406.826 833.596C369.974 833.565 334.488 819.647 307.445 794.618C280.402 769.589 263.79 735.288 260.921 698.556C258.053 661.824 269.139 625.361 291.969 596.439C314.799 567.517 347.695 548.262 384.096 542.513C420.496 536.764 457.727 544.945 488.362 565.423C518.998 585.902 540.786 617.173 549.382 653C557.979 688.827 552.751 726.577 534.741 758.721C516.732 790.865 487.264 815.042 452.216 826.428C437.559 831.194 422.24 833.613 406.826 833.596ZM406.826 548.255C379.366 548.251 352.522 556.389 329.688 571.639C306.854 586.889 289.057 608.566 278.546 633.929C268.036 659.292 265.285 687.201 270.641 714.128C275.997 741.054 289.22 765.787 308.637 785.2C328.055 804.613 352.794 817.832 379.727 823.187C406.659 828.542 434.576 825.792 459.945 815.284C485.314 804.776 506.996 786.983 522.25 764.155C537.503 741.326 545.643 714.488 545.639 687.034C545.597 650.241 530.959 614.966 504.936 588.948C478.912 562.931 443.629 548.296 406.826 548.255Z" fill="#3F3D56"/>
</g>
<defs>
<clipPath id="clip0">
<rect width="1068" height="954" fill="white"/>
</clipPath>
</defs>
</svg>
