<svg width="221" height="221" viewBox="0 0 221 221" fill="none" xmlns="http://www.w3.org/2000/svg">
<path d="M57.5942 86.7274C64.7172 86.7274 69.0763 75.6731 69.0763 69.6535C69.0763 63.5082 63.9255 58.5081 57.5942 58.5081C51.2647 58.5081 46.1147 63.5082 46.1147 69.6535C46.1147 75.6727 50.4735 86.7274 57.5942 86.7274Z" fill="black"/>
<path d="M74.493 100.671C72.8484 99.8131 70.8568 98.7728 68.5247 97.49L58.521 104.588C57.8195 105.085 56.8812 105.084 56.1802 104.588L46.1769 97.49C43.7748 98.8104 41.7358 99.8705 40.0541 100.745C35.8067 102.954 33.6749 104.062 32.8371 105.55C31.9712 107.088 32.0092 109.905 32.0782 115.021C32.0951 116.282 32.1141 117.669 32.1223 119.22C40.3882 120.978 48.8026 121.868 57.1578 121.868C65.5291 121.868 74.0721 120.975 82.575 119.211C82.5832 117.721 82.6005 116.381 82.616 115.162C82.6825 109.989 82.7192 107.14 81.8365 105.577C80.9797 104.059 78.812 102.927 74.493 100.671Z" fill="black"/>
<path d="M19.4897 45.5381V154.771H180.273C181.39 154.771 182.296 155.677 182.296 156.794C182.296 157.911 181.39 158.817 180.273 158.817H19.4897V175.462H201.509V45.5381H19.4897ZM129.881 74.4947H178.62C179.737 74.4947 180.642 75.3998 180.642 76.5169C180.642 77.634 179.737 78.5396 178.62 78.5396H129.881C128.765 78.5396 127.858 77.6345 127.858 76.5169C127.859 75.3998 128.765 74.4947 129.881 74.4947ZM104.076 93.082H178.62C179.737 93.082 180.642 93.9872 180.642 95.1042C180.642 96.2213 179.737 97.1269 178.62 97.1269H104.076C102.96 97.1269 102.054 96.2218 102.054 95.1042C102.054 93.9876 102.96 93.082 104.076 93.082ZM104.076 111.67H126.004C127.121 111.67 128.027 112.575 128.027 113.692C128.027 114.81 127.121 115.715 126.004 115.715H104.076C102.96 115.715 102.054 114.81 102.054 113.692C102.054 112.575 102.96 111.67 104.076 111.67ZM57.5941 54.4627C66.1557 54.4627 73.1211 61.277 73.1211 69.653C73.1211 77.2326 67.9324 90.7719 57.5941 90.7719C47.2576 90.7719 42.0697 77.2326 42.0697 69.653C42.0697 61.277 49.0343 54.4627 57.5941 54.4627ZM86.6608 115.213C86.6401 116.851 86.6159 118.707 86.6159 120.847C86.6159 121.796 85.9559 122.618 85.0283 122.822C75.7183 124.873 66.3413 125.913 57.1586 125.913C47.972 125.913 38.7198 124.872 29.6579 122.82C28.7364 122.611 28.0824 121.792 28.0824 120.847C28.0824 118.647 28.0565 116.75 28.0341 115.075C27.8709 102.993 28.2503 102.323 38.1884 97.1563C40.1019 96.1613 42.4832 94.9234 45.3252 93.338C46.0067 92.9594 46.845 93.0039 47.4808 93.4549L57.3511 100.458L67.2223 93.4549C67.8572 93.0039 68.6963 92.9586 69.3779 93.3384C72.1477 94.8837 74.4859 96.1048 76.3653 97.0859C86.4333 102.343 86.8179 103.021 86.6608 115.213ZM178.62 134.302H104.076C102.96 134.302 102.054 133.396 102.054 132.279C102.054 131.162 102.96 130.256 104.076 130.256H178.62C179.737 130.256 180.642 131.162 180.642 132.279C180.642 133.396 179.737 134.302 178.62 134.302ZM180.273 115.715H145.411C144.293 115.715 143.388 114.809 143.388 113.692C143.388 112.575 144.293 111.669 145.411 111.669H180.273C181.39 111.669 182.296 112.575 182.296 113.692C182.296 114.809 181.39 115.715 180.273 115.715Z" fill="white"/>
</svg>
