<svg width="139" height="139" viewBox="0 0 139 139" fill="none" xmlns="http://www.w3.org/2000/svg">
<path d="M123.797 45.6094H119.453V62.9844H123.797C128.595 62.9844 132.484 59.0945 132.484 54.2969C132.484 49.4992 128.595 45.6094 123.797 45.6094Z" fill="#3A4249"/>
<path d="M97.7347 95.8231C92.5005 98.4294 86.6147 99.9062 80.3597 99.9062C74.1047 99.9062 68.2189 98.4294 62.9847 95.8231C51.3435 90.0459 43.0035 78.6436 41.5049 65.1562H119.215C117.716 78.6436 109.376 90.0459 97.7347 95.8231Z" fill="#3A4249"/>
<path d="M119.453 43.4376V45.6094C112.265 45.6094 106.422 39.7671 106.422 32.5782V30.4063H46.0658C45.3491 30.4063 44.6106 30.3412 43.9156 30.2326C43.807 30.2108 43.6984 30.2108 43.6116 30.1891C38.095 29.1901 33.5124 24.9332 32.7088 19.2646C31.6663 11.8368 36.9005 5.40803 43.8722 4.47412C44.8061 6.92834 47.1734 8.68756 49.9534 8.68756H84.7034C103.903 8.68756 119.453 24.2382 119.453 43.4376Z" fill="#3A4249"/>
<path d="M65.1562 58.6406C67.5552 58.6406 69.5 56.6959 69.5 54.2969C69.5 51.8979 67.5552 49.9531 65.1562 49.9531C62.7573 49.9531 60.8125 51.8979 60.8125 54.2969C60.8125 56.6959 62.7573 58.6406 65.1562 58.6406Z" fill="#3A4249"/>
<path d="M95.5625 58.6406C97.9615 58.6406 99.9062 56.6959 99.9062 54.2969C99.9062 51.8979 97.9615 49.9531 95.5625 49.9531C93.1635 49.9531 91.2188 51.8979 91.2188 54.2969C91.2188 56.6959 93.1635 58.6406 95.5625 58.6406Z" fill="#3A4249"/>
<path d="M80.3592 119.151L100.694 108.059C98.8701 106.446 97.7342 104.111 97.7342 101.535V100.612C92.4109 102.938 86.5403 104.25 80.3592 104.25C74.178 104.25 68.3075 102.938 62.9842 100.612V101.535C62.9842 104.111 61.8483 106.446 60.0239 108.059L80.3592 119.151Z" fill="#3A4249"/>
<path d="M55.0114 110.273L51.5038 111.013L41.2656 121.252V132.484H78.1875V122.913L55.0114 110.273Z" fill="#3A4249"/>
<path d="M6.51562 76.0156C8.91555 76.0156 10.8594 77.9595 10.8594 80.3594C10.8594 77.9595 12.8032 76.0156 15.2031 76.0156C17.603 76.0156 19.5469 77.9595 19.5469 80.3594C19.5469 77.9595 21.4907 76.0156 23.8906 76.0156C26.2905 76.0156 28.2344 77.9595 28.2344 80.3594V58.6406C28.2344 56.2407 30.1782 54.2969 32.5781 54.2969C34.978 54.2969 36.9219 56.2407 36.9219 58.6406V99.9062H39.0938V95.5625C39.0938 90.7648 42.9836 86.875 47.7812 86.875V108.594L36.9219 119.453V132.484H2.17188V80.3594C2.17188 77.9595 4.1157 76.0156 6.51562 76.0156Z" fill="#3A4249"/>
<path d="M136.828 120.283C136.737 120.198 136.659 120.1 136.568 120.018C133.483 117.281 129.704 115.327 125.556 114.458L105.707 110.273L82.5312 122.913V132.484H136.828V120.283ZM121.625 128.141H93.3906V121.625H121.625V128.141Z" fill="#3A4249"/>
</svg>
