<svg width="409" height="342" viewBox="0 0 409 342" fill="none" xmlns="http://www.w3.org/2000/svg">
<g clip-path="url(#clip0)" filter="url(#filter0_d)">
<g opacity="0.8">
<path opacity="0.8" d="M405 0H214.688V212.686H405V0Z" fill="url(#paint0_linear)"/>
</g>
<path d="M401.851 142.002H217.831V208.054H401.851V142.002Z" fill="white"/>
<path d="M240.066 157.669H232.936V191.516H240.066V157.669Z" fill="#64FFDA"/>
<g opacity="0.7">
<path opacity="0.7" d="M254.144 157.669H247.013V191.516H254.144V157.669Z" fill="#64FFDA"/>
</g>
<g opacity="0.6">
<path opacity="0.6" d="M268.225 157.669H261.094V191.516H268.225V157.669Z" fill="#64FFDA"/>
</g>
<g opacity="0.5">
<path opacity="0.5" d="M282.302 157.669H275.171V191.516H282.302V157.669Z" fill="#64FFDA"/>
</g>
<g opacity="0.5">
<path opacity="0.5" d="M296.378 157.669H289.247V191.516H296.378V157.669Z" fill="#64FFDA"/>
</g>
<g opacity="0.4">
<path opacity="0.4" d="M310.455 157.669H303.324V191.516H310.455V157.669Z" fill="#64FFDA"/>
</g>
<g opacity="0.3">
<path opacity="0.3" d="M324.536 157.669H317.405V191.516H324.536V157.669Z" fill="#64FFDA"/>
</g>
<path d="M375.8 191.604C385.303 191.604 393.007 183.89 393.007 174.374C393.007 164.859 385.303 157.145 375.8 157.145C366.297 157.145 358.593 164.859 358.593 174.374C358.593 183.89 366.297 191.604 375.8 191.604Z" fill="#4267B2"/>
<path d="M401.851 73.3773H217.831V139.429H401.851V73.3773Z" fill="white"/>
<path d="M240.066 89.0441H232.936V122.891H240.066V89.0441Z" fill="#64FFDA"/>
<g opacity="0.7">
<path opacity="0.7" d="M254.144 89.0441H247.013V122.891H254.144V89.0441Z" fill="#64FFDA"/>
</g>
<g opacity="0.6">
<path opacity="0.6" d="M268.225 89.0441H261.094V122.891H268.225V89.0441Z" fill="#64FFDA"/>
</g>
<g opacity="0.5">
<path opacity="0.5" d="M282.302 89.0441H275.171V122.891H282.302V89.0441Z" fill="#64FFDA"/>
</g>
<g opacity="0.5">
<path opacity="0.5" d="M296.378 89.0441H289.247V122.891H296.378V89.0441Z" fill="#64FFDA"/>
</g>
<g opacity="0.4">
<path opacity="0.4" d="M310.455 89.0441H303.324V122.891H310.455V89.0441Z" fill="#64FFDA"/>
</g>
<g opacity="0.3">
<path opacity="0.3" d="M324.536 89.0441H317.405V122.891H324.536V89.0441Z" fill="#64FFDA"/>
</g>
<path d="M375.8 122.983C385.303 122.983 393.007 115.27 393.007 105.754C393.007 96.2386 385.303 88.5248 375.8 88.5248C366.297 88.5248 358.593 96.2386 358.593 105.754C358.593 115.27 366.297 122.983 375.8 122.983Z" fill="#4267B2"/>
<path d="M401.851 4.75244H217.831V70.8041H401.851V4.75244Z" fill="white"/>
<path d="M240.066 20.4238H232.936V54.2703H240.066V20.4238Z" fill="#64FFDA"/>
<g opacity="0.7">
<path opacity="0.7" d="M254.144 20.4238H247.013V54.2703H254.144V20.4238Z" fill="#64FFDA"/>
</g>
<g opacity="0.6">
<path opacity="0.6" d="M268.225 20.4238H261.094V54.2703H268.225V20.4238Z" fill="#64FFDA"/>
</g>
<g opacity="0.5">
<path opacity="0.5" d="M282.302 20.4238H275.171V54.2703H282.302V20.4238Z" fill="#64FFDA"/>
</g>
<g opacity="0.5">
<path opacity="0.5" d="M296.378 20.4238H289.247V54.2703H296.378V20.4238Z" fill="#64FFDA"/>
</g>
<g opacity="0.4">
<path opacity="0.4" d="M310.455 20.4238H303.324V54.2703H310.455V20.4238Z" fill="#64FFDA"/>
</g>
<g opacity="0.3">
<path opacity="0.3" d="M324.536 20.4238H317.405V54.2703H324.536V20.4238Z" fill="#64FFDA"/>
</g>
<path d="M375.8 55.703C386.044 55.703 394.349 47.3872 394.349 37.1291C394.349 26.8711 386.044 18.5553 375.8 18.5553C365.555 18.5553 357.25 26.8711 357.25 37.1291C357.25 47.3872 365.555 55.703 375.8 55.703Z" fill="url(#paint1_linear)"/>
<path d="M375.8 124.787C386.044 124.787 394.349 116.471 394.349 106.213C394.349 95.955 386.044 87.6392 375.8 87.6392C365.555 87.6392 357.25 95.955 357.25 106.213C357.25 116.471 365.555 124.787 375.8 124.787Z" fill="url(#paint2_linear)"/>
<path d="M375.8 193.407C386.044 193.407 394.349 185.091 394.349 174.833C394.349 164.575 386.044 156.26 375.8 156.26C365.555 156.26 357.25 164.575 357.25 174.833C357.25 185.091 365.555 193.407 375.8 193.407Z" fill="url(#paint3_linear)"/>
<path d="M375.8 54.3584C385.303 54.3584 393.007 46.6446 393.007 37.1292C393.007 27.6137 385.303 19.8999 375.8 19.8999C366.297 19.8999 358.593 27.6137 358.593 37.1292C358.593 46.6446 366.297 54.3584 375.8 54.3584Z" fill="#4267B2"/>
<g opacity="0.8">
<path opacity="0.8" d="M274.017 322.409H19.3125V159.584C19.3125 158.622 19.5017 157.669 19.8694 156.781C20.2371 155.892 20.776 155.084 21.4553 154.404C22.1347 153.724 22.9413 153.184 23.8289 152.816C24.7165 152.448 25.6679 152.258 26.6287 152.258H266.696C267.657 152.258 268.608 152.448 269.496 152.816C270.384 153.184 271.19 153.724 271.869 154.404C272.549 155.084 273.088 155.892 273.455 156.781C273.823 157.669 274.012 158.622 274.012 159.584L274.017 322.409Z" fill="url(#paint4_linear)"/>
</g>
<path d="M30.1384 155.253H263.191C265.131 155.253 266.992 156.025 268.364 157.399C269.736 158.773 270.507 160.636 270.507 162.579V322.409H22.8223V162.579C22.8223 160.636 23.5931 158.773 24.9651 157.399C26.3372 156.025 28.1981 155.253 30.1384 155.253Z" fill="white"/>
<path d="M262.534 164.976H30.7969V317.169H262.534V164.976Z" fill="#F5F5F5"/>
<path opacity="0.8" d="M262.441 172.367H31.6855V309.292H262.441V172.367Z" fill="#E0E0E0"/>
<path d="M262.441 165.092H31.6855V172.367H262.441V165.092Z" fill="#F5F5F5"/>
<path d="M36.6307 170.378C37.6025 170.378 38.3903 169.589 38.3903 168.616C38.3903 167.643 37.6025 166.854 36.6307 166.854C35.6589 166.854 34.8711 167.643 34.8711 168.616C34.8711 169.589 35.6589 170.378 36.6307 170.378Z" fill="#FF5252"/>
<path d="M41.4744 170.378C42.4462 170.378 43.234 169.589 43.234 168.616C43.234 167.643 42.4462 166.854 41.4744 166.854C40.5026 166.854 39.7148 167.643 39.7148 168.616C39.7148 169.589 40.5026 170.378 41.4744 170.378Z" fill="#FFFF00"/>
<path d="M46.3231 170.378C47.2949 170.378 48.0826 169.589 48.0826 168.616C48.0826 167.643 47.2949 166.854 46.3231 166.854C45.3513 166.854 44.5635 167.643 44.5635 168.616C44.5635 169.589 45.3513 170.378 46.3231 170.378Z" fill="#69F0AE"/>
<g opacity="0.8">
<path opacity="0.8" d="M281.144 333.346C266.965 334.422 23.476 333.991 14.9652 333.346C3.81035 327.963 4.00021 307.08 4.00021 307.08L115.664 306.334L116.039 312.691H163.845L165.697 307.08H289.46C289.46 307.08 291.919 326.243 281.144 333.346Z" fill="url(#paint5_linear)"/>
</g>
<path d="M287.645 308.764H166.298C166.776 309.302 167.086 309.968 167.192 310.68C167.298 311.392 167.195 312.119 166.895 312.773C166.595 313.428 166.111 313.98 165.503 314.364C164.895 314.748 164.188 314.946 163.469 314.935H117.164C116.446 314.946 115.739 314.748 115.131 314.364C114.522 313.98 114.039 313.428 113.739 312.773C113.439 312.119 113.336 311.392 113.441 310.68C113.547 309.968 113.858 309.302 114.335 308.764H5.68086C5.68086 308.764 5.49564 326.902 16.5116 331.575C24.9159 332.136 265.428 332.502 279.43 331.575C290.076 325.404 287.645 308.764 287.645 308.764Z" fill="#F5F5F5"/>
<path d="M30.8892 314.184C31.7152 314.184 32.3848 313.513 32.3848 312.686C32.3848 311.859 31.7152 311.188 30.8892 311.188C30.0632 311.188 29.3936 311.859 29.3936 312.686C29.3936 313.513 30.0632 314.184 30.8892 314.184Z" fill="#E0E0E0"/>
<path d="M35.3716 314.184C36.1976 314.184 36.8673 313.513 36.8673 312.686C36.8673 311.859 36.1976 311.188 35.3716 311.188C34.5456 311.188 33.876 311.859 33.876 312.686C33.876 313.513 34.5456 314.184 35.3716 314.184Z" fill="#E0E0E0"/>
<path d="M39.854 314.184C40.6801 314.184 41.3497 313.513 41.3497 312.686C41.3497 311.859 40.6801 311.188 39.854 311.188C39.028 311.188 38.3584 311.859 38.3584 312.686C38.3584 313.513 39.028 314.184 39.854 314.184Z" fill="#E0E0E0"/>
<g opacity="0.7">
<path opacity="0.7" d="M139.465 177.75L94.5215 205.444C94.5215 205.444 94.5215 262.565 139.465 293.718C184.408 262.561 184.408 205.444 184.408 205.444L139.465 177.75Z" fill="url(#paint6_linear)"/>
</g>
<path d="M139.464 181.018L97.0723 207.154C97.0723 207.154 97.0723 261.059 139.488 290.459C181.903 261.059 181.903 207.154 181.903 207.154L139.464 181.018Z" fill="#4267B2"/>
<path opacity="0.05" d="M140.187 181.018L139.46 181.482V289.976L140.187 290.486C182.602 261.086 182.602 207.182 182.602 207.182L140.187 181.018Z" fill="black"/>
<path d="M139.465 187.333L101.958 210.451C101.958 210.451 101.958 258.133 139.465 284.144C176.972 258.133 176.972 210.451 176.972 210.451L139.465 187.333Z" fill="#4267B2"/>
<path opacity="0.08" d="M139.465 187.514V284.306C176.972 258.295 176.972 210.613 176.972 210.613L139.465 187.514Z" fill="black"/>
<path d="M114.669 142.053V46.0776H193.85" stroke="#3AD29F" stroke-width="2" stroke-miterlimit="10" stroke-dasharray="12 12"/>
<path d="M90.127 112.843V16.8676H169.308" stroke="#3AD29F" stroke-width="2" stroke-miterlimit="10" stroke-dasharray="12 12"/>
<path d="M335.543 221.338V296.449H293.868" stroke="#3AD29F" stroke-width="2" stroke-miterlimit="10" stroke-dasharray="12 12"/>
<path d="M360.547 238.029V313.14H318.873" stroke="#3AD29F" stroke-width="2" stroke-miterlimit="10" stroke-dasharray="12 12"/>
</g>
<defs>
<filter id="filter0_d" x="0" y="0" width="409" height="342" filterUnits="userSpaceOnUse" color-interpolation-filters="sRGB">
<feFlood flood-opacity="0" result="BackgroundImageFix"/>
<feColorMatrix in="SourceAlpha" type="matrix" values="0 0 0 0 0 0 0 0 0 0 0 0 0 0 0 0 0 0 127 0"/>
<feOffset dy="4"/>
<feGaussianBlur stdDeviation="2"/>
<feColorMatrix type="matrix" values="0 0 0 0 0 0 0 0 0 0 0 0 0 0 0 0 0 0 0.25 0"/>
<feBlend mode="normal" in2="BackgroundImageFix" result="effect1_dropShadow"/>
<feBlend mode="normal" in="SourceGraphic" in2="effect1_dropShadow" result="shape"/>
</filter>
<linearGradient id="paint0_linear" x1="309.844" y1="212.686" x2="309.844" y2="0" gradientUnits="userSpaceOnUse">
<stop stop-color="#808080" stop-opacity="0.25"/>
<stop offset="0.54" stop-color="#808080" stop-opacity="0.12"/>
<stop offset="1" stop-color="#808080" stop-opacity="0.1"/>
</linearGradient>
<linearGradient id="paint1_linear" x1="30145.9" y1="4481.48" x2="30145.9" y2="1505.21" gradientUnits="userSpaceOnUse">
<stop stop-color="#808080" stop-opacity="0.25"/>
<stop offset="0.54" stop-color="#808080" stop-opacity="0.12"/>
<stop offset="1" stop-color="#808080" stop-opacity="0.1"/>
</linearGradient>
<linearGradient id="paint2_linear" x1="30145.9" y1="10085.6" x2="30145.9" y2="7109.3" gradientUnits="userSpaceOnUse">
<stop stop-color="#808080" stop-opacity="0.25"/>
<stop offset="0.54" stop-color="#808080" stop-opacity="0.12"/>
<stop offset="1" stop-color="#808080" stop-opacity="0.1"/>
</linearGradient>
<linearGradient id="paint3_linear" x1="30145.9" y1="15652.1" x2="30145.9" y2="12675.8" gradientUnits="userSpaceOnUse">
<stop stop-color="#808080" stop-opacity="0.25"/>
<stop offset="0.54" stop-color="#808080" stop-opacity="0.12"/>
<stop offset="1" stop-color="#808080" stop-opacity="0.1"/>
</linearGradient>
<linearGradient id="paint4_linear" x1="121029" y1="133751" x2="121029" y2="71310.9" gradientUnits="userSpaceOnUse">
<stop stop-color="#808080" stop-opacity="0.25"/>
<stop offset="0.54" stop-color="#808080" stop-opacity="0.12"/>
<stop offset="1" stop-color="#808080" stop-opacity="0.1"/>
</linearGradient>
<linearGradient id="paint5_linear" x1="135855" y1="22722" x2="135855" y2="21070.5" gradientUnits="userSpaceOnUse">
<stop stop-color="#808080" stop-opacity="0.25"/>
<stop offset="0.54" stop-color="#808080" stop-opacity="0.12"/>
<stop offset="1" stop-color="#808080" stop-opacity="0.1"/>
</linearGradient>
<linearGradient id="paint6_linear" x1="41402.1" y1="84058.8" x2="41402.1" y2="55051.6" gradientUnits="userSpaceOnUse">
<stop stop-color="#808080" stop-opacity="0.25"/>
<stop offset="0.54" stop-color="#808080" stop-opacity="0.12"/>
<stop offset="1" stop-color="#808080" stop-opacity="0.1"/>
</linearGradient>
<clipPath id="clip0">
<rect width="401" height="334" fill="white" transform="translate(4)"/>
</clipPath>
</defs>
</svg>
