<svg width="554" height="460" viewBox="0 0 554 460" fill="none" xmlns="http://www.w3.org/2000/svg">
<g clip-path="url(#clip0)">
<path d="M134.856 119.528H56.6835C53.3451 119.528 50.6387 122.23 50.6387 125.564V277.654C50.6387 280.988 53.3451 283.691 56.6835 283.691H134.856C138.194 283.691 140.901 280.988 140.901 277.654V125.564C140.901 122.23 138.194 119.528 134.856 119.528Z" fill="url(#paint0_linear)"/>
<path d="M132.776 122.226H58.7626C55.4242 122.226 52.7178 124.929 52.7178 128.263V273.839C52.7178 277.173 55.4242 279.876 58.7626 279.876H132.776C136.115 279.876 138.821 277.173 138.821 273.839V128.263C138.821 124.929 136.115 122.226 132.776 122.226Z" fill="white"/>
<path d="M129.344 133.076L62.6816 133.169L62.861 261.461L129.524 261.368L129.344 133.076Z" fill="#E6E6E6"/>
<path d="M96.2066 276.096C99.1411 276.092 101.517 273.654 101.512 270.65C101.508 267.646 99.1259 265.214 96.1914 265.218C93.2568 265.222 90.8813 267.661 90.8855 270.665C90.8897 273.668 93.272 276.1 96.2066 276.096Z" fill="#DBDBDB"/>
<path d="M85.9117 128.235C86.4992 128.234 86.9749 127.747 86.974 127.146C86.9732 126.546 86.4962 126.061 85.9086 126.061C85.3211 126.062 84.8454 126.549 84.8462 127.149C84.8471 127.75 85.3241 128.235 85.9117 128.235Z" fill="#DBDBDB"/>
<path d="M106.564 126.304L91.2949 126.325C90.9611 126.326 90.6908 126.597 90.6913 126.93L90.6919 127.353C90.6923 127.686 90.9633 127.956 91.2972 127.955L106.567 127.934C106.9 127.934 107.171 127.663 107.17 127.33L107.17 126.907C107.169 126.574 106.898 126.304 106.564 126.304Z" fill="#DBDBDB"/>
<path d="M114.974 207.519H77.2295V247.096H114.974V207.519Z" fill="url(#paint1_linear)"/>
<path d="M113.335 209.24H78.873V245.376H113.335V209.24Z" fill="#4267B2"/>
<g opacity="0.5">
<path opacity="0.5" d="M98.7122 225.617V224.935H100.526V221.44C101.075 220.607 101.391 219.643 101.442 218.647C101.493 217.651 101.277 216.659 100.815 215.775C100.353 214.891 99.6634 214.146 98.8167 213.617C97.97 213.088 96.9971 212.795 95.9989 212.768C95.0006 212.741 94.0132 212.98 93.1389 213.462C92.2645 213.944 91.535 214.65 91.0257 215.508C90.5165 216.366 90.246 217.344 90.2424 218.341C90.2388 219.339 90.502 220.319 91.005 221.18V224.935H93.0059V225.738C90.5552 226.413 88.3938 227.872 86.8532 229.892C85.3125 231.911 84.4777 234.379 84.4766 236.918V247.096H107.743V236.918C107.742 234.292 106.848 231.743 105.207 229.69C103.567 227.637 101.277 226.201 98.7122 225.617Z" fill="url(#paint2_linear)"/>
</g>
<path d="M100.122 218.53H91.5078V225.412H100.122V218.53Z" fill="#F55F44"/>
<path d="M93.3694 225.774H98.8098C100.872 225.774 102.849 226.592 104.307 228.048C105.764 229.504 106.583 231.479 106.583 233.538V245.478H85.5957V233.525C85.5989 231.469 86.4193 229.497 87.8768 228.044C89.3343 226.591 91.3098 225.774 93.3694 225.774Z" fill="#FDD835"/>
<path d="M96.5545 222.333H95.2186C94.167 222.333 93.3145 223.185 93.3145 224.235V226.855C93.3145 227.905 94.167 228.756 95.2186 228.756H96.5545C97.6061 228.756 98.4586 227.905 98.4586 226.855V224.235C98.4586 223.185 97.6061 222.333 96.5545 222.333Z" fill="#FDA57D"/>
<path d="M94.9043 228.563L95.8654 229.964L96.8749 228.563H94.9043Z" fill="#FDA57D"/>
<path opacity="0.1" d="M89.549 233.622C89.549 233.622 88.5274 243.776 89.1863 244.434L89.549 233.622Z" fill="black"/>
<path opacity="0.1" d="M102.183 233.622C102.183 233.622 103.204 243.776 102.545 244.434L102.183 233.622Z" fill="black"/>
<path opacity="0.05" d="M95.8904 225.454C96.8042 225.455 97.6941 225.163 98.4292 224.621C98.333 224.018 98.0246 223.468 97.5594 223.071C97.0941 222.674 96.5025 222.455 95.8904 222.454C95.2784 222.455 94.6867 222.674 94.2215 223.071C93.7562 223.468 93.4478 224.018 93.3516 224.621C94.0867 225.163 94.9766 225.455 95.8904 225.454Z" fill="black"/>
<path d="M95.889 224.531C98.69 224.531 100.961 222.263 100.961 219.466C100.961 216.669 98.69 214.401 95.889 214.401C93.088 214.401 90.8174 216.669 90.8174 219.466C90.8174 222.263 93.088 224.531 95.889 224.531Z" fill="#F55F44"/>
<path d="M95.8903 225.328C98.2573 225.328 100.176 223.411 100.176 221.048C100.176 218.684 98.2573 216.767 95.8903 216.767C93.5233 216.767 91.6045 218.684 91.6045 221.048C91.6045 223.411 93.5233 225.328 95.8903 225.328Z" fill="#FDA57D"/>
<path d="M91.5923 221.313C91.7592 221.313 91.8945 221.07 91.8945 220.77C91.8945 220.47 91.7592 220.227 91.5923 220.227C91.4254 220.227 91.29 220.47 91.29 220.77C91.29 221.07 91.4254 221.313 91.5923 221.313Z" fill="#FDA57D"/>
<path d="M100.194 221.313C100.361 221.313 100.496 221.07 100.496 220.77C100.496 220.47 100.361 220.227 100.194 220.227C100.027 220.227 99.8916 220.47 99.8916 220.77C99.8916 221.07 100.027 221.313 100.194 221.313Z" fill="#FDA57D"/>
<path d="M125.188 141.417H67.0127V143.94H125.188V141.417Z" fill="white"/>
<path d="M125.188 146.464H67.0127V148.987H125.188V146.464Z" fill="white"/>
<path d="M99.8968 151.516H67.0127V154.04H99.8968V151.516Z" fill="white"/>
<path d="M115.069 156.569H67.0127V159.092H115.069V156.569Z" fill="white"/>
<path d="M107.483 161.622H67.0127V164.145H107.483V161.622Z" fill="white"/>
<path d="M125.188 166.675H67.0127V169.198H125.188V166.675Z" fill="white"/>
<path d="M120.135 174.251H69.5459V194.456H120.135V174.251Z" fill="white"/>
<path d="M426.448 275.958C426.448 275.958 434.911 334.025 484.593 353.313L384.067 353.451L283.541 353.59C333.145 334.164 341.481 276.072 341.481 276.072L426.448 275.958Z" fill="#E0E0E0"/>
<path d="M485.489 353.301L282.539 353.584L282.556 365.85L485.506 365.567L485.489 353.301Z" fill="url(#paint3_linear)"/>
<path d="M484.607 353.302L283.555 353.582L283.568 363.048L484.62 362.767L484.607 353.302Z" fill="#F5F5F5"/>
<path d="M547.206 67.0079L220.239 67.4606C218.46 67.5033 216.771 68.2498 215.544 69.5358C214.316 70.8218 213.65 72.5421 213.692 74.3184L213.946 264.826V271.171C213.946 285.659 225.208 297.364 239.063 297.346L528.981 296.948C542.829 296.948 554.043 285.182 554.025 270.706V264.367L553.771 73.8596C553.791 72.9791 553.637 72.1032 553.318 71.2822C552.998 70.4611 552.52 69.711 551.911 69.0746C551.301 68.4383 550.572 67.9282 549.764 67.5735C548.957 67.2189 548.088 67.0267 547.206 67.0079Z" fill="url(#paint4_linear)"/>
<path d="M224.12 73.3887H542.98C544.704 73.3887 546.357 74.0724 547.575 75.2894C548.794 76.5064 549.478 78.1571 549.478 79.8782V261.174H217.615V79.8782C217.615 79.0255 217.784 78.1811 218.11 77.3934C218.437 76.6056 218.917 75.89 219.521 75.2873C220.125 74.6846 220.842 74.2067 221.631 73.8809C222.42 73.5552 223.266 73.3879 224.12 73.3887Z" fill="white"/>
<path d="M526.756 291.309L241.221 291.702C238.179 291.706 235.166 291.111 232.354 289.952C229.542 288.793 226.986 287.093 224.832 284.947C222.679 282.802 220.969 280.254 219.801 277.449C218.633 274.644 218.03 271.637 218.026 268.599V260.751L549.89 260.292V268.14C549.894 271.178 549.3 274.188 548.14 276.997C546.98 279.806 545.277 282.359 543.129 284.51C540.98 286.662 538.429 288.37 535.619 289.536C532.81 290.703 529.798 291.305 526.756 291.309Z" fill="#F5F5F5"/>
<path d="M534.324 88.6013H234.009V240.196H534.324V88.6013Z" fill="#E6E6E6"/>
<path d="M508.47 98.5981H455.312V154.341H508.47V98.5981Z" fill="url(#paint5_linear)"/>
<path d="M506.161 101.025H457.621V151.921H506.161V101.025Z" fill="#4267B2"/>
<g opacity="0.5">
<path opacity="0.5" d="M485.209 123.657L484.605 123.439L484.569 123.494H484.532V121.852C484.532 121.649 484.516 121.448 484.484 121.248C485.463 120.528 486.213 119.541 486.642 118.405C487.489 117.309 488.011 115.998 488.149 114.621C488.288 113.243 488.037 111.855 487.426 110.613C486.814 109.371 485.867 108.324 484.69 107.593C483.514 106.861 482.155 106.473 480.769 106.473C479.383 106.473 478.025 106.861 476.849 107.593C475.672 108.324 474.724 109.371 474.113 110.613C473.502 111.855 473.251 113.243 473.39 114.621C473.528 115.998 474.05 117.309 474.897 118.405C475.326 119.541 476.076 120.528 477.055 121.248C477.023 121.448 477.006 121.649 477.006 121.852V123.663C473.763 124.557 470.902 126.489 468.864 129.163C466.825 131.837 465.721 135.104 465.721 138.465V151.933H496.429V138.447C496.43 135.097 495.334 131.838 493.308 129.168C491.283 126.498 488.439 124.563 485.209 123.657Z" fill="url(#paint6_linear)"/>
</g>
<path d="M480.144 123.325H482.018C485.694 123.325 489.219 124.783 491.819 127.379C494.418 129.975 495.879 133.496 495.879 137.167V151.051H466.259V137.167C466.259 135.347 466.618 133.545 467.316 131.864C468.014 130.183 469.037 128.656 470.327 127.37C471.617 126.085 473.148 125.066 474.832 124.371C476.517 123.677 478.322 123.321 480.144 123.325Z" fill="#514ABF"/>
<path d="M481.008 118.501H480.554C478.678 118.501 477.157 120.02 477.157 121.894V124.158C477.157 126.031 478.678 127.55 480.554 127.55H481.008C482.884 127.55 484.405 126.031 484.405 124.158V121.894C484.405 120.02 482.884 118.501 481.008 118.501Z" fill="#FDA57D"/>
<path opacity="0.05" d="M474.643 124.924L477.073 130.128L479.485 127.719L477.073 124.019L474.643 124.924Z" fill="black"/>
<path d="M474.728 124.671L477.145 129.875L479.563 127.46L477.145 123.765L476.033 124.103C475.924 124.137 475.817 124.177 475.713 124.224L474.728 124.671Z" fill="white"/>
<path opacity="0.05" d="M486.926 124.671L484.49 130.128L482.072 127.719L484.557 123.826L486.926 124.671Z" fill="black"/>
<path d="M486.842 124.417L484.424 129.85L482.006 127.436L484.49 123.542L484.944 123.675C485.436 123.815 485.918 123.986 486.388 124.188L486.842 124.417Z" fill="white"/>
<path d="M479.388 127.273L480.742 129.241L482.168 127.273H479.388Z" fill="#FDA57D"/>
<path opacity="0.1" d="M471.845 134.402C471.845 134.402 470.406 148.703 471.337 149.633L471.845 134.402Z" fill="black"/>
<path opacity="0.1" d="M489.641 134.402C489.641 134.402 491.079 148.703 490.148 149.633L489.641 134.402Z" fill="black"/>
<path opacity="0.05" d="M480.779 122.89C482.066 122.89 483.32 122.48 484.357 121.719C484.221 120.869 483.786 120.095 483.13 119.537C482.474 118.978 481.641 118.671 480.779 118.67C479.917 118.671 479.083 118.978 478.428 119.537C477.772 120.095 477.337 120.869 477.2 121.719C478.238 122.48 479.491 122.89 480.779 122.89Z" fill="black"/>
<path d="M480.779 121.586C484.721 121.586 487.918 118.394 487.918 114.457C487.918 110.519 484.721 107.327 480.779 107.327C476.836 107.327 473.64 110.519 473.64 114.457C473.64 118.394 476.836 121.586 480.779 121.586Z" fill="black"/>
<path d="M480.778 122.721C484.113 122.721 486.817 120.021 486.817 116.69C486.817 113.36 484.113 110.66 480.778 110.66C477.443 110.66 474.739 113.36 474.739 116.69C474.739 120.021 477.443 122.721 480.778 122.721Z" fill="#FDA57D"/>
<path opacity="0.05" d="M475.913 110.714L477.436 112.573C477.436 112.573 484.128 113.177 484.89 111.644C485.651 110.11 480.483 109.018 480.483 109.018L475.913 110.714Z" fill="black"/>
<path d="M475.913 110.545L477.436 112.404C477.436 112.404 484.128 113.008 484.89 111.475C485.651 109.941 480.483 108.849 480.483 108.849L475.913 110.545Z" fill="black"/>
<path d="M474.728 117.059C474.962 117.059 475.151 116.718 475.151 116.298C475.151 115.878 474.962 115.537 474.728 115.537C474.494 115.537 474.305 115.878 474.305 116.298C474.305 116.718 474.494 117.059 474.728 117.059Z" fill="#FDA57D"/>
<path d="M486.842 117.059C487.076 117.059 487.265 116.718 487.265 116.298C487.265 115.878 487.076 115.537 486.842 115.537C486.608 115.537 486.419 115.878 486.419 116.298C486.419 116.718 486.608 117.059 486.842 117.059Z" fill="#FDA57D"/>
<path d="M508.778 165.467H455.619V221.21H508.778V165.467Z" fill="url(#paint7_linear)"/>
<path d="M506.469 167.888H457.929V218.784H506.469V167.888Z" fill="#4267B2"/>
<g opacity="0.5">
<path opacity="0.5" d="M485.868 190.822V188.95C485.868 188.86 485.868 188.763 485.868 188.672C486.896 187.904 487.681 186.856 488.129 185.654C488.872 184.691 489.383 183.569 489.62 182.377C489.857 181.184 489.814 179.953 489.495 178.779C489.176 177.606 488.589 176.522 487.78 175.613C486.972 174.703 485.964 173.993 484.834 173.538C484.921 173.155 484.922 172.758 484.838 172.375C484.754 171.992 484.586 171.632 484.347 171.32C484.108 171.008 483.804 170.753 483.455 170.572C483.107 170.391 482.722 170.288 482.33 170.271C481.937 170.255 481.546 170.325 481.183 170.476C480.82 170.627 480.495 170.855 480.231 171.146C479.966 171.436 479.769 171.781 479.653 172.156C479.536 172.53 479.504 172.926 479.557 173.315C478.339 173.689 477.229 174.353 476.324 175.25C475.418 176.146 474.744 177.248 474.358 178.461C473.973 179.675 473.887 180.964 474.11 182.218C474.332 183.471 474.855 184.652 475.634 185.66C476.082 186.862 476.867 187.91 477.895 188.678C477.895 188.769 477.895 188.86 477.895 188.956V190.936C474.52 191.583 471.475 193.382 469.283 196.026C467.092 198.669 465.89 201.992 465.884 205.424V221.307H498.587V205.449C498.586 201.89 497.299 198.451 494.962 195.764C492.625 193.076 489.396 191.322 485.868 190.822Z" fill="url(#paint8_linear)"/>
</g>
<path d="M481.262 191.16H483.136C484.956 191.16 486.759 191.518 488.44 192.213C490.122 192.909 491.65 193.929 492.937 195.214C494.224 196.499 495.245 198.025 495.942 199.705C496.638 201.384 496.997 203.184 496.997 205.002V218.886H467.377V205.002C467.377 201.331 468.837 197.81 471.437 195.214C474.036 192.618 477.562 191.16 481.238 191.16H481.262Z" fill="white"/>
<path d="M482.12 186.336H481.667C479.791 186.336 478.27 187.855 478.27 189.729V191.993C478.27 193.866 479.791 195.385 481.667 195.385H482.12C483.996 195.385 485.517 193.866 485.517 191.993V189.729C485.517 187.855 483.996 186.336 482.12 186.336Z" fill="#FDB797"/>
<path d="M480.506 195.108L481.86 197.076L483.28 195.108H480.506Z" fill="#FDB797"/>
<path opacity="0.1" d="M472.962 202.231C472.962 202.231 471.523 216.532 472.454 217.462L472.962 202.231Z" fill="black"/>
<path opacity="0.1" d="M490.759 202.231C490.759 202.231 492.197 216.532 491.267 217.462L490.759 202.231Z" fill="black"/>
<path opacity="0.05" d="M481.921 190.725C483.208 190.725 484.462 190.315 485.499 189.554C485.363 188.704 484.928 187.93 484.272 187.372C483.616 186.813 482.783 186.506 481.921 186.505C481.051 186.494 480.205 186.796 479.54 187.356C478.874 187.916 478.432 188.696 478.294 189.554C479.345 190.325 480.617 190.735 481.921 190.725Z" fill="black"/>
<path d="M481.897 189.421C485.84 189.421 489.036 186.229 489.036 182.292C489.036 178.354 485.84 175.162 481.897 175.162C477.954 175.162 474.758 178.354 474.758 182.292C474.758 186.229 477.954 189.421 481.897 189.421Z" fill="#FDD835"/>
<path d="M481.897 190.556C485.232 190.556 487.936 187.856 487.936 184.525C487.936 181.195 485.232 178.495 481.897 178.495C478.562 178.495 475.858 181.195 475.858 184.525C475.858 187.856 478.562 190.556 481.897 190.556Z" fill="#FDB797"/>
<path d="M475.839 184.893C476.073 184.893 476.262 184.553 476.262 184.133C476.262 183.713 476.073 183.372 475.839 183.372C475.605 183.372 475.416 183.713 475.416 184.133C475.416 184.553 475.605 184.893 475.839 184.893Z" fill="#FDB797"/>
<path d="M487.959 184.893C488.193 184.893 488.382 184.553 488.382 184.133C488.382 183.713 488.193 183.372 487.959 183.372C487.726 183.372 487.536 183.713 487.536 184.133C487.536 184.553 487.726 184.893 487.959 184.893Z" fill="#FDB797"/>
<path d="M482.198 177.583C483.537 177.583 484.622 176.499 484.622 175.162C484.622 173.825 483.537 172.741 482.198 172.741C480.86 172.741 479.774 173.825 479.774 175.162C479.774 176.499 480.86 177.583 482.198 177.583Z" fill="#FDD835"/>
<path d="M477.345 177.583C477.345 177.583 479.763 182.412 487.053 179.998L484.635 177.583H477.345Z" fill="#FDD835"/>
<path d="M391.702 107.623H258.122V113.424H391.702V107.623Z" fill="white"/>
<path d="M391.702 119.22H258.122V125.021H391.702V119.22Z" fill="white"/>
<path d="M333.622 130.822H258.122V136.624H333.622V130.822Z" fill="white"/>
<path d="M368.471 142.419H258.122V148.22H368.471V142.419Z" fill="white"/>
<path d="M351.044 154.022H258.122V159.823H351.044V154.022Z" fill="white"/>
<path d="M391.702 165.618H258.122V171.419H391.702V165.618Z" fill="white"/>
<path d="M380.083 183.022H263.931V229.42H380.083V183.022Z" fill="white"/>
<path d="M83.8911 368.622H20.0029V20.6215H397.511V49.622" stroke="#3AD29F" stroke-width="6" stroke-miterlimit="10" stroke-dasharray="12 12"/>
<g opacity="0.5">
<path opacity="0.5" d="M21.9429 43.8268C34.0616 43.8268 43.8857 34.0158 43.8857 21.9134C43.8857 9.81096 34.0616 0 21.9429 0C9.82416 0 0 9.81096 0 21.9134C0 34.0158 9.82416 43.8268 21.9429 43.8268Z" fill="url(#paint9_linear)"/>
</g>
<path d="M21.9432 42.5349C33.3475 42.5349 42.5925 33.3023 42.5925 21.9134C42.5925 10.5244 33.3475 1.29187 21.9432 1.29187C10.5389 1.29187 1.29395 10.5244 1.29395 21.9134C1.29395 33.3023 10.5389 42.5349 21.9432 42.5349Z" fill="#69F0AE"/>
<path d="M14.1987 20.6215L21.9421 27.7086L32.9075 11.5966L36.7823 14.8202L21.9421 34.1559L10.9707 21.9134L14.1987 20.6215Z" fill="white"/>
<path d="M256.478 200.437L109.696 200.642C103.964 200.65 99.3239 205.297 99.3319 211.022L99.6655 449.654C99.6735 455.378 104.327 460.013 110.059 460.005L256.84 459.8C262.573 459.792 267.213 455.145 267.205 449.42L266.871 210.788C266.863 205.063 262.21 200.429 256.478 200.437Z" fill="url(#paint10_linear)"/>
<path d="M255.755 220.251L111.071 220.453L111.375 437.987L256.059 437.785L255.755 220.251Z" fill="url(#paint11_linear)"/>
<path d="M254.101 204.359L112.083 204.557C107.85 204.562 104.423 207.994 104.429 212.222L104.753 444.328C104.759 448.556 108.196 451.978 112.429 451.972L254.447 451.774C258.68 451.768 262.107 448.337 262.101 444.109L261.776 212.002C261.771 207.775 258.334 204.353 254.101 204.359Z" fill="white"/>
<path d="M251.34 223.269L115.458 223.459L115.748 430.978L251.631 430.788L251.34 223.269Z" fill="#E6E6E6"/>
<path d="M183.395 447.293C186.487 447.293 188.993 444.728 188.993 441.564C188.993 438.4 186.487 435.835 183.395 435.835C180.304 435.835 177.798 438.4 177.798 441.564C177.798 444.728 180.304 447.293 183.395 447.293Z" fill="#DBDBDB"/>
<path d="M159.878 216.328C160.91 216.327 161.745 215.472 161.743 214.418C161.742 213.364 160.904 212.512 159.873 212.513C158.841 212.514 158.006 213.37 158.008 214.423C158.009 215.477 158.846 216.33 159.878 216.328Z" fill="#DBDBDB"/>
<path d="M193.013 213.227L169.667 213.26C169.414 213.26 169.208 213.466 169.209 213.719L169.21 214.709C169.21 214.963 169.416 215.168 169.67 215.168L193.015 215.135C193.269 215.135 193.475 214.929 193.474 214.676L193.473 213.686C193.472 213.432 193.266 213.227 193.013 213.227Z" fill="#DBDBDB"/>
<path d="M235.882 351.218H182.724V406.961H235.882V351.218Z" fill="url(#paint12_linear)"/>
<path d="M233.574 353.645H185.034V404.54H233.574V353.645Z" fill="#4267B2"/>
<g opacity="0.5">
<path opacity="0.5" d="M213.432 376.282L212.828 376.065L212.791 376.119H212.755V374.477C212.755 374.275 212.739 374.073 212.707 373.874C213.686 373.154 214.435 372.167 214.865 371.03C215.711 369.935 216.233 368.624 216.372 367.246C216.511 365.869 216.26 364.481 215.648 363.239C215.037 361.996 214.089 360.95 212.913 360.218C211.736 359.487 210.378 359.099 208.992 359.099C207.606 359.099 206.248 359.487 205.071 360.218C203.895 360.95 202.947 361.996 202.336 363.239C201.724 364.481 201.474 365.869 201.612 367.246C201.751 368.624 202.273 369.935 203.119 371.03C203.549 372.167 204.298 373.154 205.277 373.874C205.245 374.073 205.229 374.275 205.229 374.477V376.288C201.985 377.183 199.125 379.115 197.086 381.789C195.048 384.462 193.944 387.73 193.943 391.091V404.559H224.682V391.066C224.679 387.714 223.579 384.454 221.547 381.784C219.516 379.115 216.666 377.183 213.432 376.282Z" fill="url(#paint13_linear)"/>
</g>
<path d="M208.367 375.944H210.24C213.917 375.944 217.442 377.403 220.042 379.999C222.641 382.595 224.101 386.115 224.101 389.787V403.671H194.481V389.787C194.481 387.967 194.841 386.165 195.539 384.484C196.237 382.803 197.26 381.276 198.55 379.99C199.839 378.704 201.37 377.685 203.055 376.991C204.739 376.297 206.544 375.941 208.367 375.944Z" fill="#3AD29F"/>
<path d="M209.231 371.121H208.778C206.902 371.121 205.381 372.64 205.381 374.514V376.777C205.381 378.651 206.902 380.17 208.778 380.17H209.231C211.108 380.17 212.629 378.651 212.629 376.777V374.514C212.629 372.64 211.108 371.121 209.231 371.121Z" fill="#BE7C5E"/>
<path d="M207.61 379.892L208.964 381.86L210.391 379.892H207.61Z" fill="#BE7C5E"/>
<path opacity="0.1" d="M200.067 387.022C200.067 387.022 198.629 401.323 199.56 402.253L200.067 387.022Z" fill="black"/>
<path opacity="0.1" d="M217.863 387.022C217.863 387.022 219.302 401.323 218.371 402.253L217.863 387.022Z" fill="black"/>
<path opacity="0.05" d="M209.001 375.486C210.289 375.486 211.542 375.075 212.58 374.314C212.443 373.465 212.008 372.691 211.353 372.132C210.697 371.574 209.863 371.267 209.001 371.266C208.139 371.267 207.306 371.574 206.65 372.132C205.994 372.691 205.559 373.465 205.423 374.314C206.46 375.075 207.714 375.486 209.001 375.486Z" fill="black"/>
<path d="M209 374.206C212.943 374.206 216.139 371.014 216.139 367.076C216.139 363.139 212.943 359.947 209 359.947C205.058 359.947 201.861 363.139 201.861 367.076C201.861 371.014 205.058 374.206 209 374.206Z" fill="#444444"/>
<path d="M209.002 375.341C212.337 375.341 215.041 372.641 215.041 369.31C215.041 365.979 212.337 363.279 209.002 363.279C205.667 363.279 202.963 365.979 202.963 369.31C202.963 372.641 205.667 375.341 209.002 375.341Z" fill="#BE7C5E"/>
<path opacity="0.05" d="M204.135 363.334L205.658 365.193C205.658 365.193 212.35 365.797 213.111 364.263C213.873 362.73 208.705 361.637 208.705 361.637L204.135 363.334Z" fill="black"/>
<path d="M204.135 363.165L205.658 365.024C205.658 365.024 212.35 365.628 213.111 364.094C213.873 362.561 208.705 361.468 208.705 361.468L204.135 363.165Z" fill="#444444"/>
<path d="M202.95 369.678C203.184 369.678 203.374 369.338 203.374 368.918C203.374 368.498 203.184 368.157 202.95 368.157C202.717 368.157 202.527 368.498 202.527 368.918C202.527 369.338 202.717 369.678 202.95 369.678Z" fill="#BE7C5E"/>
<path d="M215.064 369.678C215.297 369.678 215.487 369.338 215.487 368.918C215.487 368.498 215.297 368.157 215.064 368.157C214.83 368.157 214.641 368.498 214.641 368.918C214.641 369.338 214.83 369.678 215.064 369.678Z" fill="#BE7C5E"/>
<path d="M204.28 360.448C204.752 359.845 205.404 359.408 206.141 359.198C207.477 358.667 208.868 358.124 210.3 358.22C210.44 358.219 210.577 358.259 210.693 358.335C210.789 358.437 210.869 358.553 210.929 358.679C211.364 359.325 212.585 359.283 212.742 360.044C212.785 360.291 212.682 360.557 212.742 360.798C212.9 361.402 213.752 361.341 214.254 361.686C214.521 361.926 214.683 362.262 214.706 362.621C214.728 362.98 214.609 363.333 214.375 363.605C213.877 364.132 213.233 364.498 212.525 364.656C211.283 365.131 209.932 365.25 208.626 365C206.794 364.523 202.508 363.34 204.28 360.448Z" fill="#444444"/>
<path d="M181.479 350.614H128.32V406.357H181.479V350.614Z" fill="url(#paint14_linear)"/>
<path d="M179.17 353.041H130.63V403.937H179.17V353.041Z" fill="#4267B2"/>
<g opacity="0.5">
<path opacity="0.5" d="M159.029 375.679L158.424 375.461L158.388 375.516H158.352V373.874C158.352 373.672 158.336 373.47 158.303 373.27C159.283 372.55 160.032 371.563 160.461 370.427C161.308 369.331 161.83 368.02 161.969 366.643C162.107 365.266 161.857 363.877 161.245 362.635C160.634 361.393 159.686 360.346 158.51 359.615C157.333 358.883 155.975 358.495 154.589 358.495C153.203 358.495 151.844 358.883 150.668 359.615C149.491 360.346 148.544 361.393 147.932 362.635C147.321 363.877 147.07 365.266 147.209 366.643C147.347 368.02 147.87 369.331 148.716 370.427C149.145 371.563 149.895 372.55 150.874 373.27C150.842 373.47 150.826 373.672 150.826 373.874V375.685C147.582 376.579 144.722 378.511 142.683 381.185C140.644 383.859 139.54 387.126 139.54 390.487V403.955H170.278V390.463C170.276 387.11 169.175 383.85 167.144 381.181C165.113 378.511 162.263 376.579 159.029 375.679Z" fill="url(#paint15_linear)"/>
</g>
<path d="M153.962 375.341H155.836C157.656 375.341 159.459 375.699 161.14 376.394C162.822 377.09 164.35 378.11 165.637 379.395C166.924 380.68 167.945 382.206 168.642 383.886C169.338 385.565 169.697 387.365 169.697 389.183V403.067H140.077V389.183C140.077 387.363 140.436 385.561 141.135 383.88C141.833 382.199 142.856 380.672 144.145 379.386C145.435 378.101 146.966 377.082 148.65 376.387C150.335 375.693 152.14 375.338 153.962 375.341Z" fill="#514ABF"/>
<path d="M154.827 370.517H154.374C152.498 370.517 150.977 372.036 150.977 373.91V376.174C150.977 378.047 152.498 379.566 154.374 379.566H154.827C156.703 379.566 158.224 378.047 158.224 376.174V373.91C158.224 372.036 156.703 370.517 154.827 370.517Z" fill="#FDA57D"/>
<path opacity="0.1" d="M145.663 386.418C145.663 386.418 144.224 400.719 145.155 401.649L145.663 386.418Z" fill="black"/>
<path opacity="0.1" d="M163.459 386.418C163.459 386.418 164.898 400.719 163.967 401.649L163.459 386.418Z" fill="black"/>
<path opacity="0.05" d="M154.597 374.882C155.884 374.882 157.138 374.472 158.176 373.711C158.039 372.861 157.604 372.087 156.948 371.529C156.293 370.97 155.459 370.663 154.597 370.662C153.735 370.663 152.902 370.97 152.246 371.529C151.59 372.087 151.155 372.861 151.019 373.711C152.056 374.472 153.31 374.882 154.597 374.882Z" fill="black"/>
<path d="M154.597 373.602C158.54 373.602 161.736 370.41 161.736 366.473C161.736 362.535 158.54 359.343 154.597 359.343C150.654 359.343 147.458 362.535 147.458 366.473C147.458 370.41 150.654 373.602 154.597 373.602Z" fill="#444444"/>
<path d="M154.597 374.737C157.933 374.737 160.636 372.037 160.636 368.706C160.636 365.376 157.933 362.676 154.597 362.676C151.262 362.676 148.559 365.376 148.559 368.706C148.559 372.037 151.262 374.737 154.597 374.737Z" fill="#FDA57D"/>
<path opacity="0.05" d="M149.731 362.73L151.255 364.589C151.255 364.589 157.946 365.193 158.708 363.66C159.47 362.126 154.301 361.034 154.301 361.034L149.731 362.73Z" fill="black"/>
<path d="M149.731 362.561L151.255 364.42C151.255 364.42 157.946 365.024 158.708 363.491C159.47 361.957 154.301 360.865 154.301 360.865L149.731 362.561Z" fill="#444444"/>
<path d="M148.547 369.075C148.781 369.075 148.97 368.734 148.97 368.314C148.97 367.894 148.781 367.553 148.547 367.553C148.313 367.553 148.124 367.894 148.124 368.314C148.124 368.734 148.313 369.075 148.547 369.075Z" fill="#FDA57D"/>
<path d="M160.66 369.075C160.894 369.075 161.084 368.734 161.084 368.314C161.084 367.894 160.894 367.553 160.66 367.553C160.427 367.553 160.237 367.894 160.237 368.314C160.237 368.734 160.427 369.075 160.66 369.075Z" fill="#FDA57D"/>
<path d="M229.082 249.819H130.352V254.105H229.082V249.819Z" fill="white"/>
<path d="M229.082 258.391H130.352V262.677H229.082V258.391Z" fill="white"/>
<path d="M186.158 266.963H130.352V271.249H186.158V266.963Z" fill="white"/>
<path d="M211.915 275.541H130.352V279.827H211.915V275.541Z" fill="white"/>
<path d="M199.033 284.113H130.352V288.399H199.033V284.113Z" fill="white"/>
<path d="M229.082 292.686H130.352V296.972H229.082V292.686Z" fill="white"/>
<path d="M220.499 305.55H134.644V339.845H220.499V305.55Z" fill="white"/>
<path d="M150.402 366.43C150.706 365.892 150.959 365.326 151.157 364.74C151.478 364.046 151.985 363.454 152.622 363.029C153.258 362.605 154 362.364 154.765 362.334C155.53 362.304 156.288 362.486 156.956 362.86C157.624 363.233 158.176 363.784 158.55 364.45C159.046 365.338 159.209 366.388 159.759 367.245C159.837 367.304 159.927 367.346 160.022 367.368C160.117 367.39 160.215 367.393 160.311 367.375C160.407 367.357 160.498 367.32 160.579 367.266C160.66 367.211 160.729 367.141 160.781 367.058C160.876 366.884 160.932 366.691 160.943 366.492C160.955 366.294 160.922 366.095 160.847 365.911C160.72 365.537 160.509 365.193 160.37 364.825C160.231 364.225 160.028 363.642 159.765 363.086C159.442 362.665 159.029 362.32 158.556 362.078C157.22 361.257 155.673 360.406 154.162 360.871C153.652 361.045 153.169 361.291 152.729 361.601L150.807 362.808C150.189 363.154 149.636 363.606 149.175 364.143C148.758 364.686 147.966 366.31 148.335 367.01C148.77 367.807 150.021 366.932 150.402 366.43Z" fill="#444444"/>
<path d="M153.08 379.108V403.092H156.628L156.103 379.108H153.08Z" fill="white"/>
<path d="M152.488 378.782L154.544 381.77L156.708 378.782H152.488Z" fill="#FDA57D"/>
</g>
<defs>
<linearGradient id="paint0_linear" x1="95.7757" y1="284.743" x2="95.7757" y2="120.055" gradientUnits="userSpaceOnUse">
<stop stop-color="#808080" stop-opacity="0.25"/>
<stop offset="0.54" stop-color="#808080" stop-opacity="0.12"/>
<stop offset="1" stop-color="#808080" stop-opacity="0.1"/>
</linearGradient>
<linearGradient id="paint1_linear" x1="6077.8" y1="16407.2" x2="6077.8" y2="13812.5" gradientUnits="userSpaceOnUse">
<stop stop-color="#808080" stop-opacity="0.25"/>
<stop offset="0.54" stop-color="#808080" stop-opacity="0.12"/>
<stop offset="1" stop-color="#808080" stop-opacity="0.1"/>
</linearGradient>
<linearGradient id="paint2_linear" x1="7081.93" y1="16633.7" x2="7081.93" y2="14681.3" gradientUnits="userSpaceOnUse">
<stop stop-color="#808080" stop-opacity="0.25"/>
<stop offset="0.54" stop-color="#808080" stop-opacity="0.12"/>
<stop offset="1" stop-color="#808080" stop-opacity="0.1"/>
</linearGradient>
<linearGradient id="paint3_linear" x1="157936" y1="8415.01" x2="157936" y2="8165.63" gradientUnits="userSpaceOnUse">
<stop stop-color="#808080" stop-opacity="0.25"/>
<stop offset="0.54" stop-color="#808080" stop-opacity="0.12"/>
<stop offset="1" stop-color="#808080" stop-opacity="0.1"/>
</linearGradient>
<linearGradient id="paint4_linear" x1="264605" y1="134673" x2="264605" y2="46606.6" gradientUnits="userSpaceOnUse">
<stop stop-color="#808080" stop-opacity="0.25"/>
<stop offset="0.54" stop-color="#808080" stop-opacity="0.12"/>
<stop offset="1" stop-color="#808080" stop-opacity="0.1"/>
</linearGradient>
<linearGradient id="paint5_linear" x1="42832.8" y1="14350.5" x2="42832.8" y2="9203.15" gradientUnits="userSpaceOnUse">
<stop stop-color="#808080" stop-opacity="0.25"/>
<stop offset="0.54" stop-color="#808080" stop-opacity="0.12"/>
<stop offset="1" stop-color="#808080" stop-opacity="0.1"/>
</linearGradient>
<linearGradient id="paint6_linear" x1="28477.2" y1="12972.4" x2="30038.7" y2="12972.4" gradientUnits="userSpaceOnUse">
<stop stop-color="#808080" stop-opacity="0.25"/>
<stop offset="0.54" stop-color="#808080" stop-opacity="0.12"/>
<stop offset="1" stop-color="#808080" stop-opacity="0.1"/>
</linearGradient>
<linearGradient id="paint7_linear" x1="42860.2" y1="20592" x2="42860.2" y2="15444.7" gradientUnits="userSpaceOnUse">
<stop stop-color="#808080" stop-opacity="0.25"/>
<stop offset="0.54" stop-color="#808080" stop-opacity="0.12"/>
<stop offset="1" stop-color="#808080" stop-opacity="0.1"/>
</linearGradient>
<linearGradient id="paint8_linear" x1="31188.8" y1="22404.5" x2="31188.8" y2="18091.3" gradientUnits="userSpaceOnUse">
<stop stop-color="#808080" stop-opacity="0.25"/>
<stop offset="0.54" stop-color="#808080" stop-opacity="0.12"/>
<stop offset="1" stop-color="#808080" stop-opacity="0.1"/>
</linearGradient>
<linearGradient id="paint9_linear" x1="1593.05" y1="3181.39" x2="1593.05" y2="0" gradientUnits="userSpaceOnUse">
<stop stop-color="#808080" stop-opacity="0.25"/>
<stop offset="0.54" stop-color="#808080" stop-opacity="0.12"/>
<stop offset="1" stop-color="#808080" stop-opacity="0.1"/>
</linearGradient>
<linearGradient id="paint10_linear" x1="74912.6" y1="219502" x2="74756.6" y2="107560" gradientUnits="userSpaceOnUse">
<stop stop-color="#808080" stop-opacity="0.25"/>
<stop offset="0.54" stop-color="#808080" stop-opacity="0.12"/>
<stop offset="1" stop-color="#808080" stop-opacity="0.1"/>
</linearGradient>
<linearGradient id="paint11_linear" x1="183.729" y1="440.095" x2="183.425" y2="221.56" gradientUnits="userSpaceOnUse">
<stop stop-opacity="0.09"/>
<stop offset="0.55" stop-opacity="0.07"/>
<stop offset="1" stop-opacity="0.02"/>
</linearGradient>
<linearGradient id="paint12_linear" x1="18588.9" y1="37930" x2="18588.9" y2="32782.7" gradientUnits="userSpaceOnUse">
<stop stop-color="#808080" stop-opacity="0.25"/>
<stop offset="0.54" stop-color="#808080" stop-opacity="0.12"/>
<stop offset="1" stop-color="#808080" stop-opacity="0.1"/>
</linearGradient>
<linearGradient id="paint13_linear" x1="14413.1" y1="32248.5" x2="15976.1" y2="32248.5" gradientUnits="userSpaceOnUse">
<stop stop-color="#808080" stop-opacity="0.25"/>
<stop offset="0.54" stop-color="#808080" stop-opacity="0.12"/>
<stop offset="1" stop-color="#808080" stop-opacity="0.1"/>
</linearGradient>
<linearGradient id="paint14_linear" x1="13750.2" y1="37873.7" x2="13750.2" y2="32726.3" gradientUnits="userSpaceOnUse">
<stop stop-color="#808080" stop-opacity="0.25"/>
<stop offset="0.54" stop-color="#808080" stop-opacity="0.12"/>
<stop offset="1" stop-color="#808080" stop-opacity="0.1"/>
</linearGradient>
<linearGradient id="paint15_linear" x1="11592.3" y1="32202.5" x2="13155.3" y2="32202.5" gradientUnits="userSpaceOnUse">
<stop stop-color="#808080" stop-opacity="0.25"/>
<stop offset="0.54" stop-color="#808080" stop-opacity="0.12"/>
<stop offset="1" stop-color="#808080" stop-opacity="0.1"/>
</linearGradient>
<clipPath id="clip0">
<rect width="554" height="460" fill="white"/>
</clipPath>
</defs>
</svg>
